<?xml version="1.0" encoding="UTF-8"?>
<svg width="192px" height="159px" viewBox="0 0 192 159" version="1.1" xmlns="http://www.w3.org/2000/svg" xmlns:xlink="http://www.w3.org/1999/xlink">
    <title>Bappa Copy</title>
    <defs>
        <circle id="path-1" cx="79.50661" cy="78.7999953" r="78.7999953"></circle>
        <polygon id="path-3" points="0.276192791 0.465212287 61.281074 0.465212287 61.281074 20.7999988 0.276192791 20.7999988"></polygon>
        <polygon id="path-5" points="0.270305952 0.264836067 39.5327571 0.264836067 39.5327571 16.799999 0.270305952 16.799999"></polygon>
        <polygon id="path-7" points="0.345529391 0.410374712 61.3887423 0.410374712 61.3887423 19.1999989 0.345529391 19.1999989"></polygon>
        <polygon id="path-9" points="0.0843527661 0.246029356 41.1585999 0.246029356 41.1585999 15.1999991 0.0843527661 15.1999991"></polygon>
    </defs>
    <g id="Page-1" stroke="none" stroke-width="1" fill="none" fill-rule="evenodd">
        <g id="Bappa-Copy">
            <g id="Group-128" transform="translate(6.296590, 0.000000)">
                <mask id="mask-2" fill="white">
                    <use xlink:href="#path-1"></use>
                </mask>
                <use id="Mask" fill="#FFFFFF" opacity="0.330915179" xlink:href="#path-1"></use>
            </g>
            <g id="Group-128">
                <g id="Group-3" transform="translate(23.003204, 127.999992)">
                    <mask id="mask-4" fill="white">
                        <use xlink:href="#path-3"></use>
                    </mask>
                    <g id="Clip-2"></g>
                    <path d="M2.38681868,20.8001002 C2.78592454,19.8615637 1.92714812,19.3872223 1.55910108,18.7591638 C-0.404851741,15.4063054 -0.0751105838,10.9302472 2.28225398,7.82242295 C4.08055976,5.45071577 6.54766549,3.99167196 9.31759474,2.48341839 C13.4095945,4.07284268 17.2334531,3.04501836 20.4930764,0.502852653 C22.1210763,0.327320956 23.3013116,0.783398978 24.4080409,1.50277454 C25.8895467,2.46616961 27.5470525,3.19569152 28.9622995,4.20170121 C33.5854051,7.48810102 38.9068165,9.47373992 43.8348162,12.1823056 C49.2633806,15.1653298 54.7659685,18.0134077 60.5801799,20.2319051 C60.8783446,20.3455442 61.1915211,20.4404124 61.281074,20.8001002 L2.38681868,20.8001002 Z" id="Fill-1" fill="#1E63F3" mask="url(#mask-4)"></path>
                </g>
                <g id="Group-6" transform="translate(23.003204, 132.799992)">
                    <mask id="mask-6" fill="white">
                        <use xlink:href="#path-5"></use>
                    </mask>
                    <g id="Clip-5"></g>
                    <path d="M39.5327571,16.800104 C32.6831373,9.66692942 23.9438973,4.53190473 14.5565561,1.99195488 C12.0760499,1.32100492 8.30794887,0.0132299992 5.27351867,0.307229982 C4.12972127,1.17820493 3.10035425,2.15837987 2.2325062,3.3700798 C-0.0733164513,6.58622961 -0.395848078,11.2183043 1.52516447,14.6880291 C1.88516444,15.3374541 2.72465807,15.8288541 2.33478467,16.800104 L39.5327571,16.800104 Z" id="Fill-4" fill="#000000" opacity="0.0911225818" mask="url(#mask-6)"></path>
                </g>
                <g id="Group-9" transform="translate(88.603200, 129.599992)">
                    <mask id="mask-8" fill="white">
                        <use xlink:href="#path-7"></use>
                    </mask>
                    <g id="Clip-8"></g>
                    <path d="M0.345529391,19.2000999 C0.469247031,18.7352578 0.914941122,18.6756368 1.27108228,18.5427526 C8.17131716,15.9669212 14.4405403,12.1501635 21.046234,8.99883736 C26.4292455,6.43058488 31.5213393,3.39142717 36.6170566,0.410374712 C41.8287269,2.04894304 47.0238325,2.04894304 52.4239263,1.07075362 C55.1089614,2.4248588 57.7753613,4.01189029 59.617667,6.65542697 C61.8782316,9.89921625 61.8269846,13.2592161 60.2978552,16.7470474 C59.9406788,17.5615316 58.9012435,18.1021631 59.2397847,19.2000999 L0.345529391,19.2000999 Z" id="Fill-7" fill="#1E63F3" mask="url(#mask-8)"></path>
                </g>
                <g id="Group-12" transform="translate(103.003199, 133.599992)">
                    <mask id="mask-10" fill="white">
                        <use xlink:href="#path-9"></use>
                    </mask>
                    <g id="Clip-11"></g>
                    <path d="M10.111957,10.3855828 C7.22752342,12.0350448 4.28344649,13.6053619 1.17397198,14.7422171 C0.792555133,14.8811136 0.425673228,15.0362584 0.0843527661,15.2003136 L40.8608708,15.2003136 C41.2698539,12.4685068 41.3380178,9.63658977 40.545613,7.00541751 C39.7070974,4.22224527 37.7914927,1.68699024 35.1601675,0.716810992 C32.5784617,-0.235547572 29.7155799,0.403376528 27.1278596,1.33686613 C21.0793202,3.5188522 15.6928723,7.1946313 10.111957,10.3855828" id="Fill-10" fill="#000000" opacity="0.0911225818" mask="url(#mask-10)"></path>
                </g>
                <path d="M87.7724161,89.1868142 C86.3607697,88.76387 85.3483973,88.3053842 84.273195,89.4056485 C85.5074989,90.3652698 86.4595748,90.0413341 87.7724161,89.1868142 M84.6299068,83.092965 C86.2351099,84.3323489 86.662252,84.3425036 88.1428086,83.210252 C86.9769083,82.3430387 85.888532,82.4684495 84.6299068,83.092965 M83.2506888,77.5652415 C85.2151371,79.307792 87.7982575,79.1849198 89.6932889,77.2692314 C87.4369854,76.8173462 85.5303001,76.7005669 83.2506888,77.5652415 M90.042907,72.8666512 C88.0338696,71.4394049 84.7150312,71.252558 82.8909368,72.4406606 C83.6484427,73.478981 83.647936,73.4891357 87.6761445,73.771437 C88.5790712,73.8343963 89.58739,74.0461223 90.042907,72.8666512 M90.5105845,66.9007515 C89.2519594,65.8223199 86.7575103,65.6603521 83.2734899,66.1284848 C82.6948467,66.2061685 82.1881538,66.3508733 82.1156967,67.3714229 C84.9602706,68.4092356 87.7237736,67.8187385 90.5105845,66.9007515 M100.345493,59.9843697 C101.328478,60.4570721 101.959817,60.0239731 102.456883,59.3359907 C104.364581,56.6977936 107.081975,55.9387281 110.150508,55.8950628 C111.126905,55.8803384 112.145864,56.0722627 113.184585,55.6574423 C109.925029,52.7851789 102.962056,53.6351292 100.247702,58.0798514 C99.8955502,58.656132 99.8271467,59.2643999 100.345493,59.9843697 M72.1916098,59.8757142 C72.3785794,57.8615249 71.1077937,56.152485 68.576356,54.9273177 C65.4525943,53.4162949 61.3970244,53.726014 59.3378245,55.6335787 C59.4660178,55.7026308 59.5901576,55.8194101 59.7234178,55.8305803 C60.1951489,55.869676 60.6704268,55.8950628 61.143678,55.8849081 C64.6803944,55.8082399 67.9374162,56.3723348 70.1567311,59.5705648 C70.5919803,60.1971112 71.2795625,60.4387936 72.1916098,59.8757142 M63.0762047,60.5718204 C62.0430579,60.624625 61.3970244,60.5906067 60.7768323,60.7012932 C57.6317896,61.2664035 55.0202944,62.6581083 53.898983,65.8558305 C52.8354347,68.8900617 53.9496523,71.4475287 56.0053054,73.7110164 C57.8334533,75.7231748 60.15208,76.9290481 62.7053055,77.6236312 C67.0674246,78.8097028 71.8095633,75.6683393 72.3800995,71.4515906 C72.9627963,67.1388798 68.9502953,59.9483204 63.0762047,60.5718204 M109.704618,60.6144703 C108.680592,60.6408726 107.670246,60.6383339 106.65534,60.9561767 C103.173853,62.0462862 101.434883,64.7550585 100.410857,67.9324714 C98.7017818,73.2367909 102.090544,77.7546271 107.640351,77.8135245 C111.705041,77.8566821 116.697486,74.6284957 118.291542,70.9270991 C119.656066,67.7598411 118.64116,64.271186 115.774799,62.3143709 C113.945131,61.0658477 111.916332,60.5103844 109.704618,60.6144703 M109.167523,102.814452 C110.234619,104.197018 110.053223,105.495807 110.121626,106.756516 C110.191043,108.039565 110.244752,108.051243 111.845395,108.354361 C112.594287,108.036519 112.514737,107.126655 113.03663,106.652938 C113.599059,106.356927 114.163515,106.375206 114.57647,106.821506 C115.156633,107.44856 115.214396,108.266523 115.077589,109.070269 C114.743172,111.025561 114.418382,112.9839 114.008467,114.923452 C112.789364,120.691334 106.101018,127.296982 97.9645436,126.29928 C94.4703894,125.870243 91.3405474,124.707527 88.394635,122.974116 C86.1373182,121.646386 84.9283489,119.316893 83.609934,117.137181 C81.3921392,113.470311 80.3402448,109.406391 79.5847657,105.251586 C79.0608453,102.368152 78.6088752,99.4699944 78.2014941,96.5677745 C78.0363122,95.3913499 78.2101079,94.1930926 78.2698977,93.0014359 C78.5536457,87.3615027 78.6301563,81.7312166 77.1526398,76.1984158 C76.6358131,74.2619102 75.6209072,72.565056 74.7904376,70.7813789 C74.51581,70.1924049 74.0567463,69.5658585 72.9313814,69.4226769 C75.5276757,75.8775266 76.8476107,82.384673 75.938097,89.3365963 C73.4710093,88.5582368 72.1546212,86.8253334 71.4275169,84.8482088 C71.346446,83.4849373 72.7591058,82.3146054 71.0257094,81.2869475 C70.0792071,82.4953595 69.0658213,83.660614 67.8168233,84.4364348 C67.886747,85.7717809 68.9791768,85.4183965 69.5633937,85.7331929 C70.9643996,88.6140878 72.493092,91.2934115 75.8438521,91.9296049 C76.2669407,92.9592938 75.8524659,93.791981 75.9679919,94.7556642 C73.7623577,94.992777 71.7229188,94.6932127 69.7108414,94.5073813 C64.5385203,94.0285861 59.5638095,92.776001 54.9883728,90.1875621 C50.8922674,87.8687311 48.5751608,84.3404727 48.0183054,79.7094113 C47.5987636,76.2202485 47.837416,72.7117917 48.3512026,69.2464925 C48.9744348,65.0414217 48.7606104,60.8434593 48.5447593,56.6343266 C48.475849,55.2908568 48.5341187,53.9407864 48.5341187,52.3779745 C50.8709863,50.791299 53.6887055,50.006339 56.5084514,49.2914465 C62.2730964,47.8311973 68.1086784,47.6504432 73.9837825,48.5415202 C74.6885923,48.6481448 75.4111364,48.6364668 76.1174663,48.7364909 C78.000337,49.0035601 79.750961,49.2868768 80.9614503,51.197488 C81.9135262,52.6998792 83.6448958,53.4223878 85.5348603,53.185275 C86.6997473,53.0395547 87.8925023,53.4843316 89.0345881,52.9441003 C90.2004884,52.3926988 91.2883581,51.7549822 91.9663132,50.6064831 C92.3894017,49.8890519 92.9305497,49.3736997 93.7843273,49.2107164 C103.645584,47.3239689 113.341153,47.3914978 122.681529,51.6569892 C123.103605,51.8504366 123.494265,52.1149672 123.926474,52.3622347 C124.104323,54.9745372 123.864151,57.5086483 123.697449,60.0326046 C123.486158,63.2277882 123.748625,66.3747369 124.120537,69.5394563 C124.529438,73.0149102 124.842575,76.5253979 124.355136,80.0089756 C123.736971,84.4333884 121.494855,87.8702544 117.567985,90.1002315 C112.495989,92.9801109 106.978103,94.261637 101.206871,94.6134981 C100.018677,94.6855967 98.8304817,94.7703886 97.6468472,94.8947839 C96.5883657,95.0064859 95.6063949,94.8419794 94.5291658,94.1966467 C94.1516796,89.8463634 94.2895001,85.419412 94.5788217,80.9731665 C94.8645965,76.5705864 96.601033,72.5879041 98.0684156,68.2904253 C96.4768933,68.3249514 95.9332118,69.2972661 95.4052378,70.2243923 C94.1334387,72.4604623 93.3602253,74.9021654 92.9771655,77.4149516 C92.2713423,82.0439821 91.6835785,86.6684429 92.2657687,91.4046057 C92.6609891,94.6216219 92.3564667,97.9132753 92.9021749,101.144 C93.5107131,104.74385 93.9297481,108.376194 96.0994071,111.513496 C98.810214,115.434234 103.902478,115.237233 106.202357,111.04384 C106.698409,110.140069 107.010025,109.164201 107.269452,108.15279 C107.713821,106.420394 108.051786,104.628594 109.167523,102.814452" id="Fill-13" fill="#F8E71C"></path>
                <path d="M95.691492,114.417248 C100.410778,117.195454 104.431775,121.667538 105.403199,127.086112 C103.964559,127.923862 102.224914,128.01167 100.562801,127.998907 C96.1014461,127.965724 91.5123923,127.318394 87.6571006,125.056827 C84.5198621,123.215921 77.1563969,115.437251 79.4326811,111.090753 C81.648663,106.858609 92.9758626,112.818325 95.691492,114.417248" id="Fill-15" fill="#000000" opacity="0.0911225818"></path>
                <path d="M94.3052084,94.0536343 C94.5920452,94.9439491 94.9320191,95.8555343 95.6052604,96.5154206 C97.0471831,97.9304033 99.4156508,97.7030135 101.407,97.2679848 C106.940991,96.0570959 112.284102,94.0055229 117.186639,91.2084758 C120.265493,89.4516486 123.448556,86.9589697 123.777696,83.4777274 C123.996951,81.1612882 122.783569,78.8149694 120.862381,77.4531625 C118.940678,76.0913555 116.39887,75.6851937 114.081991,76.1744111 C112.093221,76.5947531 110.115285,77.6359859 108.136317,77.175129 C105.023415,76.4509252 103.968928,72.5513666 104.343983,69.4327325 C104.574587,67.5072621 105.158579,65.5514056 106.469465,64.1009723 C107.779835,62.6505391 109.938849,61.8255545 111.799678,62.4737928 C112.537406,62.7300496 113.572804,63.0951901 113.924128,62.408969 C114.085603,62.0944721 113.970042,61.7156579 113.836426,61.3879937 C112.253664,57.5086924 107.591017,54.5450279 103.403509,56.7576476 C100.199293,58.4506638 97.877256,63.3129576 96.3981889,66.3956347 C92.2968344,74.9432647 91.3950523,85.0137483 94.3052084,94.0536343" id="Fill-17" fill="#000000" opacity="0.0911225818"></path>
                <path d="M69.3910757,67.1395635 C70.3758432,68.1393882 71.2059403,69.3406889 71.5308483,70.7082073 C72.2991778,73.937364 69.8460473,77.3715226 66.6692811,78.3028454 C63.4925148,79.2346719 59.9652296,78.0227937 57.4794577,75.8312385 C56.3139069,74.8032071 55.2186608,73.5102349 53.6915431,73.2316943 C51.9670703,72.9163843 50.2636888,74.0567385 49.2583322,75.497292 C46.7871234,79.0377291 47.6629186,84.1703304 50.386722,87.519869 C53.1100232,90.8694077 57.2735655,92.7129131 61.4396188,93.818009 C65.6453439,94.9336824 70.0283373,95.4167212 74.3676413,95.1089666 C74.9260611,95.0696787 75.5296769,94.9971474 75.9359374,94.6108171 C76.2502996,94.3116253 76.3889002,93.8764371 76.5044007,93.4578707 C79.1694495,83.7850076 75.4111633,73.6275946 71.7116317,64.303285 C69.8731648,59.6708479 64.7107941,51.0748741 59.4836427,57.4994402 C58.720335,58.4383184 57.6195649,60.2888756 57.6743021,61.5460859 C57.7817678,63.9874714 58.2914766,63.1719972 60.2805962,63.4344197 C63.7898031,63.8968072 66.7737337,64.482095 69.3910757,67.1395635" id="Fill-19" fill="#000000" opacity="0.0911225818"></path>
                <path d="M47.8032021,87.2107824 C46.1278422,90.3343651 43.2695782,92.1802789 40.9694308,94.6680525 C39.6390425,94.3604842 38.3253219,94.3655263 37.1318111,95.1999943 C35.4690783,94.3519126 33.8654401,93.5340835 32.1724023,92.6703713 C32.5476789,91.2737088 32.9466944,89.9683084 32.6087939,88.6412269 C32.2638223,87.2894392 31.1177893,86.6773279 29.9924646,86.190765 C30.2571281,83.3722295 29.9672105,82.9406255 27.2912814,82.035568 C26.6321482,78.9886253 25.2724651,78.3170172 22.4652145,79.6688049 C21.901542,79.9400701 21.365144,80.2678068 20.749448,80.6066361 C18.1513016,77.6151565 17.4800465,73.583491 15.2597022,70.7906703 C14.05811,70.3671336 13.2115911,70.406462 12.3968924,70.6787356 C11.3059134,71.6392562 11.3483404,72.8891935 11.4609738,74.0866929 C10.6932479,74.5621632 10.3336289,74.1678707 10.1694769,73.5754237 C9.76894621,72.1343907 9.26941924,70.6963829 9.09112499,69.2230805 C8.77393294,66.5981617 8.2648094,63.9808062 8.9254578,61.2953822 C9.47145239,59.0758485 10.4250489,57.1623705 12.0473751,55.5640239 C12.8873279,54.7366148 13.9035546,54.3070276 15.0536284,54.4169455 C20.9767353,54.9821652 26.9119642,54.5465275 32.8401219,54.6589664 C36.3211531,54.7255222 39.8052148,54.6665296 43.2877612,54.6574538 C44.3908622,54.6539243 45.4909327,54.6524117 46.5930236,55.0593094 C46.7450535,58.4718046 46.8253617,61.8399293 46.6965655,65.2146087 C46.4344275,65.2146087 46.3349262,65.246374 46.2879535,65.2100708 C42.6998447,62.4424606 38.4813925,62.0461513 34.1710153,61.9977471 C31.3213377,61.9654776 28.4746906,61.9972429 25.6265282,62.1545565 C23.9723818,62.2453144 22.3066185,62.1722039 20.6474212,62.122287 C18.9387258,62.0708576 17.3643825,61.6538757 16.1764276,60.2899869 C15.9198455,59.9955281 15.5592163,59.8034239 14.9909981,59.875526 C14.1914519,60.6641109 14.734416,61.3775685 15.3056647,62.0269913 C16.7709101,63.6939105 18.762957,64.2233313 20.8555154,64.2798029 C23.7016574,64.356947 26.5523451,64.2500544 29.4010126,64.2475334 C32.8790133,64.2445081 36.3625699,64.0665219 39.8178418,64.697289 C40.7638621,64.8697289 41.6558384,65.1455319 42.5255911,65.5257065 C44.4317739,66.3591661 45.419211,67.7517949 45.6313458,69.8851086 C45.8601483,72.1832991 45.6480135,74.4588001 45.5944747,76.7373263 C45.5076005,80.4296583 45.8005485,84.0024923 47.8032021,87.2107824" id="Fill-25" fill="#F8E71C"></path>
                <path d="M38.5287122,58.4528774 C37.1853582,60.7337978 34.4803025,61.678141 31.9592203,62.2384753 C36.3428487,66.0143059 38.6397906,72.2335024 37.8091823,78.0784573 C36.9790699,83.9239263 33.0506644,89.1926108 27.8032033,91.4982065 C30.8003357,93.2995013 34.0067318,94.7244982 37.3316445,95.7320718 C37.940592,95.9161082 38.5822679,96.0883211 39.2026207,95.9495227 C39.9950459,95.7737113 40.6005221,95.130098 41.1509551,94.5127022 C43.3864073,92.0091902 45.554419,89.4403917 47.6520149,86.8114471 C48.0388056,86.3271949 48.4355141,85.814669 48.5599814,85.1983013 C48.7469302,84.2765771 48.2892279,83.3646202 47.9178096,82.5045841 C44.1426327,73.776735 48.4543578,63.5663133 47.1561293,54.0961498 C47.0867054,53.5903067 46.9895118,53.0592743 46.6686738,52.6706388 C46.2764283,52.1951257 45.640703,52.0378209 45.0476239,51.9221555 C43.5178169,51.6234819 39.6523889,50.3799511 38.6045827,52.0650665 C37.507188,53.8303765 39.8145435,56.2706581 38.5287122,58.4528774" id="Fill-27" fill="#000000" opacity="0.0911225818"></path>
                <path d="M15.5301979,86.3999949 C15.0098656,85.1456454 14.6272561,84.2235869 14.2032041,83.199995 C15.7399215,83.5303427 16.1405313,84.4038207 15.5301979,86.3999949" id="Fill-29" fill="#88CFFF"></path>
                <path d="M125.755,65.0304684 C125.425914,61.2286025 125.639921,57.7754605 125.744906,54.3006202 C126.910841,53.7948414 128.096966,53.8573533 129.27451,53.85787 C137.418392,53.8594199 145.563283,53.8676859 153.70767,53.8604531 C154.73127,53.8594199 155.753356,53.9017834 156.776957,53.6847996 C158.305291,53.3603572 159.503529,53.995293 160.59325,55.1039769 C163.025058,57.577592 163.518183,60.7424555 163.758436,64.0013453 C163.88361,65.700535 163.761969,67.3935251 163.192629,69.0338192 C162.659126,69.6041766 161.930795,69.6145091 161.171675,69.7415996 C160.489779,68.5239073 160.985933,66.7968197 159.449523,65.6953687 C156.78907,65.0821312 155.987553,67.6347904 154.428934,69.3040157 C152.745142,68.1405693 151.436367,65.9247515 148.836483,66.6893611 C146.993194,69.6232918 147.151681,72.3712365 149.604183,78.8218544 C148.689605,79.2501391 147.510547,78.8616348 146.75395,79.7171708 C146.109405,80.2658298 146.36581,81.0836521 146.152308,81.7537186 C143.242012,82.9812269 143.059803,83.2529733 143.267248,86.0629133 C140.362,87.8922932 140.112157,88.6140226 141.087807,92.7429141 C138.677703,94.0840805 136.212582,95.4562446 133.797431,96.7999942 C130.701393,94.6482384 125.928629,89.6498619 124.603198,87.1514486 C127.163208,82.9848433 126.847749,78.247364 126.648379,73.5599976 C126.588821,72.1754344 126.7145,70.8223855 126.747307,69.4543544 C126.7998,67.2488693 127.923842,65.8493239 129.822146,64.986555 C131.80777,64.0829725 133.913015,63.7538804 136.056115,63.741998 C140.957081,63.7135835 145.859057,63.7409647 150.760528,63.7657629 C152.288358,63.7729957 153.73543,63.4604357 155.134552,62.8430652 C156.113232,62.4116807 156.876894,61.7312816 157.447748,60.8307989 C157.764721,60.3317362 157.888885,59.7882435 157.447748,59.3150122 C157.103519,59.0778799 156.741121,59.12076 156.539732,59.3475597 C154.431458,61.7286985 151.604443,61.7271486 148.851625,61.6326056 C144.900567,61.4956992 140.952539,61.2637332 136.998453,61.4032228 C134.627213,61.4863999 132.276163,61.7550465 129.989213,62.4602438 C128.46744,62.9298587 127.248508,63.9791303 125.755,65.0304684" id="Fill-31" fill="#F8E71C"></path>
                <path d="M137.310269,63.2647639 C135.163578,66.9883591 134.677591,71.6749356 136.012316,75.7779179 C137.347041,79.8814095 140.479619,83.3315404 144.377453,84.991168 C145.024939,85.2666692 145.75541,85.5528646 146.05704,86.2021512 C146.251336,86.6227871 146.220527,87.114208 146.144001,87.5730372 C145.293772,92.6990916 139.914125,95.466835 135.136248,97.2160896 C134.535969,97.4360832 133.910348,97.6555676 133.276279,97.5873288 C132.633266,97.5185808 132.05684,97.1610912 131.520664,96.7908705 C128.879538,94.9698125 126.589238,92.6176125 124.817721,89.9074137 C124.482798,89.3940953 124.161788,88.8604071 123.984885,88.2696836 C123.670832,87.224714 123.829846,86.1008116 123.971965,85.0171395 C125.277371,75.0934934 124.95338,65.0298051 124.626904,55.0216244 C127.012116,54.0341995 133.279758,51.0062322 134.441555,54.287294 C134.98419,55.8231752 133.759285,57.8774672 134.151354,59.5381132 C134.269621,60.0402282 136.858073,64.0495096 137.310269,63.2647639" id="Fill-33" fill="#000000" opacity="0.0911225818"></path>
                <path d="M148.21954,116.799995 C148.384225,113.432742 147.50235,110.789426 146.371925,108.196391 C145.838225,106.971703 145.024461,105.892725 143.924024,105.336562 C142.865775,104.801947 142.168917,104.046714 141.481207,103.184764 C140.52919,101.990859 139.395714,100.981146 138.30341,99.9252561 C137.692451,99.3352303 136.860897,98.8975851 136.603197,97.9124986 C138.880313,96.2696616 141.541185,95.3682049 143.964179,93.8628696 C144.959909,94.512924 145.495133,95.8376602 146.866486,95.7961018 C147.401202,95.7791706 147.7631,95.5190462 148.08027,94.7869012 C147.45508,92.4196152 144.065836,91.4853222 144.153261,88.6224146 C144.80844,87.1971176 146.332278,88.010327 147.103855,87.1960914 C147.922194,85.8867473 146.162003,85.2351536 146.392764,84.0171352 C147.509466,82.816048 148.892001,85.3023653 150.185078,83.5425493 C150.699971,82.6959906 149.226453,82.0254134 149.366231,80.9531057 C150.355354,80.5010947 151.022223,81.1470446 151.728231,81.6334311 C152.731077,82.3245309 153.524002,83.2177786 154.154783,84.256737 C154.649853,85.0730248 155.23743,85.7579678 155.956145,86.4249534 C157.49574,87.8538419 157.633485,89.8281194 157.167388,91.7823874 C156.540164,94.411337 155.592721,96.8571221 152.83985,98.0274254 C152.337665,98.2408608 151.908672,98.6425913 151.49137,99.3819193 C151.835479,103.982581 151.668253,108.776669 150.177962,113.431715 C149.836903,114.495814 149.352507,115.489623 148.21954,116.799995" id="Fill-35" fill="#F8E71C"></path>
                <path d="M142.652025,101.407162 C145.46471,101.065244 147.967452,98.8457948 148.687033,96.0541355 C148.762051,95.7609911 148.822263,95.4562819 148.980196,95.1993407 C149.360222,94.5813743 150.155809,94.4290197 150.831465,94.1876659 C154.117949,93.01358 155.381412,89.0478349 156.205624,85.5999949 C157.829371,87.4413235 158.53612,90.081131 158.054425,92.506737 C157.57273,94.9318402 155.915422,97.0844146 153.717688,98.1383264 C153.287321,98.3444828 152.808587,98.5360574 152.559349,98.948873 C152.352556,99.2917965 152.349101,99.7191939 152.358972,100.12145 C152.435471,103.418444 152.950233,106.739071 152.435471,109.995336 C151.921202,113.251601 150.081778,116.568205 147.007023,117.599995 C147.347565,113.587486 145.372418,109.71074 142.835622,106.621411 C140.912296,104.279273 138.487533,102.370064 136.603197,100.031445 C138.304923,99.6286863 140.490812,101.669635 142.652025,101.407162" id="Fill-37" fill="#000000" opacity="0.0911225818"></path>
                <path d="M27.6414166,87.0177001 C28.3589993,87.895659 29.7467723,87.1280778 30.6992564,88.4845092 C31.0413059,89.1057638 30.4478707,89.9199264 29.8621625,90.658141 C29.1718819,91.5279988 28.3878469,92.332035 27.5914486,93.1122742 C26.9696809,93.7208708 26.5822996,94.3294675 27.0521025,95.2454004 C28.850953,96.2281676 29.5932622,94.6317406 30.7976472,93.6930232 C31.8299772,94.222634 32.9333958,94.7897124 34.2032029,95.4413463 C33.5551634,96.4960109 32.7654619,97.301566 32.5351967,98.4463556 C31.4395051,98.5192657 30.4025388,98.1699049 29.2491521,98.5901505 C27.5430259,99.9075952 27.8078051,101.928825 28.1029773,103.729805 C28.3383939,105.165222 28.11328,106.344442 27.5584799,107.59809 C26.5972385,109.772734 25.7127522,111.979277 25.3676119,114.399993 C23.0227185,109.491221 22.9093889,104.285744 23.2339238,99.127356 C22.6693361,98.176487 21.9842069,97.5805484 21.0512979,97.1901756 C19.5388623,96.556263 18.6765267,95.3497023 18.2824487,93.8059326 C17.8177971,91.9877374 16.9214627,90.2115668 17.7261031,88.2672979 C17.8162517,88.0495803 17.7781317,87.7462946 17.9203089,87.588829 C19.8618518,85.4389942 21.0682973,82.6436014 23.7485434,81.1448941 C24.0220799,80.9919855 24.3291002,80.8699624 24.6361205,80.8107229 C24.8514469,80.7692047 25.0935602,80.8588233 25.3928535,80.8988226 C25.5546058,81.9565251 24.0612302,82.6187917 24.8380534,83.873959 C25.8708985,85.0967219 27.0907376,83.0663786 28.3023345,83.8050995 C28.7144423,84.4891379 28.1740659,84.9569776 27.8428343,85.4572218 C27.5193297,85.9463269 27.2947309,86.4268246 27.6414166,87.0177001" id="Fill-39" fill="#F8E71C"></path>
                <path d="M19.4530072,89.9478254 C19.7412244,91.7153801 20.6674948,93.4645386 22.2188983,94.2806083 C23.4333859,94.9198713 25.0180835,95.0159396 25.8146561,96.1549622 C26.5699839,97.2352197 26.2509573,98.7758896 26.80503,99.9782765 C27.1444306,100.713608 27.7829807,101.260891 28.1656139,101.973227 C28.8955984,103.334024 28.5735903,105.013176 28.1974172,106.518586 C27.464948,109.451736 26.5993026,112.349626 25.6044564,115.199993 C21.6504148,112.086971 20.4289702,106.475662 20.5298462,101.355426 C20.5392878,100.868952 20.5546926,100.364594 20.3688422,99.9169563 C20.1089498,99.2914903 19.5131353,98.901085 18.9933505,98.4810417 C16.8784327,96.7727632 15.6530127,93.9632762 15.8179922,91.2038674 C15.9616039,88.8016487 17.273489,85.8639003 19.4415779,84.7999949 C19.683084,86.4418432 19.1712501,88.2206399 19.4530072,89.9478254" id="Fill-41" fill="#000000" opacity="0.0911225818"></path>
                <path d="M126.128234,112.934757 C125.51206,112.58551 125.066597,112.096664 124.344361,112.016607 C121.597339,112.252274 121.692796,114.834602 120.67914,116.799993 C119.783163,115.839813 119.67104,114.922664 119.915489,113.919954 C120.704393,110.688167 122.064015,107.702553 124.142842,105.09821 C125.910048,102.884143 128.52929,102.616953 130.84196,104.244105 C131.291464,104.560829 131.763695,104.869048 132.136935,105.263327 C134.605669,107.868671 136.185497,110.96186 137.403197,114.467342 C135.696599,114.890141 134.185964,115.271911 133.035942,116.331161 C132.161682,115.49657 132.002589,114.546898 131.666724,113.698798 C130.357608,110.39596 128.517168,110.075733 126.128234,112.934757" id="Fill-43" fill="#FFFFFF"></path>
                <path d="M78.2032003,12.7965862 C78.9856032,7.56397151 82.8639767,4.75946165 86.6037095,1.5999999 C90.3449714,4.76043679 94.2223256,7.56543423 95.0031993,12.7999992 C89.3484909,12.2563573 83.8548505,12.25782 78.2032003,12.7965862" id="Fill-45" fill="#1E63F3"></path>
                <path d="M9.84918751,88.7999947 C5.41481483,87.0860217 0.839449304,77.3600009 4.11630036,73.5999956 C5.50108667,74.4188295 6.43923133,75.9107281 7.91275439,76.6506255 C9.3522617,77.3726308 10.7878252,77.6989013 12.3698042,77.0621475 C12.9899755,78.4093292 13.5608486,79.6491574 14.2032041,81.0452798 C11.8196364,82.9886947 10.1153978,85.344684 9.84918751,88.7999947" id="Fill-47" fill="#F9F9F9"></path>
                <path d="M13.4032042,71.9999957 C14.6582721,72.2671802 14.8577741,73.0402545 15.1195545,73.6512577 C16.0748417,75.8809016 17.1467689,78.0458206 18.323725,80.1724224 C18.7960908,81.0252379 19.6463492,82.1152055 18.1896681,83.199995 C15.6795322,79.8270503 14.1257391,76.2190246 13.4032042,71.9999957" id="Fill-49" fill="#7572DE"></path>
                <path d="M154.335971,81.5860139 C151.666469,77.9482894 149.157265,74.3181773 150.649643,69.5999959 C153.042363,70.355656 154.8532,72.8550691 155.6766,76.2766007 C156.08536,77.9797541 155.3902,79.5479138 155.197307,81.1759579 C155.163645,81.4606626 154.789615,81.6550332 154.335971,81.5860139" id="Fill-51" fill="#D851B5"></path>
                <path d="M165.392815,71.1999958 C165.630054,74.8961155 161.771484,79.8515766 156.823721,82.3999951 C156.286505,81.6075595 156.854299,80.948153 157.219121,80.4040382 C158.364197,78.6955284 159.276251,76.8712051 160.199904,75.0484468 C161.249557,72.978411 162.822192,71.5860407 165.392815,71.1999958" id="Fill-53" fill="#D851B5"></path>
                <path d="M159.003196,84.5214344 C160.890793,81.8218853 164.674139,80.9082843 168.603195,82.1377351 C168.45341,83.217211 167.440578,83.6710034 166.459333,83.9937288 C164.081113,84.7766926 161.628,85.0628913 159.003196,84.5214344" id="Fill-55" fill="#D851B5"></path>
                <path d="M157.456539,74.3999956 C157.407877,72.2168657 157.088437,69.9483702 158.852421,67.9999959 C159.21699,70.6579723 158.982708,72.7324549 157.456539,74.3999956" id="Fill-57" fill="#D851B5"></path>
                <path d="M165.403195,77.5999954 C166.293472,76.2050867 166.293472,76.2050867 167.490487,75.9999955 C167.990725,76.2988015 167.743426,76.6812299 167.73258,77.0088713 C167.053592,77.605402 166.274816,77.5682765 165.403195,77.5999954" id="Fill-59" fill="#D851B5"></path>
                <path d="M82.4826066,119.999993 C86.1396494,126.827077 92.0544616,129.271055 98.9773146,129.940589 C105.150431,130.538075 111.982651,126.583142 115.054607,120.570718 C115.773629,120.503816 115.902026,121.100272 115.741908,121.503228 C114.142738,125.525062 115.426706,129.643648 115.151786,133.943897 C110.634736,136.224224 105.897146,138.575569 101.321185,141.240839 C96.7286084,143.916915 91.8334177,145.925517 86.9618924,147.999993 C77.4781528,144.718709 69.0875483,139.143721 59.8032014,134.570717 C64.1027317,132.609461 68.0150575,130.812373 71.6091606,128.323621 C75.2606647,125.795243 78.6765229,122.964777 82.4826066,119.999993" id="Fill-61" fill="#1E63F3"></path>
                <path d="M88.1179849,134.451954 C84.7477191,135.184896 81.2384837,134.601954 77.8636531,133.889079 C77.092727,133.726538 76.0154592,133.731053 75.8267851,134.487573 C75.761865,134.747438 75.839972,135.021852 75.9515534,135.265163 C77.1033779,137.780541 81.5483757,138.486392 81.2410196,141.231034 C81.0386515,143.040562 78.806516,143.778018 76.9791168,143.998252 C80.9919902,144.543066 84.2552393,148.486702 88.269127,147.949914 C89.2657519,147.816971 90.1994855,147.406604 91.1174962,147.001756 C98.8181352,143.60143 106.518267,140.201606 114.218906,136.801279 C114.777828,136.553956 115.359065,136.291582 115.744021,135.820513 C116.285698,135.1563 116.32323,134.232724 116.336417,133.379883 C116.425682,127.586587 116.51444,121.79329 116.603198,115.999993 C114.487716,119.820719 111.669271,123.367533 107.923178,125.659167 C106.207361,126.707659 104.288668,127.468192 102.30404,127.833409 C100.612567,128.144445 97.7418818,127.294112 96.3070462,127.94177 C94.9903856,128.53625 94.4411007,130.612666 93.4373752,131.62855 C92.0197841,133.063831 90.0873969,134.023527 88.1179849,134.451954" id="Fill-63" fill="#000000" opacity="0.106073289"></path>
                <path d="M120.560244,91.9999945 C123.859034,93.2207366 126.893336,94.2957641 129.403197,96.7657799 C128.199653,98.4104191 127.052029,99.9806725 125.774428,101.72721 C121.788978,102.593855 120.238325,106.293275 117.935016,109.834242 C117.726952,108.008224 117.285132,106.790029 116.265973,105.905042 C115.140516,104.928856 113.739487,105.248307 112.441735,105.222833 C112.002434,104.414269 111.673461,103.595516 111.164134,102.915854 C110.130869,101.540227 108.644197,101.542774 107.581713,102.875095 C106.779182,103.880832 106.277411,105.058776 106.012924,106.314164 C105.714179,107.73106 105.104094,109.021093 104.554463,110.338129 C104.076874,111.482957 103.346385,112.381191 102.158458,112.799993 C98.2148222,112.219682 96.2616444,109.538737 95.8031993,104.006166 C96.403712,102.883756 97.3034736,101.882605 98.1901367,100.879925 C99.026925,99.9332898 99.8224029,98.9341766 101.069777,98.1113475 C107.868367,97.5977799 114.574764,96.0815325 120.560244,91.9999945" id="Fill-65" fill="#1E63F3"></path>
                <path d="M104.478346,109.508554 C106.918474,106.386494 108.214666,102.42129 108.081064,98.4872765 C108.064426,97.987232 108.038714,97.4386683 108.347259,97.0391278 C108.579172,96.738606 108.954266,96.5861172 109.311211,96.447491 C112.78083,95.0993513 116.25045,93.7517067 119.719565,92.4030719 C120.240361,92.2010737 120.776786,91.9956099 121.336402,91.9999945 C121.97265,92.0050166 122.570582,92.2788034 123.144314,92.5471441 C125.056588,93.4417781 126.968357,94.3359171 128.880631,95.230056 C129.38731,95.4672058 129.940372,95.7523797 130.131953,96.2707426 C130.247405,96.584632 130.206568,96.934168 130.122374,97.2574641 C129.304628,100.407744 125.222456,101.360799 123.007183,103.777846 C120.793927,106.191922 120.660325,109.841257 118.86552,112.570212 C117.957531,111.445855 118.032146,109.871457 117.919215,108.440637 C117.806787,107.009817 117.239105,105.351253 115.830485,104.969536 C114.517152,104.614059 113.237598,105.56959 112.26558,106.506802 C112.230289,105.001222 111.752346,103.509505 110.904352,102.255929 C108.699666,103.308497 108.518673,106.228559 107.827976,108.538171 C107.273906,110.390315 106.130978,112.154829 104.390623,113.051938 C102.650267,113.949543 100.273663,113.769824 98.9678925,112.325636 C96.8095896,109.93582 99.8738656,111.182465 100.179386,111.148799 C102.159217,110.929967 102.918984,111.503286 104.478346,109.508554" id="Fill-67" fill="#000000" opacity="0.0911225818"></path>
                <path d="M116.080007,119.999993 C115.88823,119.544672 115.784855,119.417576 115.805887,119.331201 C115.996951,118.554235 116.209047,117.78426 116.472118,116.799993 C116.872783,118.076291 116.242198,118.817885 116.080007,119.999993" id="Fill-69" fill="#D851B5"></path>
                <path d="M80.6032002,117.699733 C78.6880753,119.870826 76.4337497,121.290934 74.3574916,122.900695 C70.5605975,125.845145 66.6307942,128.612144 62.3715402,130.88391 C62.0887873,131.034412 61.8270741,131.225082 61.5417554,131.369991 C58.5438563,132.894841 55.6219054,133.780057 52.7671789,130.965771 C51.754708,129.967679 50.1197702,129.837515 48.8722706,128.765697 C52.063119,126.32309 55.4874567,124.113355 56.9422742,120.053869 C56.1910033,119.058319 55.5223517,119.409151 54.9106613,120.222167 C53.4891994,122.11056 51.6695229,123.578971 49.8252146,125.026536 C48.7450062,125.874635 47.5411254,126.502065 46.2833626,127.038483 C45.9036219,127.200679 45.526447,127.257626 45.1697986,126.937809 C45.378656,125.969207 46.2756651,125.620409 46.948422,125.103312 C49.6184098,123.049164 50.8402513,120.320807 50.9043967,117.029593 C50.9182521,116.313183 50.9228705,115.592706 50.8633436,114.880363 C50.7299212,113.271619 50.8012509,111.712703 51.5150608,110.210226 C52.2073179,108.752492 51.8763276,107.410177 50.8063825,106.243787 C49.6728051,105.008247 48.3201071,104.956385 46.8432236,105.561443 C46.193559,105.827364 45.5146442,106.023627 44.6699777,106.312428 C44.0854849,103.090364 43.4507021,99.988294 42.2032025,96.8491074 C44.7490048,94.3754853 47.9778273,93.2380767 51.3349405,91.9999945 C55.0630707,94.1126152 58.9400183,95.989314 63.2218515,96.9233415 C67.3902757,97.8324548 71.6428586,97.9600764 76.0293771,98.3241285 C75.9303366,101.79686 76.8997018,105.009264 77.5180634,108.278106 C78.1235959,111.482374 78.8651166,114.656644 80.6032002,117.699733" id="Fill-71" fill="#F8E71C"></path>
                <path d="M55.6278006,112.054042 C56.557634,107.848218 56.243418,103.465606 55.6406153,99.1999941 C57.7632394,101.162712 59.8863762,103.125945 62.0090004,105.088662 C63.3253246,106.306598 64.6718916,107.544121 66.3019193,108.283232 C69.7008859,109.823306 73.7016301,108.929053 77.1344275,107.466808 C77.5860169,107.274556 78.0883525,107.069419 78.5512189,107.232807 C79.1145524,107.431759 79.364695,108.077064 79.5466635,108.64918 C80.3140068,111.062374 81.0818626,113.476084 81.8492058,115.889794 C82.1316414,116.777346 82.4074134,117.776229 81.9891422,118.607601 C81.6769765,119.228166 81.0449563,119.608545 80.4452291,119.955423 C75.291676,122.937125 71.2263459,126.81978 66.0722802,129.801997 C64.5447699,130.685426 61.2513963,132.155403 59.5316658,132.541967 C55.920488,133.353753 55.013721,132.122416 51.627569,130.623576 C47.5704402,128.828885 45.2309916,124.414832 48.6586632,122.178943 C52.4108025,119.730184 54.6287679,116.569632 55.6278006,112.054042" id="Fill-73" fill="#000000" opacity="0.0911225818"></path>
                <path d="M30.1113027,100.448306 C31.0247522,101.546271 31.4843105,102.456236 31.7079073,103.615314 C32.1927104,106.12665 32.614144,108.692366 34.1355294,110.959767 C34.7156445,109.460942 34.8063197,107.805707 34.4183741,105.831442 C34.1690173,104.561014 33.9212062,103.287996 33.5981758,102.035694 C33.2282623,100.601089 33.6156926,99.3104623 34.2097181,98.0441772 C34.3915837,97.6557462 34.7104925,97.4211339 35.5384188,97.5221259 C36.8027194,101.643638 36.415289,106.462254 39.2849526,110.22123 C39.8980405,109.58006 39.8727957,108.717744 39.7795445,107.942953 C39.4833046,105.487033 39.2076726,103.050794 38.2684632,100.685508 C37.6672248,99.1732167 37.5883993,97.3450014 39.0829942,95.9999943 C41.3292659,97.5174648 42.244261,99.9174505 43.5502928,107.635316 C41.14637,110.637629 39.293711,113.830531 40.3591445,118.346171 C41.6249907,116.93798 41.5884115,115.474889 41.8248883,114.246412 C42.6213873,110.105219 45.3148526,108.002513 48.8171817,106.691687 C50.1747335,107.204934 50.4580934,108.175494 49.9995655,109.121194 C48.9542248,111.277245 48.9975016,113.542575 49.1515464,115.795992 C49.5616456,121.788706 45.0562222,124.612858 40.5729524,124.794126 C38.9299799,124.860418 37.5373945,124.36478 36.3601626,123.311356 C35.0247644,122.116024 33.9160542,120.705242 33.3282111,118.977501 C31.5791073,113.841925 30.0288707,108.654559 29.4616356,103.223775 C29.3436548,102.0937 29.3359268,102.094218 30.1113027,100.448306" id="Fill-75" fill="#F8E71C"></path>
                <path d="M119.561235,124.056824 C119.250474,123.149469 118.770018,122.127247 119.133353,120.948341 C120.035444,121.321157 119.671588,122.323227 120.148921,122.861292 C120.714224,123.498607 121.409141,123.891576 122.383066,123.066845 C122.009841,120.595676 120.368067,117.947168 122.59076,115.330902 C124.51935,122.432553 125.549493,123.919285 128.288039,123.421021 C127.931471,121.818414 126.149672,120.839518 126.265232,119.040427 C126.368298,117.432781 125.816529,115.738482 127.201678,114.064838 C128.716961,115.594393 128.597758,117.812147 130.288983,119.602674 C130.461802,119.733664 131.079679,120.093382 131.963551,120.145777 C132.880737,119.415762 133.666748,118.328549 135.075842,118.18446 C136.346473,118.054478 137.490614,118.35777 138.498373,118.990046 C139.265125,119.646002 138.926775,120.987134 140.172421,121.231983 C141.933398,119.529623 141.541954,118.275649 138.732095,116.473535 C137.534339,110.068648 133.815622,105.438166 128.258889,101.755343 C128.206835,100.493309 129.489959,99.6756312 130.112001,98.3999941 C133.558477,100.293298 136.35324,102.905532 138.897105,105.743472 C141.202564,108.315906 143.142085,111.209265 143.99056,114.538919 C145.079003,118.809684 144.978019,122.989763 141.514886,126.445873 C140.879831,127.079157 140.188557,127.552735 139.285946,127.816225 C134.009262,129.356361 128.844493,129.089344 123.780708,127.006609 C122.194632,126.354684 120.763155,125.464962 119.561235,124.056824" id="Fill-77" fill="#F8E71C"></path>
                <path d="M41.4032025,126.604014 C37.4473577,129.877374 35.0652586,129.076111 32.4268765,126.900686 C29.8872547,124.806533 28.3154841,122.068678 27.9806866,118.707563 C27.7011949,115.897908 27.6478643,113.100719 28.6083085,110.386298 C28.6779345,110.187852 28.8369386,110.021317 29.1105047,109.599993 C29.5435688,110.500479 29.8586142,111.234928 29.9050316,112.054141 C30.0516906,114.65438 30.9864571,117.047698 31.8012298,119.46794 C32.462924,121.432953 33.7087855,123.03498 35.1674755,124.451026 C36.8602275,126.094437 38.9223431,126.829385 41.4032025,126.604014" id="Fill-79" fill="#F8E71C"></path>
                <path d="M117.085195,122.399993 C118.159795,125.336418 120.358073,127.304401 123.003198,129.029046 C120.79693,129.485168 119.032943,130.658756 116.685715,131.199992 C117.221018,128.093885 115.966082,125.275856 117.085195,122.399993" id="Fill-81" fill="#2F9AEF"></path>
                <path d="M97.4031992,98.4525789 C96.8326318,99.4300699 96.2305012,100.070805 95.318079,100.799994 C95.0403219,99.9792069 94.937377,99.3411662 95.0451778,98.6541836 C95.7449119,98.2213397 96.452901,98.4781724 97.4031992,98.4525789" id="Fill-83" fill="#50AEEF"></path>
                <path d="M124.603198,90.3965673 C123.859773,90.4256314 123.447203,90.2633566 123.014303,90.1551735 C122.952118,89.8656086 123.155015,89.6974133 123.524535,89.5999947 C124.015633,89.7313215 124.173486,90.0529108 124.603198,90.3965673" id="Fill-85" fill="#50AEEF"></path>
                <path d="M49.5761629,89.5999947 C49.9962746,89.715585 50.1580623,89.8379594 50.203202,90.1341107 C49.790688,90.2948413 49.2490121,90.3725974 48.6032021,90.3999946 C48.7296825,90.0323495 49.0827551,89.8095185 49.5761629,89.5999947" id="Fill-87" fill="#50AEEF"></path>
                <path d="M7.80320452,72.7999957 C8.36579925,73.0105445 8.70200045,73.3558241 8.57728065,73.4741617 C8.19634301,73.8363467 8.07659393,73.3563363 7.80320452,72.7999957" id="Fill-89" fill="#F9F9F9"></path>
                <path d="M129.334129,50.9728854 C127.562545,51.4888433 126.16842,51.0535499 124.806634,50.3885594 C116.943648,46.551092 108.652672,45.2884954 99.9493714,46.4340301 C98.0903697,46.6789748 96.2146931,46.8034146 94.2253238,46.9952388 C94.144981,45.0735539 93.8119878,43.2886053 93.4031994,41.5508749 C99.9923219,38.9691181 121.804642,39.474747 129.286126,44.097218 C129.541303,46.289916 129.293705,48.5745912 129.334129,50.9728854" id="Fill-91" fill="#FFFFFF"></path>
                <path d="M48.032392,50.992946 C46.4606435,50.9450578 44.9041103,51.52879 43.242591,50.922878 C42.891623,48.7699245 43.2045526,46.5685787 43.0032024,44.3899168 C44.0464702,43.4704629 45.2302266,42.958311 46.4155045,42.6195649 C50.0687168,41.5756017 53.770111,40.7972921 57.5785201,40.41217 C61.2241247,40.0426746 64.8600929,39.9438737 68.5041759,40.0280561 C71.9864687,40.1082059 75.4479672,40.5074424 78.966777,41.2071145 C79.2132661,43.2108584 78.1116727,45.0316189 78.5569761,47.1971746 C76.205693,46.9476517 74.1054637,46.7555948 72.0133492,46.4975025 C64.4507992,45.5639342 57.1646619,46.6159628 50.1229849,49.4585067 C49.6852892,49.635441 49.2450576,49.8375797 48.8636588,50.1077701 C48.5542795,50.3270477 48.3306134,50.6668021 48.032392,50.992946" id="Fill-93" fill="#FFFFFF"></path>
                <path d="M90.642919,46.036259 C90.6182709,44.1319418 88.9919977,42.2417493 87.3984211,42.2654587 C85.796796,42.290177 84.2017102,44.2111412 84.2147888,46.0988114 C84.2273644,47.8719704 85.8636981,49.458481 87.5780002,49.3601123 C89.2319397,49.2647703 90.664549,47.7115537 90.642919,46.036259 M82.2032001,47.3382571 C82.660951,42.6347197 83.4275579,38.0234975 87.462305,34.3999979 C90.6001621,38.3075056 92.5378065,42.5191995 92.6031995,47.5102762 C91.5337727,48.8718 90.8426192,50.4093785 89.589086,51.4419977 C85.7852265,52.5205222 85.6750644,52.4609966 82.2032001,47.3382571" id="Fill-95" fill="#D851B5"></path>
                <path d="M90.2029589,45.4245517 C90.2244931,47.1236287 88.7982245,48.6988946 87.1516054,48.7955901 C85.4448907,48.8953552 83.8157994,47.2863226 83.8032795,45.4879921 C83.7902588,43.5735246 85.3782847,41.6252906 86.972821,41.6002214 C88.5593445,41.5761754 90.1784198,43.4932009 90.2029589,45.4245517" id="Fill-97" fill="#FFFFFF"></path>
                <path d="M111.917302,64.0014402 C115.970226,63.9123381 118.722679,67.9652538 116.750403,71.0272161 C114.654499,74.2811664 111.491703,76.0641934 107.342507,75.9982283 C104.268092,75.9494929 102.419972,74.2663981 102.217957,71.435806 C102.147988,70.4625745 102.327382,69.5114956 102.744037,68.2281297 C105.037748,71.0449381 107.645529,72.3356881 110.941949,70.5610299 C113.001554,69.4524223 113.221982,67.4532858 111.917302,64.0014402" id="Fill-99" fill="#F9F9F9"></path>
                <path d="M70.1371846,68.3957925 C72.0392836,71.1498084 70.6605526,75.0099745 67.4415752,75.7814018 C62.8449241,76.8830082 57.6181169,73.6296849 56.1204386,70.3077005 C55.1487716,68.1529544 56.5121716,64.9349714 58.8081182,63.833365 C59.5255024,63.4890499 60.2761918,63.1896675 61.2494448,63.2002695 C60.5273027,65.9058188 59.3018815,68.7194083 62.6165454,70.5687136 C65.0668591,71.9353719 67.6847563,71.1074001 70.1371846,68.3957925" id="Fill-101" fill="#F9F9F9"></path>
                <path d="M92.3327302,39.0419916 C90.7073108,36.152767 88.5187979,33.8697727 87.1310841,31.0515116 C86.7793407,30.7823575 86.3971872,30.8127704 85.8533534,30.9830826 C84.7874797,33.8956237 81.8823023,35.7239453 80.8630574,39.0242507 C69.7461418,37.0874565 58.7686057,37.1736264 47.8042473,39.9999976 C47.7733304,38.3865938 48.4352567,37.2739889 48.8696142,36.1213404 C50.5614289,31.631384 52.9400049,27.5322333 56.1330644,23.9323609 C59.5278443,20.1064193 63.8318859,17.8426865 68.8166066,16.9825086 C77.0364543,15.564761 85.3064786,14.6574431 93.6616512,15.5627335 C97.5171439,15.9804038 101.378212,16.3828678 105.176939,17.2131397 C109.898106,18.2441366 113.899567,20.5215552 117.059682,24.1863085 C120.948119,28.6965401 123.618125,33.8647039 125.403198,39.9954357 C114.284761,37.3028811 103.324458,36.9673256 92.3327302,39.0419916" id="Fill-103" fill="#1E63F3"></path>
                <path d="M60.2170586,35.0369562 C60.0792004,33.3777086 56.8562587,27.4636288 55.3783379,24.8249535 C52.5659296,28.2058037 50.4245664,31.9962696 48.8696072,36.1213225 C48.4352526,37.27362 47.7733306,38.3863755 47.8042473,39.9999976 C58.7690409,37.1737509 69.7465053,37.0870624 80.8628415,39.0241187 C81.8825866,35.7233666 84.787745,33.8947977 85.8536117,30.9818624 C86.397442,30.8115272 86.7795929,30.7811102 87.131334,31.0508076 C88.518532,33.8689432 90.7075374,36.1522464 92.3329462,39.0418619 C103.324602,36.9674222 114.284327,37.3030231 125.403198,39.9954351 C123.806171,34.5117559 121.494513,29.8011757 118.243695,25.6396223 C116.437348,27.1391807 113.957421,30.0658036 112.677671,35.3963838 C111.476987,28.7046426 109.783156,23.1601294 107.443115,17.8234658 C107.116715,17.7180202 106.785248,17.6196719 106.450232,17.527407 C104.390469,19.0720839 98.1255239,24.6094998 97.2274184,35.3963838 C97.2274184,35.3963838 96.7038614,23.8196715 89.0593212,15.2364995 C88.46126,15.2162215 87.8637056,15.2050686 87.2671649,15.1999991 C81.2292807,18.3207839 75.3084746,34.6775286 75.3084746,34.6775286 C75.3084746,25.1534572 68.8169762,16.9799009 68.8169762,16.9799009 C68.8169762,16.9799009 60.2170586,24.0751744 60.2170586,35.0369562" id="Fill-105" fill="#FFFFFF"></path>
                <g id="Group-109" transform="translate(0.603205, 0.000000)" fill="#181818">
                    <path d="M6.93259173,72.4869456 C7.23941314,73.0395497 7.37380599,73.516336 7.80132739,73.1565837 C7.94129881,73.0390408 7.56398455,72.6960803 6.93259173,72.4869456 L6.93259173,72.4869456 Z M49.3454535,89.4507705 C48.7855678,89.8593718 48.384925,90.2939241 48.2414036,91.0108846 C48.9742249,90.9574561 49.588882,90.8058207 50.0569749,90.4923731 C50.0057534,89.9148357 49.8221677,89.6761881 49.3454535,89.4507705 L49.3454535,89.4507705 Z M124.445699,90.980354 C123.898999,90.330052 123.698678,89.7224929 123.073371,89.4741773 C122.603249,89.6583786 122.345621,89.9764058 122.424228,90.5234126 C122.974985,90.7284765 123.499878,91.0353091 124.445699,90.980354 L124.445699,90.980354 Z M115.906428,120.006314 C116.137178,118.543898 117.034314,117.626453 116.464285,116.047003 C116.090521,117.265174 115.788264,118.217729 115.516942,119.178935 C115.486514,119.285792 115.633585,119.442516 115.906428,120.006314 L115.906428,120.006314 Z M16.0160269,86.5646101 C16.7554411,84.4737721 16.2701055,83.5588715 14.4083841,83.2128579 C14.9221198,84.2849912 15.3856484,85.2507761 16.0160269,86.5646101 L16.0160269,86.5646101 Z M163.975454,78.7864282 C164.993797,78.74165 165.904118,78.7940609 166.698304,77.9519249 C166.710475,77.4893861 166.999546,76.9495032 166.414304,76.5271631 C165.015604,76.8172039 165.015604,76.8172039 163.975454,78.7864282 L163.975454,78.7864282 Z M97.3769506,98.0909332 C96.3844721,98.1199373 95.6450579,97.8293876 94.9142651,98.3199128 C94.8016793,99.0979345 94.9091936,99.82151 95.1992793,100.751167 C96.1522007,99.9248052 96.7815649,99.1986855 97.3769506,98.0909332 L97.3769506,98.0909332 Z M156.674626,74.625106 C158.646904,72.8762109 158.949668,70.6993784 158.478533,67.910916 C156.198926,69.9549403 156.61174,72.3348014 156.674626,74.625106 L156.674626,74.625106 Z M13.4199628,72.0162654 C14.1147484,76.1628311 15.6077769,79.7079438 18.0197482,83.0225504 C19.4194624,81.9565233 18.6019482,80.8854077 18.1485625,80.0473424 C17.0171268,77.9575222 15.9876269,75.8300475 15.0696984,73.6394762 C14.8181555,73.038532 14.6264556,72.2788286 13.4199628,72.0162654 L13.4199628,72.0162654 Z M117.257457,122.866524 C116.263457,125.548129 117.378664,128.176306 116.902457,131.07366 C118.988842,130.568888 120.555914,129.474365 122.517035,129.048972 C120.166428,127.440518 118.212407,125.605119 117.257457,122.866524 L117.257457,122.866524 Z M158.41159,84.4661395 C161.02439,85.1072823 163.466282,84.7683925 165.833625,83.8412796 C166.809875,83.4591382 167.818582,82.9217994 167.967682,81.6435845 C164.056597,80.1877832 160.290554,81.2695845 158.41159,84.4661395 L158.41159,84.4661395 Z M164.297489,71.5130191 C161.824661,71.8895633 160.311854,73.2476667 159.30264,75.2667577 C158.414126,77.0446569 157.536261,78.8240826 156.434747,80.4905451 C156.083804,81.0207601 155.537611,81.6644471 156.05439,82.4373804 C160.813925,79.9516799 164.526211,75.1181754 164.297489,71.5130191 L164.297489,71.5130191 Z M153.489262,80.6477778 C153.919319,80.7169805 154.274826,80.5220934 154.306776,80.2366322 C154.489854,78.6042623 155.149647,77.0319358 154.761683,75.324257 C153.980176,71.8936341 152.261469,69.3875798 149.989976,68.6299118 C148.573526,73.3606299 150.955576,77.0003875 153.489262,80.6477778 L153.489262,80.6477778 Z M41.2844183,127.093487 C38.7365327,127.323993 36.6187042,126.573449 34.8802186,124.8963 C33.3826259,123.451185 32.1025974,121.816271 31.4235331,119.811427 C30.5867475,117.340992 29.6267261,114.899052 29.4755975,112.245433 C29.4279261,111.408894 29.1048761,110.659877 28.6596047,109.740905 C28.3791547,110.170878 28.2158547,110.340832 28.1438405,110.542843 C27.1574477,113.312987 27.2122191,116.168108 27.4997691,119.035441 C27.8431048,122.465555 29.4573404,125.259106 32.0660831,127.396248 C34.7752401,129.616333 37.2222042,130.434553 41.2844183,127.093487 L41.2844183,127.093487 Z M9.44244158,87.9283107 C9.71629871,84.5867354 11.4694915,82.3091518 13.921527,80.4294839 C13.2607199,79.0800309 12.6734485,77.8811956 12.0354629,76.5785563 C10.4085487,77.1942569 8.93124161,76.8787739 7.45038456,76.1806406 C5.93504179,75.4652067 4.96944185,74.0226353 3.54487765,73.2308748 C0.173899275,76.8660528 4.88069185,86.2710074 9.44244158,87.9283107 L9.44244158,87.9283107 Z M80.9587087,47.5164682 C84.4590085,52.683774 84.5700728,52.7433087 88.4050869,51.6559101 C89.6688868,50.6143075 90.3651939,49.0633524 91.4438867,47.6899838 C91.377451,42.6554862 89.424444,38.4066429 86.2603799,34.4651411 C82.1930944,38.1206728 81.4202087,42.7720113 80.9587087,47.5164682 L80.9587087,47.5164682 Z M77.8691946,14.139896 C83.4923943,13.577624 88.9588868,13.5760974 94.5846222,14.1434579 C93.8076794,8.68051404 89.9503511,5.75313734 86.2279227,2.45481373 C82.5070158,5.75211966 78.648166,8.67898751 77.8691946,14.139896 L77.8691946,14.139896 Z M125.125778,113.834551 C127.52507,110.92702 129.372592,111.252679 130.687106,114.611555 C131.024356,115.473536 131.184106,116.43983 132.06197,117.288581 C133.216734,116.211359 134.733598,115.823112 136.447234,115.39263 C135.224513,111.827673 133.63817,108.682511 131.159763,106.032963 C130.784477,105.631994 130.310299,105.318038 129.858942,104.996448 C127.536735,103.341689 124.906692,103.613412 123.132199,105.865044 C121.044799,108.513575 119.679571,111.549844 118.887414,114.836464 C118.641956,115.855678 118.754542,116.788388 119.654214,117.764859 C120.672049,115.76663 120.576199,113.140489 123.334549,112.900823 C124.06027,112.982238 124.507063,113.479379 125.125778,113.834551 L125.125778,113.834551 Z M27.2360548,87.4291352 C26.8947477,86.8353148 27.115862,86.3524223 27.4343477,85.8608795 C27.7604405,85.3581421 28.2929405,84.8879707 27.8867191,84.2005231 C26.6939191,83.4586293 25.4935121,85.4985829 24.4761835,84.2697259 C23.7114122,83.0083028 25.1816192,82.3427355 25.0223764,81.2797614 C24.7277264,81.2395628 24.4898764,81.1494975 24.2773836,81.1912226 C23.9751264,81.2512662 23.6728693,81.3733886 23.4035765,81.5275682 C20.7649123,83.033745 19.5771838,85.8425611 17.6657625,88.0031107 C17.5257911,88.1618698 17.5633197,88.4661583 17.4745697,88.684961 C16.6829197,90.63892 17.5648411,92.4244519 18.0222839,94.2512001 C18.4102482,95.8026639 19.2597124,97.015238 20.7481766,97.6523101 C21.6666123,98.0451373 22.3411122,98.6435372 22.8974479,99.5991454 C22.5779479,104.783752 22.6890122,110.014663 24.9980335,114.947901 C25.3373121,112.51512 26.2080763,110.298089 27.154912,108.112606 C27.7005976,106.852201 27.922219,105.667104 27.6909619,104.224533 C27.3998619,102.414576 27.1391905,100.383273 28.8188476,99.0597712 C29.9548475,98.6374311 30.9752189,98.9880243 32.0539117,98.9147508 C32.2806045,97.7642557 33.0585616,96.9546856 33.6960401,95.8947646 C32.4464402,95.239883 31.3596331,94.6704871 30.3433189,94.137728 C29.157619,95.0811239 28.4268262,96.6860163 26.6558834,95.6978422 C26.1938763,94.7778531 26.5747406,94.1657144 27.186862,93.5540845 C27.9709048,92.7699566 28.7427761,91.9619132 29.4223475,91.0882289 C29.9989689,90.346335 30.5831975,89.5276058 30.2464546,88.9037637 C29.3092547,87.5400631 27.9425048,88.3119787 27.2360548,87.4291352 L27.2360548,87.4291352 Z M48.2905964,51.5536326 C48.5887964,51.2244108 48.8124464,50.8814503 49.1212964,50.6601034 C49.5031749,50.3873633 49.9433749,50.183317 50.380532,50.0047129 C57.4222101,47.1358532 64.707824,46.0738968 72.2698307,47.0157662 C74.3612877,47.2762941 76.4618733,47.4701634 78.8129874,47.722041 C78.3672089,45.5360493 79.4687231,43.6981065 79.2227588,41.6754536 C75.7042019,40.9696876 72.2429521,40.5666836 68.7609095,40.4852686 C65.1170883,40.4002917 61.4813813,40.5005339 57.8360387,40.8730074 C54.0279032,41.2622726 50.3262677,42.047927 46.6733179,43.1012331 C45.4881251,43.4431759 44.3044538,43.9601609 43.2617681,44.8888003 C43.4631038,47.0875131 43.1501967,49.3096327 43.5011395,51.4834122 C45.1625395,52.0950421 46.7189608,51.5058013 48.2905964,51.5536326 L48.2905964,51.5536326 Z M129.080984,51.8085632 C129.040413,49.3274422 129.288913,46.964373 129.032806,44.6959486 C121.524049,39.9133285 99.6322148,39.3902374 93.0190723,42.0611569 C93.4293509,43.8589011 93.763558,45.7054941 93.8441937,47.6935457 C95.840815,47.4956056 97.7233292,47.3663594 99.5891076,47.1134641 C108.324136,45.9283676 116.645335,47.23406 124.536985,51.2040571 C125.903735,51.8920135 127.302942,52.34234 129.080984,51.8085632 L129.080984,51.8085632 Z M147.238219,116.857082 C148.36864,115.558004 148.85144,114.571866 149.191733,113.516524 C150.679183,108.900296 150.846033,104.145153 150.50219,99.5823535 C150.919062,98.8496189 151.346583,98.4506856 151.848147,98.2390067 C154.594833,97.0783346 155.540147,94.6531865 156.165961,92.0453635 C156.631011,90.1071786 156.493576,88.1491488 154.956933,86.7320196 C154.239833,86.070523 153.654083,85.391217 153.159619,84.5821558 C152.530254,83.5512388 151.739619,82.6653423 150.739026,81.9799301 C150.034097,81.4975464 149.369233,80.8569125 148.382333,81.3052036 C148.242869,82.3686865 149.713076,83.0342538 149.19934,83.8733368 C147.909169,85.6191788 146.529233,83.1528144 145.415548,84.3445259 C145.185305,85.5520115 146.941541,86.1982428 146.124533,87.4968114 C145.355198,88.304346 143.834784,87.4978291 143.181076,88.9113963 C143.093848,91.7507431 146.475476,92.677856 147.098755,95.0251511 C146.782298,95.7517796 146.421212,96.0097633 145.888205,96.0260462 C144.519426,96.0672626 143.985912,94.7534286 142.992419,94.1087239 C140.574869,95.6016708 137.919977,96.4962176 135.647977,98.1255346 C135.905098,99.1025141 136.734784,99.5360488 137.34437,100.121728 C138.433712,101.168419 139.565148,102.169823 140.515027,103.353902 C141.200684,104.208759 141.895977,104.957776 142.952355,105.487991 C144.050319,106.039578 144.862255,107.109676 145.394755,108.324794 C146.522641,110.89598 147.402533,113.517542 147.238219,116.857082 L147.238219,116.857082 Z M120.192799,123.908635 C121.363285,125.330853 122.757928,126.228961 124.303699,126.887914 C129.237184,128.991473 134.268548,129.260651 139.409455,127.705625 C140.289348,127.4395 140.962834,126.961187 141.581041,126.321571 C144.955569,122.830396 145.053955,118.60903 143.993012,114.295564 C143.166369,110.932617 141.277262,108.010329 139.031127,105.412174 C136.552213,102.545349 133.829363,99.9075045 130.47157,97.9952706 C129.866042,99.2836624 128.615934,100.109007 128.666649,101.384168 C134.079891,105.103814 137.703427,109.780595 138.870362,116.249523 C141.607412,118.069656 141.988784,119.335658 140.273119,121.055041 C139.060034,120.808252 139.38917,119.45371 138.642148,118.791196 C137.660827,118.152597 136.546127,117.846274 135.307684,117.977046 C133.934848,118.123084 133.169063,119.221169 132.275984,119.958483 C131.414856,119.905054 130.812877,119.542249 130.644506,119.40995 C128.996799,117.60152 129.112427,115.361591 127.636135,113.816742 C126.286627,115.50712 126.824706,117.217852 126.723785,118.84208 C126.611706,120.65916 128.347656,121.647335 128.694542,123.266475 C126.026463,123.769212 125.023335,122.268124 123.144371,115.094957 C120.978364,117.73789 122.578399,120.41288 122.941513,122.908758 C121.992649,123.741734 121.315613,123.344328 120.764856,122.701149 C120.300314,122.157196 120.654806,121.145615 119.775421,120.769071 C119.421942,121.959764 119.890035,122.992208 120.192799,123.908635 L120.192799,123.908635 Z M30.3488975,100.835126 C29.5856475,102.452231 29.5932547,102.451722 29.7098975,103.562019 C30.2677546,108.897752 31.7937474,113.994328 33.5154973,119.04002 C34.0946544,120.737522 35.1855186,122.123612 36.5000328,123.297514 C37.6588542,124.333011 39.0296612,124.819974 40.6469397,124.754842 C45.0606037,124.576747 49.4955678,121.802023 49.0913749,115.914195 C48.9397392,113.700217 48.8971392,111.474535 49.926132,109.35622 C50.3774891,108.427071 50.0990677,107.473499 48.7622392,106.969235 C45.3146823,108.257118 42.6633396,110.322513 41.8792968,114.391735 C41.6470254,115.598712 41.6825254,117.036195 40.4364754,118.41974 C39.3877041,113.983134 41.2113897,110.846113 43.5777181,107.896348 C42.2921111,100.313562 41.3914254,97.9555808 39.1802827,96.4646694 C37.7095685,97.7861359 37.7866542,99.5823535 38.3784899,101.068177 C39.3035184,103.392065 39.5743326,105.785665 39.8659398,108.198601 C39.9577326,108.959831 39.9825826,109.807055 39.3795898,110.437003 C36.5542971,106.743817 36.9361757,102.009537 35.6916472,97.9601604 C34.8766686,97.8609359 34.5622401,98.091442 34.3832187,98.4730747 C33.7989901,99.717197 33.4171116,100.985235 33.7812401,102.394732 C34.0992187,103.625115 34.3436615,104.875853 34.5891187,106.123537 C34.9709972,108.063757 34.8812329,109.690021 34.3101901,111.162614 C32.8131045,108.934897 32.3977545,106.414086 31.9205331,103.946704 C31.7004331,102.807913 31.2480617,101.913874 30.3488975,100.835126 L30.3488975,100.835126 Z M120.566056,91.8347023 C114.540692,95.9110476 107.789607,97.4258747 100.945715,97.938789 C99.6900291,98.7605713 98.8892505,99.7584134 98.0468863,100.703336 C97.1543149,101.705249 96.2485578,102.705126 95.6440436,103.826108 C96.1050364,109.351131 98.0712292,112.028666 102.04165,112.608747 C103.237493,112.189969 103.97285,111.293387 104.453622,110.150015 C105.006914,108.834655 105.621064,107.545754 105.9218,106.130661 C106.18805,104.87687 106.692657,103.700933 107.501043,102.695967 C108.570607,101.36585 110.067186,101.362797 111.107336,102.736674 C111.620057,103.415472 111.951221,104.233692 112.39345,105.041227 C113.69985,105.06616 115.110214,104.747115 116.243171,105.722059 C117.269121,106.606429 117.713885,107.822565 117.923335,109.64626 C120.241992,106.109798 121.802978,102.415085 125.814985,101.549543 C127.101099,99.805227 128.25637,98.2369713 129.467934,96.5944244 C126.941349,94.1275511 123.886828,93.0544002 120.566056,91.8347023 L120.566056,91.8347023 Z M81.8670015,119.848064 C78.0340161,122.779511 74.593052,125.578151 70.9157593,128.078099 C67.2952667,130.538866 63.3547669,132.315747 59.0242743,134.255459 C68.3759881,138.776533 76.826509,144.288835 86.3785441,147.533221 C91.2856581,145.482073 96.2155936,143.496057 100.841243,140.85058 C105.450157,138.21477 110.221864,135.890373 114.771442,133.635179 C115.048342,129.383282 113.755128,125.311008 115.365814,121.334396 C115.527085,120.935971 115.397764,120.346731 114.674071,120.41288 C111.579485,126.35719 104.698064,130.267652 98.4804934,129.677394 C91.5077867,129.01488 85.5503799,126.598382 81.8670015,119.848064 L81.8670015,119.848064 Z M125.713556,65.172829 C127.214192,64.1373325 128.438942,63.1038713 129.967977,62.6413326 C132.265841,61.9467612 134.628113,61.6821626 137.011177,61.5997299 C140.984134,61.462851 144.950498,61.6913218 148.920412,61.8261653 C151.686369,61.9192837 154.527383,61.9208102 156.645211,59.5755505 C156.847561,59.3521682 157.212197,59.3099342 157.557561,59.5434933 C158.000804,60.009594 157.876047,60.5448973 157.557561,61.0364402 C156.983983,61.9233544 156.217183,62.5935013 155.233326,63.0183856 C153.827526,63.6264536 152.374054,63.9343039 150.838426,63.9271801 C145.913562,63.9027556 140.988191,63.8757869 136.064341,63.9037733 C133.910506,63.9154767 131.79572,64.23961 129.800113,65.1295773 C127.892749,65.979346 126.763849,67.3578031 126.710599,69.530056 C126.678142,70.8774736 126.551863,72.2101347 126.611199,73.5738353 C126.81152,78.1905725 127.128485,82.8566674 124.556256,86.9604903 C125.888013,89.4212575 130.683556,94.3443185 133.79437,96.4636517 C136.221048,95.1401497 138.697934,93.7886613 141.119541,92.4677036 C140.139741,88.4010263 140.390777,87.6901719 143.309891,85.8883571 C143.100948,83.1207572 143.284026,82.8531055 146.208212,81.6440934 C146.422733,80.9841233 146.165105,80.1786241 146.812726,79.6382323 C147.572933,78.7955874 148.758126,79.1782377 149.676562,78.7564065 C147.212355,72.4029864 147.053112,69.6964478 148.905705,66.8067255 C151.51749,66.0536372 152.832512,68.236067 154.52434,69.3819825 C156.090904,67.7379092 156.896247,65.2237134 159.56889,65.8277106 C161.112633,66.912565 160.614618,68.6136288 161.299261,69.812973 C162.062004,69.6877975 162.794318,69.6776206 163.329861,69.1158574 C163.901918,67.5002792 164.02414,65.8327991 163.898368,64.1592128 C163.657475,60.9494279 163.16149,57.8322526 160.718583,55.3959099 C159.623661,54.3039317 158.419704,53.6785631 156.883569,53.9981168 C155.855083,54.2118311 154.828119,54.1701059 153.799633,54.1711236 C145.616376,54.1782474 137.43312,54.1701059 129.249863,54.1685794 C128.066699,54.1680705 126.874913,54.1065004 125.70392,54.6046582 C125.598435,58.0271397 125.382899,61.4282497 125.713556,65.172829 L125.713556,65.172829 Z M80.6762302,117.606099 C78.9580303,114.560671 78.2257161,111.383961 77.6267804,108.177229 C77.0161804,104.905874 76.0581876,101.691001 76.1560662,98.215091 C71.8210093,97.8512679 67.6183167,97.7235482 63.4987955,96.813736 C59.2671958,95.8789905 55.4357317,94.0008491 51.7513391,91.8866043 C48.4336107,93.1256383 45.242668,94.2639212 42.7267325,96.7394448 C43.9595967,99.8810447 44.5869323,102.985499 45.164568,106.21004 C45.998818,105.921017 46.6697679,105.724603 47.3123179,105.458478 C48.771875,104.852446 50.1081963,104.904857 51.2284748,106.141346 C52.2858676,107.308633 52.6129747,108.65198 51.9293462,110.110326 C51.2234034,111.614467 51.1529105,113.174581 51.2852748,114.784562 C51.3435962,115.497452 51.3395391,116.218483 51.3258462,116.935444 C51.2624534,120.229188 50.0549463,122.959642 47.4162822,125.014861 C46.7514179,125.532864 45.8649323,125.88193 45.6585251,126.851277 C46.0109894,127.17134 46.3837394,127.11384 46.7585179,126.952028 C48.0020321,126.414689 49.1917892,125.787285 50.2593249,124.938534 C52.081489,123.489857 53.8798175,122.020317 55.2846031,120.130472 C55.8896245,119.316831 56.5504316,118.965729 57.2923816,119.962045 C55.8546317,124.024651 52.4704676,126.236085 49.3175606,128.680569 C50.5504248,129.753212 52.1656747,129.883476 53.1667747,130.882335 C55.9880102,133.698784 58.8751743,132.812888 61.8384099,131.286866 C62.1203813,131.141337 62.3790241,130.95052 62.6579527,130.800412 C66.8677453,128.526899 70.7514451,125.757264 74.5037948,122.81106 C76.5551876,121.200061 78.7835732,119.778352 80.6762302,117.606099 L80.6762302,117.606099 Z M47.9579107,87.0190073 C45.9470894,83.7807273 45.6524394,80.1750622 45.739668,76.4488012 C45.7934251,74.1498462 46.0069323,71.8534354 45.7771966,69.5336179 C45.5636894,67.3812099 44.5727323,65.9752753 42.6587753,65.1346658 C41.7854754,64.7509978 40.8898611,64.4726604 39.9394755,64.2981271 C36.4701114,63.6615638 32.9728545,63.8416944 29.480669,63.8447475 C26.6203834,63.8472917 23.7580693,63.9546577 20.9003195,63.8773135 C18.7992267,63.820323 16.7990554,63.2860373 15.3273269,61.6032918 C14.7542555,60.9479014 14.2085699,60.2278878 15.0118841,59.4325654 C15.5824198,59.359292 15.9445198,59.5536702 16.2021483,59.8508348 C17.3949482,61.2272565 18.9757124,61.6475612 20.6908695,61.6999721 C22.3568337,61.7498388 24.0293907,61.8241299 25.6907906,61.7320292 C28.5500619,61.5737789 31.4083188,61.5412129 34.2696187,61.5742878 C38.5980827,61.6226279 42.8332324,62.0230877 46.4364822,64.8161297 C46.4836465,64.8527665 46.5835537,64.8207093 46.8462536,64.8207093 C46.9760822,61.4145109 46.8954465,58.0159451 46.7427965,54.5720923 C45.6357037,54.1609467 44.5316538,54.1624732 43.4235467,54.1660351 C39.9267969,54.1757032 36.4290328,54.2352379 32.9338045,54.1680705 C26.980962,54.0540896 21.0220337,54.4942392 15.0742627,53.9238256 C13.9194985,53.8128977 12.8991271,54.2459236 12.0557486,55.0814446 C10.4268058,56.6944785 9.46932015,58.6255396 8.9216059,60.8649599 C8.25826308,63.5750604 8.76946305,66.2169759 9.08794874,68.8660152 C9.26646302,70.3528559 9.76853442,71.8035688 10.1701915,73.2583524 C10.3355201,73.8557346 10.6966058,74.2541591 11.4674629,73.7738108 C11.3538629,72.5653075 11.3112629,71.3043933 12.4066914,70.3350464 C13.2247128,70.0597621 14.0746842,70.0200723 15.2811769,70.4475008 C17.5105768,73.265985 18.1850768,77.3346977 20.7933123,80.3541751 C21.4120266,80.0122322 21.9506123,79.681484 22.5165837,79.4077262 C25.3352835,78.0435167 26.700512,78.7212963 27.3618262,81.7962376 C30.0486689,82.7096117 30.340276,83.1446729 30.0740261,85.9891081 C31.2044474,86.4806509 32.3551545,87.0983869 32.7010259,88.4620875 C33.0403045,89.8013636 32.6401688,91.1187595 32.2633616,92.5287648 C33.9633044,93.4004138 35.5734829,94.2257579 37.2424899,95.0811239 C38.4408684,94.2394967 39.7599469,94.2338994 41.0962683,94.5448028 C43.4052896,92.0341689 46.275718,90.1712929 47.9579107,87.0190073 L47.9579107,87.0190073 Z M92.0783224,39.6955435 C103.077236,37.612847 114.043692,37.9497014 125.168885,40.6521693 C123.382728,34.4982159 120.711099,29.3095387 116.820299,24.782358 C113.658264,21.1034194 109.654371,18.8166767 104.930336,17.781689 C101.1293,16.9487122 97.2658863,16.5446904 93.4080509,16.1248945 C85.0478014,15.2161 76.7727519,16.1269299 68.5479095,17.5506741 C63.5601598,18.4136726 59.2535029,20.6861677 55.8566602,24.5274274 C52.6616604,28.141234 50.2821463,32.2562514 48.5887964,36.7635872 C48.154175,37.9201885 47.4918465,39.0376088 47.5227822,40.6567489 C58.4938029,37.8199463 69.4780094,37.7329341 80.6016802,39.6772251 C81.6215444,36.3646539 84.5284871,34.5287465 85.5950085,31.6049317 C86.1391727,31.4339603 86.5215584,31.4039385 86.8735155,31.6746433 C88.2620726,34.5033043 90.4519153,36.7946267 92.0783224,39.6955435 L92.0783224,39.6955435 Z M109.21265,103.767591 C108.096429,105.585689 107.758164,107.381398 107.3134,109.117063 C107.053236,110.130679 106.741343,111.108677 106.245357,112.014927 C103.943436,116.216957 98.8466505,116.414897 96.1329293,112.485098 C93.9618508,109.341463 93.5424437,105.700688 92.9333652,102.093496 C92.3866652,98.855725 92.6919652,95.5568925 92.2963938,92.3328601 C91.7131795,87.5863678 92.3014652,82.9513123 93.0084223,78.3126949 C93.3918223,75.7944284 94.1652151,73.3468911 95.4386507,71.1064532 C95.9670936,70.1773049 96.5107507,69.2028696 98.1041934,69.1682683 C96.6350007,73.4746109 94.8975293,77.4664882 94.6109936,81.8786702 C94.3219222,86.3346128 94.1834722,90.7712194 94.5618008,95.1309905 C95.6399864,95.7772218 96.6228292,95.9425959 97.6822506,95.8306503 C98.8669362,95.7059837 100.056186,95.6210068 101.244929,95.5482422 C107.021793,95.1961225 112.544578,93.9112926 117.620571,91.0256411 C121.550928,88.7908004 123.795035,85.3459299 124.414256,80.9123764 C124.902128,77.4212011 124.588713,73.9030571 124.179449,70.4200233 C123.807206,67.2484017 123.544506,64.0945896 123.755985,60.8924375 C123.922835,58.3629764 124.16322,55.8233384 123.984706,53.2048298 C123.55262,52.9575318 123.161613,52.6924243 122.738656,52.498555 C113.390493,48.2232518 103.686315,48.1560845 93.8163008,50.0464381 C92.961258,50.2102857 92.4201366,50.726253 91.9966724,51.4452489 C91.3181153,52.5967618 90.2292796,53.2358692 89.062344,53.7884733 C87.919244,54.3293739 86.7249227,53.883627 85.5595085,54.0301739 C83.6678657,54.267295 81.9344515,53.5432107 80.9820373,52.0375427 C79.7704731,50.1232735 78.0182946,49.8393388 76.1332447,49.5716871 C75.4267948,49.4714449 74.7036091,49.4831483 73.9981734,49.3762912 C68.1173452,48.4832709 62.2765813,48.6644191 56.5073245,50.1278531 C53.6850747,50.8443047 50.8648534,51.6309768 48.5254035,53.2211127 C48.5254035,54.7873331 48.4670821,56.1403479 48.5365607,57.4867479 C48.7520964,61.7050605 48.9661107,65.9121787 48.342325,70.1259117 C47.8285893,73.5992775 47.589725,77.1153862 48.0096393,80.6121587 C48.5664821,85.2533204 50.8856463,88.7892739 54.985896,91.1126533 C59.5653957,93.7072464 64.544524,94.9625633 69.721438,95.4418939 C71.734795,95.6286395 73.7760449,95.9283483 75.9836376,95.6912272 C75.8685162,94.7254422 76.283359,93.89043 75.8598948,92.8590043 C72.5061592,92.2214233 70.9756022,89.5362562 69.5738594,86.6490781 C68.9886166,86.3335871 67.8952167,86.6877502 67.8257381,85.3489829 C69.0758452,84.5719789 70.0896237,83.4041831 71.0369665,82.1931355 C72.7724092,83.2230348 71.3579879,84.3954102 71.4396379,85.7621639 C72.1668807,87.7430916 73.4849449,89.4797745 75.9542233,90.2603405 C76.8645447,83.2927463 75.5434376,76.7719168 72.9448378,70.3029893 C74.071202,70.4464831 74.5306734,71.074396 74.8050377,71.6646545 C75.6362448,73.4517129 76.6520519,75.1522679 77.1698447,77.0935059 C78.6486732,82.6383736 78.5715875,88.2809392 78.2880946,93.9326641 C78.2282518,95.1274286 78.0543018,96.3282993 78.2191232,97.5072897 C78.626866,100.415839 79.0797446,103.320318 79.6041303,106.209531 C80.3597731,110.373907 81.4131087,114.44669 83.6323657,118.121558 C84.9524585,120.306023 86.1625013,122.640088 88.4213154,123.971223 C91.370351,125.708415 94.5024651,126.873666 98.0002292,127.303639 C106.143422,128.303008 112.838214,121.683462 114.0584,115.903 C114.468171,113.959218 114.79325,111.9961 115.127964,110.037052 C115.2654,109.231553 115.207585,108.411806 114.626907,107.783384 C114.213585,107.335602 113.648121,107.317793 113.0857,107.614448 C112.563343,108.089199 112.642964,109.001047 111.891885,109.319074 C110.290836,109.015803 110.237586,109.0041 110.168107,107.718252 C110.099136,106.454794 110.2812,105.153172 109.21265,103.767591 L109.21265,103.767591 Z M22.8056551,149.0913 C23.1707979,148.568209 22.7336408,148.209983 22.5262194,147.822753 C19.687741,142.521622 21.133098,135.967717 26.2395192,132.067941 C27.5514976,131.066028 29.0288047,130.282409 30.5695046,129.311027 C27.6813262,126.638072 25.7257835,123.53667 25.2480549,119.650124 C19.9372552,114.275719 20.2344409,107.391575 20.0361481,100.504887 C19.2997767,99.6240787 17.9664982,99.3106311 17.188034,98.2329005 C15.8212841,96.3405115 15.1330912,94.2145634 15.2771198,91.9537717 C15.4206412,89.6884004 14.354627,88.0646807 13.0695271,86.0562754 C12.7576342,87.0912631 12.56847,87.8163651 12.3214914,88.5211134 C11.6591629,90.4129935 10.1762773,91.0648221 8.3662845,90.1697663 C6.93259173,89.4614562 5.66321323,88.4656494 4.62965615,87.2454427 C1.9042706,84.0249721 -0.19479356,80.5536417 0.0141492849,76.0641155 C0.109492136,74.0185646 0.552227824,72.2009756 1.76176347,70.8311688 C2.60108484,70.1676369 3.37599908,70.9512559 3.94450619,70.4266383 C5.01001327,70.7273648 5.3264704,72.3851769 6.8742703,71.7033266 C7.20644886,70.9766981 7.11871315,70.1335444 6.95135601,69.279705 C6.32858462,66.1101188 6.36408462,62.9349353 7.07915601,59.7979151 C7.78104168,56.7143234 9.51800586,54.3135998 12.1952128,52.6049033 C13.0974199,52.0288924 14.0767127,51.6421713 15.1183841,51.760223 C20.1086695,52.3240216 25.1116335,51.8976108 30.1069903,52.0090475 C32.9657545,52.072653 35.8270543,52.0314366 38.6868327,52.0187155 C39.4688469,52.0156625 40.2686112,52.1357495 41.2757968,51.7658203 C41.2757968,50.0744245 41.4259111,48.3265471 41.2387754,46.6153063 C40.9831754,44.2730997 41.8321325,42.7832059 44.0199467,41.9985692 C44.3871181,41.8667787 44.7116895,41.6174454 45.0753109,41.4113638 C46.1773322,36.113794 48.3965893,31.3169263 51.3146891,26.7912721 C55.5909174,20.1595147 61.6218599,16.357436 69.3512237,15.1748837 C71.298145,14.8767014 73.2536878,14.6288946 75.0479591,14.3800702 C75.6382733,13.697711 75.5556091,13.014843 75.6616019,12.4062662 C76.3873233,8.23832903 79.262316,5.57300674 82.2468515,3.0486341 C83.49493,1.99278383 84.5903585,0.661140369 86.1782227,0.0815676142 C91.8100438,4.0637769 95.9610079,6.96367605 97.3145721,14.373964 C99.2259934,14.6370361 101.190158,14.8436266 103.129979,15.1891313 C105.945129,15.6903422 108.678121,16.4215503 111.284328,17.7063802 C116.357785,20.2063283 119.708985,24.3289784 122.534278,29.0495196 C124.84482,32.9106242 126.401749,37.0515926 127.399299,41.3899924 C131.17447,43.5897228 131.174977,43.5897228 131.177006,48.0746695 C131.177513,49.2653633 131.177006,50.4560571 131.177006,51.5266639 C131.892077,52.2563455 132.643156,52.0115917 133.319177,52.0131183 C140.390269,52.0309278 147.460855,52.023804 154.53144,52.0207509 C155.007647,52.0207509 155.510733,52.0940244 155.955497,51.96834 C158.520626,51.2427292 160.419368,52.4161223 162.14619,54.0907263 C164.358347,56.2355017 165.523254,58.8982798 165.765161,61.9386197 C165.960918,64.3988781 166.029889,66.8728752 165.569911,69.4404995 C166.383368,70.8464341 166.986361,72.3923007 166.008589,74.1121918 C166.862111,74.8342407 167.995575,74.9110761 168.500689,75.9369046 C169.004789,76.9581535 169.039275,77.8847575 168.428675,78.7889724 C168.976389,79.9460826 170.336546,80.4666295 170.343139,81.9728063 C170.018568,84.0595735 168.477361,85.2360197 166.597889,86.0842618 C164.981625,86.8129257 163.273061,87.1156876 161.498568,87.0663298 C160.63389,87.0419053 159.768197,87.062259 159.093697,87.062259 C158.243218,87.5965447 158.095133,88.3277528 157.771068,88.8421936 C158.58199,93.6823131 158.147876,97.929121 153.244312,100.405662 C153.568376,104.176702 153.172804,107.805773 152.470919,111.403806 C152.103747,113.287545 151.541326,115.109204 150.466183,116.735977 C149.62889,118.002488 148.811376,119.278159 147.126648,119.816516 C146.976533,123.684235 144.254698,126.367367 142.459412,129.54255 C143.674019,130.350594 144.675626,130.976471 145.635648,131.661375 C150.05489,134.813151 151.933855,139.063012 151.150319,144.485758 C150.998176,145.537537 150.593983,146.461597 150.165955,147.406519 C149.927597,147.933681 149.223683,148.351442 149.649176,149.0913 L146.787876,149.0913 C146.456205,147.985583 147.474548,147.441121 147.824476,146.620356 C149.322069,143.108318 149.372783,139.724509 147.157583,136.457734 C145.353169,133.795464 142.740876,132.197187 140.110327,130.833486 C134.819306,131.818607 129.72962,131.818607 124.624213,130.168428 C119.631392,133.170605 114.642628,136.230789 109.369357,138.817241 C102.897707,141.991407 96.7557007,145.834702 89.9954868,148.429295 C89.6460654,148.563121 89.2099225,148.623164 89.0887154,149.0913 L83.3661157,149.0913 C83.27838,148.73053 82.9715586,148.634868 82.6794444,148.521396 C76.9832161,146.296223 71.5922879,143.439067 66.273881,140.447576 C61.4458813,137.73086 56.2324531,135.739247 51.7031605,132.442958 C50.316632,131.433922 48.6927607,130.702205 47.2408108,129.735911 C46.1570465,129.014371 45.0002537,128.556412 43.4057967,128.73298 C40.2123183,131.282795 36.4660543,132.313712 32.4570902,130.719505 C29.7433689,132.232297 27.3263262,133.695731 25.564512,136.074574 C23.2549836,139.19175 22.9319336,143.681276 24.8560335,147.043714 C25.2166121,147.674171 26.0574549,148.14994 25.6669549,149.0913 L22.8056551,149.0913 Z" id="Fill-107"></path>
                </g>
                <path d="M111.840839,63.4209786 C113.062557,67.0615262 112.856145,69.1699494 110.927506,70.3391612 C107.840698,72.2108346 105.39874,70.8495232 103.250881,67.8787284 C102.860719,69.232252 102.692733,70.2353236 102.758252,71.2617586 C102.947422,74.2470907 104.678024,76.0221951 107.556944,76.0735948 C111.442302,76.143166 114.403983,74.2626664 116.366614,70.8308324 C118.213477,67.6014819 115.636046,63.3270055 111.840839,63.4209786 M110.071318,60.8125771 C112.22164,60.7061435 114.194124,61.2741354 115.973004,62.5508192 C118.759802,64.5517704 119.746536,68.1191125 118.419888,71.3578084 C116.87008,75.1426903 112.016214,78.4436888 108.064351,78.3995578 C102.668594,78.339332 99.3738965,73.7195955 101.035531,68.2956365 C102.031133,65.0465568 103.722326,62.2766878 107.106682,61.1619908 C108.093416,60.8369789 109.075717,60.8395749 110.071318,60.8125771" id="Fill-110" fill="#181818"></path>
                <path d="M69.6179477,68.3392901 C67.335258,71.1067993 64.8985519,71.9518403 62.6178304,70.5570074 C59.5325826,68.6695775 60.6731894,65.7979839 61.3453502,63.0366579 C60.4394585,63.0258372 59.7407261,63.3313917 59.0729939,63.6828051 C56.9359554,64.8071218 55.6669197,68.0914458 56.5713352,70.2906134 C57.9653555,73.6810828 62.8304025,77.0014755 67.1089081,75.8771588 C70.1050921,75.0898279 71.3883977,71.1500819 69.6179477,68.3392901 M63.5133888,60.8385207 C69.2178988,60.2062858 73.1145619,67.5035239 72.5486871,71.880218 C71.9946218,76.1595262 67.3893851,79.3469796 63.1531972,78.1433114 C60.6736815,77.4389388 58.4219918,76.2151752 56.6466212,74.1726493 C54.6503133,71.8755805 53.5682623,69.2806864 54.6011068,66.2014394 C55.6900467,62.9562759 58.2261499,61.5439239 61.2803976,60.9704296 C61.8826853,60.8575857 62.5100682,60.892624 63.5133888,60.8385207" id="Fill-112" fill="#181818"></path>
                <path d="M72.5851776,60.4746971 C71.6781899,61.0533708 70.9944219,60.8052932 70.5620911,60.1602913 C68.3545838,56.8710428 65.11563,56.2902799 61.5985332,56.3696648 C61.1284112,56.3795879 60.655266,56.3534745 60.1861518,56.3132598 C60.0536308,56.3022921 59.9306836,56.181648 59.8032014,56.1111418 C61.8509781,54.1489781 65.8840501,53.8298719 68.990483,55.384666 C71.5073739,56.6443781 72.771614,58.4023347 72.5851776,60.4746971" id="Fill-114" fill="#181818"></path>
                <path d="M100.98977,60.5948419 C100.45631,59.8510997 100.526186,59.2227476 100.889127,58.6274392 C103.682099,54.0359588 110.848086,53.1574199 114.203198,56.1250457 C113.133671,56.5535629 112.085003,56.3553015 111.080659,56.3699876 C107.922661,56.4150946 105.126038,57.1992234 103.162719,59.9250543 C102.651161,60.6357529 102.000892,61.0831521 100.98977,60.5948419" id="Fill-116" fill="#181818"></path>
                <path d="M91.0031996,67.2000614 C88.0819057,67.9200872 85.1850444,68.3832453 82.2032001,67.5692339 C82.2786226,66.7687628 82.8102981,66.6552631 83.4168649,66.5943318 C87.0690134,66.2271505 89.683837,66.3541904 91.0031996,67.2000614" id="Fill-118" fill="#181818"></path>
                <path d="M91.0031996,73.6914044 C90.5446561,74.5616378 89.5291277,74.4053555 88.6202017,74.3588831 C84.5652288,74.1508816 84.566249,74.1433861 83.8032,73.3765913 C85.6399242,72.4996119 88.9803037,72.63753 91.0031996,73.6914044" id="Fill-120" fill="#181818"></path>
                <path d="M83.8032,78.1505081 C86.0677378,77.4116206 87.9618155,77.5109778 90.2031996,77.8975595 C88.3206987,79.5341323 85.7546588,79.6395637 83.8032,78.1505081" id="Fill-122" fill="#181818"></path>
                <path d="M84.6031999,84.2763886 C85.7497165,83.9316876 86.7406872,83.8624672 87.8031997,84.3411251 C86.454058,84.9660708 86.0649624,84.9604659 84.6031999,84.2763886" id="Fill-124" fill="#181818"></path>
                <path d="M87.8031997,89.893082 C86.6026206,90.4314163 85.7319575,90.6354908 84.6031999,90.0309442 C85.5864608,89.3377948 86.5122644,89.6266337 87.8031997,89.893082" id="Fill-126" fill="#181818"></path>
            </g>
            <rect id="Rectangle" stroke="#000000" stroke-width="1.5999999" fill="#8E5A28" x="6.20320461" y="144.799991" width="155.199991" height="12.7999992" rx="0.799999952"></rect>
            <g id="Group-8" transform="translate(171.003195, 91.999995)" fill="#613913" stroke="#000000" stroke-width="2.39999986">
                <rect id="Rectangle" x="5.59999967" y="59.9999964" width="13.5999992" height="5.59999967"></rect>
                <rect id="Rectangle-Copy-2" x="5.59999967" y="47.1999972" width="13.5999992" height="12.7999992" rx="6.39999962"></rect>
                <line x1="12.7999992" y1="46.3999972" x2="15.999999" y2="6.39999962" id="Path-23"></line>
                <line x1="12.7999992" y1="46.3999972" x2="0.355555534" y2="0.356923056" id="Path-23-Copy"></line>
            </g>
        </g>
    </g>
</svg>