<?xml version="1.0" encoding="UTF-8"?>
<svg width="39px" height="38px" viewBox="0 0 39 38" version="1.1" xmlns="http://www.w3.org/2000/svg" xmlns:xlink="http://www.w3.org/1999/xlink">
    <title>Call</title>
    <g id="Page-1" stroke="none" stroke-width="1" fill="none" fill-rule="evenodd">
        <path d="M38.5,27.0082277 L38.5,32.8349994 C38.5,35.3696451 36.3801571,37.2050781 34.0444503,37.2050781 C25.4486911,37.2050781 17.0628272,33.2380178 10.8256545,27.1733196 C4.58848168,21.1086214 0.5,12.9462855 0.5,4.55476316 C0.5,2.14442196 2.50842932,0.205078125 4.97643979,0.205078125 L10.9450262,0.205078125 C11.587644,0.205078125 12.157644,0.60615424 12.3595812,1.20048495 L15.3438743,9.92024873 C15.4901047,10.3475453 15.425445,10.8156293 15.1707853,11.1895138 L12.6401047,14.8963117 C13.5990576,16.8599338 15.2961257,19.006128 17.2558115,20.8959443 C19.2164921,22.7847894 21.4397906,24.4172566 23.4512042,25.3534246 L27.2482199,22.8828734 C27.6331937,22.6352356 28.1106806,22.57017 28.548377,22.713897 L37.5012565,25.6272828 C38.1100524,25.824422 38.5,26.3808786 38.5,27.0082277 Z" id="Call" fill="#FF641A" fill-rule="nonzero"></path>
    </g>
</svg>