<?xml version="1.0" encoding="UTF-8"?>
<svg width="18px" height="21px" viewBox="0 0 18 21" version="1.1" xmlns="http://www.w3.org/2000/svg" xmlns:xlink="http://www.w3.org/1999/xlink">
    <title>Download</title>
    <g id="Page-1" stroke="none" stroke-width="1" fill="none" fill-rule="evenodd">
        <path d="M16.4362483,10.1446864 C15.9454671,9.66046774 15.2957797,9.39374902 14.6062485,9.39374902 C13.9101548,9.39374902 13.2557799,9.66468649 12.7635924,10.1573427 L11.2312488,11.6892175 L11.2312488,2.62499973 C11.2312488,1.17749988 10.053749,0 8.6062491,0 C7.15874925,0 5.98124938,1.17749988 5.98124938,2.62499973 L5.98124938,11.6892175 L4.47234328,10.1803114 C3.98015583,9.68812399 3.29624966,9.40640527 2.59499973,9.40640527 L2.58609348,9.40640527 C1.88578105,9.40874902 1.23421862,9.68015524 0.750937422,10.1699989 C0.266718722,10.6607801 0,11.3104676 0,12 C0,12.6960924 0.270937472,13.3504674 0.76359367,13.8426548 L7.08140551,20.1609354 C7.50187422,20.5814041 8.05406166,20.7914041 8.6062491,20.7914041 C9.15843654,20.7914041 9.71062399,20.5814041 10.1310927,20.1609354 L16.4259358,13.8660923 C16.9199982,13.3720299 17.2021857,12.6843737 17.1998564,11.9798425 C17.1974982,11.2795301 16.926092,10.6279676 16.4362483,10.1446864 L16.4362483,10.1446864 Z" id="Download" fill="#FFFFFF" fill-rule="nonzero"></path>
    </g>
</svg>