<?xml version="1.0" encoding="UTF-8"?>
<svg width="123px" height="122px" viewBox="0 0 123 122" version="1.1" xmlns="http://www.w3.org/2000/svg" xmlns:xlink="http://www.w3.org/1999/xlink">
    <title>e_puja_logo copy</title>
    <defs>
        <polygon id="path-1" points="0 0.0707692308 15.8694141 0.0707692308 15.8694141 59.9995726 0 59.9995726"></polygon>
    </defs>
    <g id="Page-1" stroke="none" stroke-width="1" fill="none" fill-rule="evenodd">
        <g id="e_puja_logo-copy">
            <g id="Group" transform="translate(31.098765, 0.000000)">
                <g id="fire" fill="#FCD703" fill-rule="nonzero">
                    <path d="M59,47.3204373 C59,63.5698905 45.7918222,76.7437186 29.5,76.7437186 C13.2081778,76.7437186 0,63.5698905 0,47.3204373 C0,41.7317655 1.56116941,36.5052811 4.27721723,32.0566092 C4.27721723,32.0566092 8.03354858,40.051453 14.4865806,37.4671561 C17.0240389,36.4518436 19.9127232,33.6003592 17.1892342,28.8963748 C14.2514378,23.8242655 15.8096307,16.6606717 22.2849864,13.9190311 C29.5,10.8641873 29.5,0.743718593 29.5,0.743718593 C30.2262637,1.20832797 40.8984714,8.26504672 36.9828978,17.3523905 C34.643376,22.7822342 34.3635859,29.3624686 39.2286601,30.8171561 C45.050676,32.5598123 48.1239027,24.5026248 48.1239027,24.5026248 C54.7599889,29.8968436 59,38.1143436 59,47.3204373 L59,47.3204373 Z" id="Path"></path>
                </g>
                <g id="Group-18" transform="translate(22.000000, 15.000000)">
                    <g id="Group-3">
                        <mask id="mask-2" fill="white">
                            <use xlink:href="#path-1"></use>
                        </mask>
                        <g id="Clip-2"></g>
                        <path d="M11.4813737,5.02384615 C12.9153939,9.07 12.8386263,9.55153846 14.4952727,24.1930769 C16.1519192,38.8346154 16.6033131,51.9669231 14.1943434,55.89 C11.782303,59.8161538 4.09939394,61.6269231 2.14181818,58.1546154 C0.184242424,54.6838462 -0.118222222,48.7976923 0.0337777778,40.9484615 C0.184242424,33.0992308 1.84088889,18.4576923 2.74521212,17.4007692 C3.648,16.3438462 2.89567677,20.57 3.19660606,21.6269231 C3.49907071,22.6838462 4.25139394,18.4576923 4.40185859,14.3823077 C4.55232323,10.3069231 5.30618182,4.57153846 6.66036364,1.55153846 C8.01761616,-1.46692308 9.82472727,0.343846154 11.4813737,5.02384615" id="Fill-1" fill="#F20C00" mask="url(#mask-2)"></path>
                    </g>
                    <path d="M6.75144652,30.8998 C5.80392014,31.9230092 3.91438426,34.7734954 3.28270001,36.0125507 C2.65101575,37.2516059 3.06754118,37.5317115 4.63709726,35.635232 C7.99688513,31.5737011 9.09612607,28.367316 6.75144652,30.8998" id="Fill-6" fill="#FFFFFF"></path>
                    <path d="M11.2528051,43.5896486 C11.0448051,45.0908148 11.2808051,48.6854552 11.5888051,50.1001411 C11.8968051,51.5148271 12.5728051,51.3989762 12.7568051,48.7605135 C13.1488051,43.1148232 11.7688051,39.8726306 11.2528051,43.5896486" id="Fill-8" fill="#FFFFFF"></path>
                    <path d="M9.66754797,20.2150284 C8.84183916,21.4691323 7.4692323,24.7044702 7.10463361,26.043015 C6.74003491,27.3831235 7.34591216,27.4910202 8.64702907,25.2298803 C11.4279877,20.3870377 11.7121603,17.1079156 9.66754797,20.2150284" id="Fill-10" fill="#FFFFFF"></path>
                    <path d="M12.9774954,38.7993781 C11.8976524,37.9968371 9.06217541,36.5643772 7.87278315,36.144936 C6.68339089,35.7254948 6.54396452,36.2267043 8.50304723,37.5153125 C12.7000654,40.2727222 15.6522052,40.7860455 12.9774954,38.7993781" id="Fill-12" fill="#FFFFFF"></path>
                    <path d="M10.2942731,53.595338 C9.44998976,52.4837436 7.00172463,50.1837912 5.91308466,49.3866319 C4.82601108,48.5879963 4.50646784,49.0013382 6.09478572,50.8628529 C9.49541503,54.8530783 12.3822689,56.3484902 10.2942731,53.595338" id="Fill-14" fill="#FFFFFF"></path>
                    <path d="M7.49294194,41.479005 C6.23327344,42.1194525 3.50925913,44.1604749 2.52199207,45.1114426 C1.53622998,46.0624102 1.89592027,46.4667332 4.03600223,45.2149492 C8.61716221,42.5334793 10.6097561,39.8924416 7.49294194,41.479005" id="Fill-16" fill="#FFFFFF"></path>
                </g>
            </g>
            <g id="Group-2" transform="translate(0.000000, 84.000000)">
                <rect id="Rectangle-Copy-3" fill="#956FF9" x="35.0987654" y="0" width="52" height="10" rx="1"></rect>
                <rect id="Rectangle" fill="#805BE2" x="20.0987654" y="9" width="82" height="10" rx="1"></rect>
                <rect id="Rectangle-Copy" fill="#F037A8" x="10.0987654" y="19" width="103" height="10" rx="1"></rect>
                <rect id="Rectangle-Copy-2" fill="#FF4DBA" x="0.0987654321" y="28" width="122" height="10" rx="1"></rect>
            </g>
        </g>
    </g>
</svg>