<?xml version="1.0" encoding="UTF-8"?>
<svg width="43px" height="45px" viewBox="0 0 43 45" version="1.1" xmlns="http://www.w3.org/2000/svg" xmlns:xlink="http://www.w3.org/1999/xlink">
    <title>family</title>
    <g id="Page-1" stroke="none" stroke-width="1" fill="none" fill-rule="evenodd">
        <g id="family" fill-rule="nonzero">
            <path d="M20.6607922,4.04024139 C20.3971322,3.26789838 19.6425631,2.76114394 18.8129097,2.79923815 C18.6766871,2.80536421 18.5478542,2.73832553 18.4766635,2.62427112 C16.9444256,0.213333715 14.3493702,0.235339877 12.0953435,0.671134039 C9.89539577,1.09682701 7.62775734,2.48321523 7.03987833,4.62358506 C6.94863962,5.12775744 7.01480441,5.64719781 7.22970659,6.11387123 C7.16863781,7.47320269 7.08623174,9.74921706 7.30622651,10.9761508 L20.4981874,11.4451346 C21.0595787,9.42164993 21.2001105,5.27799782 20.6607922,4.04024139 Z" id="Path" fill="#543C66"></path>
            <path d="M7.00087552,11.0368413 C7.09148549,12.7406716 8.19927631,13.6579023 9,13.4030714 L8.45231305,9.45881867 C8.07774145,9.39853468 7.70005119,9.53933555 7.42021228,9.84358023 C7.14037337,10.1478249 6.98691993,10.5844907 7.00087552,11.0368413 L7.00087552,11.0368413 Z" id="Path" fill="#FF7171"></path>
            <path d="M18.7309528,10.448226 L18,14.3700325 C18.6422991,14.6889434 19.7812938,13.9897313 19.9856083,12.3194356 C20.0416257,11.8334757 19.9323573,11.3392344 19.6884943,10.9755339 C19.4446313,10.6118335 19.0924801,10.4179076 18.7309528,10.448226 Z" id="Path" fill="#FF7171"></path>
            <path d="M7,34.124526 L1,33.4451346 C1,37.0435762 1.3213913,40.7544249 1.44347826,42.7834087 C1.46598185,43.1565662 1.77125853,43.4469511 2.13913043,43.4451346 L7,43.4451346 L7,34.124526 Z" id="Path" fill="#FF8C83"></path>
            <path d="M20,33.955805 L20,43.4451346 L24.96,43.4451346 C24.96,41.5017798 25,37.5531707 25,33.4451346 L20,33.955805 Z" id="Path" fill="#FF8C83"></path>
            <path d="M26.9759727,33.2219005 C26.4265702,31.2233773 24.5198205,24.3836037 23.3527891,23.0190947 C22.1678034,21.6304656 18.3722583,21.1067147 16.8640947,20.4451346 L10.1384031,20.4451346 C8.63023948,21.1067147 4.85983043,21.6494171 3.64970867,23.0190947 C1.1558524,25.8445931 0.57233671,31.2233773 0.0229342478,33.2219005 C-0.0290915224,33.4196895 0.00830128528,33.6293626 0.125906121,33.799296 C0.243510956,33.9692293 0.430401522,34.0836348 0.640563159,34.1143445 L4.56537944,34.4451346 L21.9559423,34.4451346 L26.3619346,34.1143445 C26.5720242,34.0838838 26.7587966,33.9693579 26.875865,33.7992105 C26.9929334,33.629063 27.0293145,33.4192573 26.9759727,33.2219005 L26.9759727,33.2219005 Z" id="Path" fill="#559AFF"></path>
            <path d="M15.3490023,23.6570658 C15.230119,23.8877068 15.0804003,24.2941698 15.0804003,24.2941698 C14.3225191,24.5047551 11.7204602,24.4750057 10.9473471,24.327596 C10.8833042,24.0514458 10.7835561,23.7829893 10.6501387,23.5277063 C9.61733982,22.7254767 10.0780127,19.9454168 10.267483,19.6947201 C10.4553516,19.4332219 10.5852856,19.1415229 10.6501387,18.8356659 C10.7561414,18.3784049 10.8072078,17.9122166 10.802458,17.4451346 L15.2271469,17.7092018 C15.2129719,18.1631295 15.254083,18.617089 15.3497454,19.0629643 C15.4106271,19.3362298 15.5445079,19.5920592 15.7398313,19.8083693 C15.9248435,20.0025757 16.3780862,22.8548362 15.3490023,23.6570658 L15.3490023,23.6570658 Z" id="Path" fill="#FF8C83"></path>
            <path d="M15,23.9762904 C15.810221,22.4532257 15.5975081,20.7993183 15.4333925,19.8758637 C15.3724467,19.5365654 16.353555,19.319181 16.672226,19.525576 C18.9240348,20.9854516 19.2956849,23.8732647 18.8156867,24.2455312 C17.7899645,25.0395167 16.1069833,23.1524275 15,23.9762904 L15,23.9762904 Z" id="Path" fill="#6EB0FF"></path>
            <path d="M16.0438966,24.4451346 C14.8727601,24.8729324 12.4720385,24.687831 11.7215875,24.5284483 L11,44.4451346 L17,44.4451346 L16.0438966,24.4451346 Z" id="Path" fill="#E9F4FF"></path>
            <path d="M22,26.3124038 L17.4806244,22.4451346 L15.3556292,23.2186602 C15.1746301,23.6198415 15.0652004,24.0517319 15.0326438,24.4933988 C14.838645,27.3865854 15.5980412,39.6779645 15.0029042,43.4451346 L21.5819171,43.4451346 C21.7468679,41.8492896 21.4342568,33.815889 21.4173121,30.9514047 C21.4100501,29.7613377 22,26.3124038 22,26.3124038 Z" id="Path" fill="#559AFF"></path>
            <path d="M11.9651467,24.660602 C11.936567,24.221908 11.8199566,23.7927747 11.6218119,23.3971099 C11.4992712,23.1560045 11.1066257,22.4451346 11.1066257,22.4451346 L4,26.4635587 C4,26.4635587 4.62558325,29.8820641 4.62006339,31.0616316 C4.60166389,33.9008439 4.26679285,41.863369 4.44195616,43.4451346 L11.9967938,43.4451346 C11.3638508,39.7112007 12.1719571,27.5282633 11.9651467,24.660602 Z" id="Path" fill="#559AFF"></path>
            <path d="M4.27896921,35.4451346 L4.26274898,35.4451346 C4.0928453,35.4416833 3.93155709,35.3820115 3.81442141,35.2792667 C3.69728574,35.1765219 3.63391443,35.0391351 3.63827028,34.8973772 C3.68095509,33.5354627 3.71339554,32.3459245 3.71937141,31.5809161 C3.72748152,30.4615393 3.01720636,27.1062579 3.00994995,27.0727799 C2.94818563,26.7822603 3.18037989,26.5049708 3.52857033,26.4534365 C3.87676078,26.4019022 4.20909477,26.5956381 4.27085909,26.8861577 C4.30116531,27.0286174 5.00887938,30.3717897 4.99991557,31.5873268 C4.9939397,32.3615951 4.95979185,33.5564755 4.91881444,34.9237322 C4.91047371,35.2136185 4.62650073,35.4450248 4.27896921,35.4451346 L4.27896921,35.4451346 Z" id="Path" fill="#4177EF"></path>
            <path d="M21.7246506,35.4451346 C21.3781143,35.4452375 21.0945683,35.2146402 21.0853274,34.925197 C21.0456893,33.6851814 21.0086086,32.4230864 21.0000843,31.5879811 C20.9911337,30.3721819 21.6982253,27.0296242 21.7284866,26.8871756 C21.7901594,26.5960884 22.1225733,26.4018891 22.470954,26.4534194 C22.8193346,26.5049497 23.0517572,26.7826961 22.9900845,27.0737833 C22.9828388,27.1072587 22.27319,30.4626368 22.2812881,31.5819271 C22.2881075,32.4070609 22.3239096,33.6631019 22.3639739,34.8967072 C22.3685573,35.0383352 22.3056151,35.1756834 22.1889947,35.2785345 C22.0723744,35.3813855 21.9116298,35.4413137 21.7421255,35.4451346 L21.7246506,35.4451346 Z" id="Path" fill="#4177EF"></path>
            <path d="M16,18.9391046 C15.4940711,19.0872669 14.9288538,19.2076488 14.3162055,19.3588978 C13.7528284,19.4954529 13.1453445,19.4691578 12.6047431,19.2848166 C12.0197628,19.0872669 11.4782609,18.9205843 11,18.729208 C11.1127782,18.3069545 11.1671088,17.8764572 11.1620553,17.4451346 L15.8695652,17.688985 C15.8544841,18.1081604 15.898223,18.5273651 16,18.9391046 L16,18.9391046 Z" id="Path" fill="#F96262"></path>
            <path d="M28.2323267,6.61190806 C27.3577255,8.89626599 27.0073918,11.3451546 27.2067883,13.7805857 C27.8806116,20.6425951 25.1111228,26.4922813 26.3007474,29.4500196 C28.42816,34.7411949 36.5828849,33.7118934 38.2797497,32.342675 C41.9574197,29.3757402 38.8533378,8.99486464 37.1325735,3.48863262 C34.1858003,1.1884446 29.5863942,2.89510417 28.2323267,6.61190806 L28.2323267,6.61190806 Z" id="Path" fill="#543C66"></path>
            <path d="M37,28.9647745 L28.6571592,28.8736541 C27.6789551,31.2805372 27.1748879,33.6776184 24.5819168,37.4451346 L23,34.5183939 C24.0037543,31.0369446 25.6798415,24.8291468 26.3580144,22.9813286 C26.7923663,21.7942234 27.7267703,21.25331 28.7195745,20.9519958 C29.3105057,20.7837931 29.911519,20.6528424 30.5190322,20.5599244 C30.9798386,20.5085898 31.4255058,20.3653641 31.8293878,20.1388106 C32.1186903,19.9346871 32.3102434,19.6206609 32.3586401,19.271171 C32.4020082,18.7428667 32.394675,18.2116547 32.33674,17.6847338 L35.9867557,17.4451346 L36.2349567,18.810124 L37,28.9647745 Z" id="Path" fill="#FF7171"></path>
            <path d="M29.8949965,29.3719954 L37,29.4451346 L36.2274844,19.7484685 L35.9766198,18.4451346 L32.2874337,18.6739113 C32.3459904,19.1770316 32.3534023,19.6842492 32.3095688,20.1886904 C32.2606527,20.5223941 32.0670439,20.822236 31.7746368,21.0171394 C31.3664205,21.2334596 30.9159706,21.3702159 30.450219,21.4192318 C30.0005073,21.4968772 29.498778,21.5748692 29,21.6965369 C29.0232419,21.8154314 29.6817616,28.3345277 29.8949965,29.3719954 L29.8949965,29.3719954 Z" id="Path" fill="#FF8C83"></path>
            <path d="M36.6459968,3.44513458 L36.3191984,12.1521564 L36,15.4451346 L40.8639757,14.2344808 C40.8799356,13.8124815 40.9167954,13.2230661 40.9658152,12.7903438 C41.3427733,6.76993568 38.5178674,3.71908822 36.6459968,3.44513458 Z" id="Path" fill="#543C66"></path>
            <path d="M37.0002788,12.4507077 C36.9912872,12.9823432 37.2001415,13.4948246 37.5790012,13.8707626 C37.9578608,14.2467007 38.4742629,14.4538826 39.00992,14.4448512 C40.3525228,14.3795751 40.9992619,13.1522239 40.9992619,12.0509926 C41.0160627,11.5064536 40.7450854,10.9927495 40.2846142,10.6962021 C39.824143,10.3996547 39.2410558,10.3633339 38.7468397,10.6004133 C37.6372741,10.6012192 37.0002788,11.3482675 37.0002788,12.4507077 L37.0002788,12.4507077 Z" id="Path" fill="#FF7171"></path>
            <path d="M42.116215,22.2544184 C40.8066956,20.7222826 38.665255,21.2402938 37.0014125,20.0782686 C36.2182106,19.5315388 36.11745,18.382078 36.1455006,17.4451346 L34,17.4451346 L35.8864018,29.5525255 C35.1688974,34.7882801 40.109491,40.2160902 40.020172,43.4451346 L40.3505046,43.4451346 C41.4629997,43.4436352 42.3783175,42.5928729 42.4303077,41.5120157 C42.9193475,31.4242584 43.5523311,23.9351728 42.116215,22.2544184 L42.116215,22.2544184 Z" id="Path" fill="#FF8C83"></path>
            <path d="M17.6423659,5.35596099 C17.2517926,4.84804582 16.5851637,4.64061294 15.9763274,4.83754484 C15.3707928,5.03222432 14.6776103,5.45949839 14.1146267,5.45293616 C13.4385373,5.44491566 12.5256893,4.94254052 12.0205316,4.65744809 C11.2412366,4.23034937 10.2658306,4.46564656 9.76568802,5.20138402 C8.98449382,6.33664976 8.74737155,8.33120303 8,10.1380036 C8.03927792,12.4216596 9.015407,15.0374372 9.07250546,15.3072178 C9.47255835,17.1978691 10.7363618,17.546761 12.3583945,18.2565755 C12.8562263,18.4739014 13.4154383,18.5044403 13.9338756,18.3426136 C15.6235535,17.813625 16.9160881,17.6039982 17.520168,15.7683967 C17.6059975,15.5062721 18.7134167,12.8952338 19,10.6279834 C18.4391986,8.98961341 18.406467,6.35888843 17.6423659,5.35596099 Z" id="Path" fill="#FF8C83"></path>
            <g id="Group" transform="translate(9.000000, 7.445135)" fill="#543C66">
                <path d="M8.46588462,1.66897778 C8.35353854,1.66897778 8.24422301,1.63154958 8.15434615,1.56231111 C7.66038462,1.18435556 6.45646154,1.26755556 6.15773077,1.42008889 C5.9001218,1.54949534 5.58915773,1.43989465 5.46317308,1.17528889 C5.33718843,0.910683129 5.44389103,0.59127312 5.7015,0.461866667 C6.2865,0.167466667 7.8975,0.0376888889 8.77465385,0.708622222 C8.95344802,0.846359953 9.02637554,1.08616122 8.95570094,1.3039437 C8.88502634,1.52172617 8.6866081,1.66862222 8.46311538,1.66862222 L8.46588462,1.66897778 Z" id="Path"></path>
                <path d="M7.90961538,3.98506701 C7.74324714,3.98526124 7.58686295,3.90355723 7.48903846,3.76533333 C7.40734615,3.648 6.82026923,3.69422222 6.6285,3.8336 C6.52747707,3.928139 6.3938864,3.97733291 6.25739692,3.97025632 C6.12090745,3.96317973 5.99281842,3.90041848 5.90157692,3.79591111 C5.7095206,3.57533119 5.72619649,3.23703703 5.93896154,3.03751111 C6.36408042,2.72638438 6.88563035,2.58644547 7.40457692,2.64426667 C7.76820389,2.6630012 8.10591886,2.8432581 8.32984615,3.13813333 C8.44469429,3.30041096 8.46116572,3.51516214 8.37247433,3.69391081 C8.28378294,3.87265949 8.10493528,3.98516146 7.90961538,3.98506701 L7.90961538,3.98506701 Z" id="Path"></path>
                <path d="M3.24484615,1.47342232 C3.14673983,1.47311819 3.05072475,1.444271 2.96792308,1.39022222 C2.59892308,1.14844444 1.3635,0.911288889 0.856384615,1.21671111 C0.609676836,1.36037201 0.296386671,1.2741332 0.152680912,1.02300389 C0.00897515286,0.771874572 0.0880206714,0.448765152 0.330230769,0.297244444 C1.26484615,-0.267022222 2.93019231,0.100977778 3.52488462,0.490311111 C3.71956961,0.617738103 3.80896869,0.861889843 3.7442902,1.08951475 C3.67961171,1.31713966 3.47639014,1.47356674 3.24553846,1.47342232 L3.24484615,1.47342232 Z" id="Path"></path>
                <path d="M2.61346154,3.75858331 C2.4665706,3.75880562 2.32645888,3.69511514 2.22784615,3.58328889 C1.97302068,3.42956479 1.67330146,3.37386524 1.38219231,3.42613333 C1.25850101,3.5723916 1.06732161,3.63825057 0.882789242,3.59817159 C0.69825687,3.55809262 0.549396082,3.41837959 0.493931792,3.23321014 C0.438467502,3.04804069 0.485123526,2.84653957 0.615807692,2.70684444 C0.88345786,2.42474406 1.26325979,2.28595098 1.64423077,2.33102222 C2.12192308,2.352 2.78653846,2.57635556 3.02884615,2.90204444 C3.14871506,3.06365935 3.1687756,3.28119155 3.08058138,3.4630502 C2.99238717,3.64490885 2.8112596,3.75950083 2.61346154,3.75858331 L2.61346154,3.75858331 Z" id="Path"></path>
            </g>
            <path d="M13.6176351,14.4451346 C13.1886646,14.4437404 12.7658198,14.3768803 12.3812699,14.2496408 C12.1689603,14.1893002 12.0234423,14.055696 12.0025745,13.9019499 C11.9817066,13.7482037 12.0888713,13.5992361 12.2814594,13.5142772 C12.4740476,13.4293182 12.7208428,13.4221388 12.9237183,13.4955935 C13.3152718,13.6261138 13.7700972,13.6422899 14.1801124,13.5402778 C14.5048715,13.4694869 14.854462,13.5860219 14.9657089,13.802154 C15.0769558,14.0182862 14.9087789,14.2542042 14.5877833,14.3323068 C14.2759992,14.4056962 13.9481331,14.4438269 13.6176351,14.4451346 L13.6176351,14.4451346 Z" id="Path" fill="#ED4559"></path>
            <path d="M39.4613654,11.4451346 C39.1638858,11.4451346 38.9227309,11.2167172 38.9227309,10.9349501 C38.8569571,9.63689046 38.5594919,8.35876485 38.0429611,7.15482292 C37.9305468,6.90407696 38.0459443,6.61391384 38.3050793,6.49573525 C38.5642144,6.37755666 38.8756575,6.47305903 39.0125033,6.71266301 C39.6003314,8.05441213 39.9345828,9.48358688 40,10.9349501 C40,11.2167172 39.7588451,11.4451346 39.4613654,11.4451346 L39.4613654,11.4451346 Z" id="Path" fill="#473049"></path>
            <path d="M40.6360667,43.4451346 L26,43.4451346 C27.55522,38.3616057 30.3546159,36.1130526 30.0725063,34.0551768 C29.9965537,32.6700681 28.3726147,30.1229071 28.4304833,28.2736971 C28.4666512,27.0792657 29.1393743,26.0179486 29.2876627,25.2876185 C29.490203,24.2946575 28.9042829,21.114304 28.8536478,20.8336846 C29.4392,20.6669926 30.0347424,20.5372181 30.6367256,20.4451346 C31.4657989,22.2014726 32.5145252,23.8466368 33.7580159,25.3415838 C33.9692403,25.5687058 34.2718063,25.6895128 34.5822759,25.6706902 C34.8927455,25.6518676 35.1783226,25.4954038 35.3602542,25.2444463 C36.1595649,24.1435547 37.8196718,21.5352331 38.0728472,20.5854443 L38.076464,20.5818466 C38.6189826,20.7725239 39.1759683,20.8768568 39.7184869,21.0099711 C39.7184869,21.0099711 39.5955161,24.1471524 39.700403,25.1868834 C39.7908228,26.0611208 40.3803596,27.0360934 40.4165275,27.7916073 C40.5358816,30.1660794 39.6551931,33.7205921 39.535839,34.2782333 C39.2067111,35.8198413 41.2400708,38.2184179 41.9731942,41.8200603 C42.0538393,42.218882 41.9504096,42.632657 41.6913811,42.9474666 C41.4323526,43.2622762 41.0450364,43.4451346 40.6360667,43.4451346 L40.6360667,43.4451346 Z" id="Path" fill="#FFDBCF"></path>
            <path d="M42.0300759,22.4451346 L40.1975976,28.9493703 C40.1975976,28.9529284 40.1975976,28.9529284 40.1935434,28.9564866 C39.8975901,30.7391026 39.0113516,32.4395262 39,34.4470151 C39.0167133,34.8631417 39.0646563,35.2778492 39.1435171,35.6884417 C39.6551516,39.5948971 39.8124528,40.6448971 39.7273155,43.4451346 L41.4985761,43.4451346 C41.9331159,43.445487 42.2907222,43.1451306 42.3094073,42.7641109 C42.3342728,42.2923047 42.3590031,41.8254799 42.3835983,41.3636365 C42.9219902,31.4507258 43.59498,24.0996584 42.0300759,22.4451346 L42.0300759,22.4451346 Z" id="Path" fill="#FF8C83"></path>
            <path d="M40.4375516,14.4451346 L36.2470082,15.151368 L36.0519358,18.0056226 C35.4673877,23.510334 40.0587833,24.3573797 37.7463554,32.1820553 C36.7810314,35.4493352 42.0914846,35.7143085 41.9988001,29.3748589 C41.9208381,24.0319549 40.2746009,19.5704853 40.4375516,14.4451346 Z" id="Path" fill="#543C66"></path>
            <path d="M35.9882698,18.5632814 C35.9261581,18.9714209 35.9117626,19.3830733 35.945259,19.7932197 C35.4468886,20.0339839 34.9141693,20.2291689 34.3577713,20.3748655 C34.0885109,20.4508518 33.7968119,20.4655681 33.5171065,20.4172771 C33.0062243,20.3335759 32.5062685,20.213923 32.0234604,20.0598074 C32.0699183,19.6189481 32.0620627,19.1756623 32,18.7359574 L36,18.4451346 L35.9882698,18.5632814 Z" id="Path" fill="#F96262"></path>
            <path d="M39.9765403,10.9218791 C37.8613237,10.4045958 36.2546655,7.83776181 35.6736682,6.7063892 C35.5995931,6.56362526 35.4589429,6.46689062 35.2984994,6.44836038 C35.138056,6.42983014 34.9788623,6.49193464 34.8738681,6.61401717 C33.7913706,7.86584291 31.5624805,11.3190788 29,11.5876967 C29.2849264,15.1432809 30.1174169,16.834428 31.4670098,17.9325467 C32.3248642,18.6939784 33.3772095,19.2053735 34.5083302,19.4104991 C34.7742889,19.4700048 35.0518137,19.4525683 35.3081302,19.3602487 C36.4297973,18.9986709 37.4332149,18.3440349 38.2134883,17.4647747 C39.4066875,16.2125795 40.1433356,14.4375586 39.9765403,10.9218791 L39.9765403,10.9218791 Z" id="Path" fill="#FF8C83"></path>
            <path d="M33.9266895,15.445094 C33.6660107,15.4466672 33.4117452,15.3814042 33.2022101,15.25914 C32.9788879,15.1270978 32.9336282,14.8773345 33.1011199,14.7012781 C33.2686116,14.5252217 33.5854288,14.4895413 33.808751,14.6215835 C33.9046918,14.6643178 34.0249215,14.6518605 34.1035973,14.591034 C34.278077,14.4232034 34.5908243,14.3962903 34.8071241,14.5304927 C35.0234239,14.6646951 35.0637461,14.9106688 34.897829,15.083812 C34.6610063,15.3147566 34.3033733,15.4478027 33.9266895,15.445094 L33.9266895,15.445094 Z" id="Path" fill="#ED4559"></path>
            <path d="M35.5078421,10.4451346 C35.2656958,10.4453283 35.057144,10.2999775 35.0098293,10.0980427 C34.9625145,9.89610793 35.0896284,9.69388949 35.3133718,9.61515368 C36.1020757,9.33676791 37.4143275,9.47998703 37.5617868,9.49724235 C37.8393534,9.52972325 38.0334,9.74738831 37.9952019,9.98341088 C37.9570038,10.2194334 37.7010259,10.3844366 37.4234592,10.3519557 C36.8506876,10.2737566 36.2652781,10.2941963 35.7019742,10.4120617 C35.6404642,10.4338713 35.5744854,10.4451116 35.5078421,10.4451346 L35.5078421,10.4451346 Z" id="Path" fill="#543C66"></path>
            <path d="M29.5050889,11.4451346 C29.2712708,11.4455251 29.0679011,11.2348574 29.0137584,10.9361719 C28.9596158,10.6374864 29.0688961,10.3290974 29.2777739,10.1911201 C29.5155131,10.0334853 30.7445606,9.26385632 31.5953103,9.48463342 C31.8684026,9.55706093 32.045074,9.90647896 31.989917,10.2650805 C31.93476,10.6236819 31.6686613,10.8556718 31.3955691,10.7832443 C31.0145812,10.6812453 30.1930865,11.0667221 29.7317313,11.3722776 C29.6615589,11.4194903 29.5839345,11.4444434 29.5050889,11.4451346 L29.5050889,11.4451346 Z" id="Path" fill="#543C66"></path>
            <path d="M28.5385041,11.4451346 C28.2417896,11.4458162 28.0006938,11.2090327 28,10.9162623 C27.9993092,10.623492 28.2392825,10.3856009 28.5359969,10.3849177 C30.4375003,10.3760826 32.3683734,7.97010058 33.5234588,6.53280196 C33.7551922,6.24406998 33.9593469,5.9899717 34.132341,5.79065121 C34.3521066,5.54067429 34.6827612,5.41384708 35.0159366,5.45173571 C35.3475267,5.4905204 35.6376188,5.69005041 35.7892171,5.98361041 C36.0696611,6.52538045 37.5700185,9.25190094 39.5879259,9.74172043 C39.7753503,9.78603223 39.9243599,9.92600839 39.9784202,10.1085418 C40.0324805,10.2910752 39.9833079,10.4881963 39.8495585,10.625117 C39.7158091,10.7620378 39.5179774,10.8177779 39.3311209,10.7711895 C37.0030417,10.2057414 35.3887875,7.51562159 34.880908,6.55860054 C34.7304783,6.73530309 34.5585586,6.94982 34.3658653,7.18978208 C33.0915106,8.77692446 30.9589901,11.4334707 28.5410113,11.4440729 L28.5385041,11.4451346 Z" id="Path" fill="#48335B"></path>
            <path d="M39.4613654,11.4451346 C39.1638858,11.4451346 38.9227309,11.2167172 38.9227309,10.9349501 C38.8569571,9.63689046 38.5594919,8.35876485 38.0429611,7.15482292 C37.9305468,6.90407696 38.0459443,6.61391384 38.3050793,6.49573525 C38.5642144,6.37755666 38.8756575,6.47305903 39.0125033,6.71266301 C39.6003314,8.05441213 39.9345828,9.48358688 40,10.9349501 C40,11.2167172 39.7588451,11.4451346 39.4613654,11.4451346 L39.4613654,11.4451346 Z" id="Path" fill="#48335B"></path>
            <path d="M12,23.9761931 C11.3742143,22.68273 11.1870448,21.2626679 11.460251,19.8810982 C11.5211968,19.541386 10.6460467,19.3181171 10.327774,19.524555 C8.07596518,20.9847335 7.70431515,23.873146 8.18431332,24.2454898 C9.2096372,25.03964 10.8930167,23.1521592 12,23.9761931 L12,23.9761931 Z" id="Path" fill="#6EB0FF"></path>
            <path d="M27.832063,27.4451346 C28.3439508,27.150573 29.4147291,26.9479685 29.7294262,26.1880146 C30.5420573,24.237105 29.4356599,22.0211647 27.5922762,20.3233238 C27.5615766,20.2961759 27.5458882,20.255441 27.5502825,20.2142869 C27.5546767,20.1731329 27.5785962,20.1367805 27.6143087,20.1169811 C27.9187166,19.982311 28.088345,19.6485091 28.0204407,19.3177773 C27.93635,18.9282682 27.341106,18.909204 26.9386462,18.9439682 C26.7405561,18.9568597 26.5666787,18.8109385 26.5413272,18.6105305 C26.3250418,17.2139797 24.7735884,17.0595966 24.951317,18.2176572 C24.9599708,18.2652206 24.9414322,18.3136721 24.9034551,18.3427462 C24.8654779,18.3718203 24.8146069,18.3765066 24.7721195,18.3548451 C22.388573,17.158656 19.9308506,17.0790347 18.4271342,18.7454756 C18.4271342,18.7454756 16.7908558,20.1461383 15.6789502,20.9961801 C13.9255325,22.3370333 13.1419108,26.1573623 15.3484631,27.3191609 L27.832063,27.4451346 Z" id="Path" fill="#594472"></path>
            <path d="M15.0397461,29.1512751 C15.2780393,30.0529023 16.1367925,30.6022073 17,30.4051597 L16.5099365,27.4668303 C15.3144786,27.286354 14.854116,28.2655872 15.0397461,29.1512751 L15.0397461,29.1512751 Z" id="Path" fill="#FF8080"></path>
            <path d="M28.4927002,27.4668303 L28,30.4051597 C28.8631439,30.6022073 29.7218338,30.0529023 29.9601094,29.1512751 C30.1457259,28.2655872 29.68807,27.286354 28.4927002,27.4668303 L28.4927002,27.4668303 Z" id="Path" fill="#FF8080"></path>
            <path d="M29.1087933,43.4451346 L15.8912067,43.4451346 C13.3603312,43.4451346 12.0592473,41.1417327 13.7880848,39.2975871 C14.2962973,38.7576121 14.8797593,38.2935882 15.5204869,37.9198181 C17.2101137,36.9229827 19.2954125,36.9728244 20.3541027,35.7160998 C20.6580492,35.3502309 20.8630039,34.9126458 20.9493932,34.4451346 L24.0506068,34.4451346 C24.1369961,34.9126458 24.3419508,35.3502309 24.6458973,35.7160998 C25.7045875,36.9728244 27.7898863,36.9229827 29.4795131,37.9198181 C30.1202407,38.2935882 30.7037027,38.7576121 31.2119152,39.2975871 C32.9407527,41.1417327 31.6396688,43.4451346 29.1087933,43.4451346 L29.1087933,43.4451346 Z" id="Path" fill="#FF8C83"></path>
            <path d="M34,43.4451346 L11,43.4451346 C12.3050402,40.8396755 13.0340136,38.8074175 15.537415,37.3587822 C16.3000448,36.9490218 17.1157989,36.6416983 17.962585,36.4451346 C19.6374459,38.0605192 21.2127396,38.5538194 22.5,38.5538194 C23.7872604,38.5538194 25.3625541,38.0605192 27.037415,36.4451346 C27.8842011,36.6416983 28.6999552,36.9490218 29.462585,37.3587822 C31.9659864,38.8074175 32.6949598,40.8396755 34,43.4451346 L34,43.4451346 Z" id="Path" fill="#FFB95C"></path>
            <path d="M24,35.80773 C23.8198606,35.9138597 23.6346236,36.0081589 23.4451827,36.0901727 C22.9854455,36.3054803 22.4961789,36.4256527 22,36.4451346 C21.5038211,36.4256527 21.0145545,36.3054803 20.5548173,36.0901727 C20.3653764,36.0081589 20.1801394,35.9138597 20,35.80773 C20.2832815,35.4154838 20.4743015,34.946351 20.5548173,34.4451346 L23.4451827,34.4451346 C23.5256985,34.946351 23.7167185,35.4154838 24,35.80773 Z" id="Path" fill="#ED4559"></path>
            <path d="M20.5978963,22.2179022 C20.4155748,21.9583813 20.2974719,21.5909657 19.9379959,21.4787695 C19.57852,21.3665733 19.3146337,21.537556 19.1526112,21.9544383 C18.8204466,22.8079178 17.7774497,26.487809 16,26.8889193 C16.1217937,27.788281 16.334379,29.1070341 16.4635542,29.6920314 C16.9053423,31.7218899 18.3878386,33.3900076 20.390847,34.1110552 C20.9016005,34.3144864 21.4456772,34.4276249 21.9974165,34.4451346 C22.5491558,34.4276249 23.0932325,34.3144864 23.603986,34.1110552 C25.6076594,33.3907432 27.0910503,31.7228302 27.5334933,29.6927483 C27.6626684,29.107751 27.8770991,27.7889979 28,26.8896362 C26.9702897,25.034994 21.6693117,23.742408 20.5978963,22.2179022 L20.5978963,22.2179022 Z" id="Path" fill="#FF8C83"></path>
            <path d="M15.9985974,41.082402 L15.7232048,44.4451346 L15,44.4451346 L15,44.441229 L15.2873662,40.9261775 C15.3217232,40.6181752 15.4984851,40.4086513 15.6887183,40.4504367 C15.8789515,40.4922221 16.0154272,40.7705498 15.9985974,41.082402 L15.9985974,41.082402 Z" id="Path" fill="#F7844B"></path>
            <path d="M22.0142233,39.4451346 C20.3284987,39.4451346 18.6972089,38.7225832 17.1628484,37.2986154 C17.0253255,37.1750358 16.9693367,36.9913387 17.0163689,36.8180224 C17.0634011,36.6447061 17.2061481,36.5086942 17.3898274,36.4621848 C17.5735066,36.4156754 17.7695845,36.4658934 17.9028112,36.5935664 C20.5634466,39.0640449 23.4734287,39.0551285 26.0971888,36.6196548 C26.2304155,36.4919819 26.4264934,36.4417639 26.6101726,36.4882733 C26.7938519,36.5347827 26.9365989,36.6707945 26.9836311,36.8441108 C27.0306633,37.0174271 26.9746745,37.2011243 26.8371516,37.3247038 C25.3214043,38.7314995 23.6999479,39.4451346 22.0142233,39.4451346 L22.0142233,39.4451346 Z" id="Path" fill="#FFFFFF"></path>
            <path d="M30,44.441229 L30,44.4451346 L29.2767952,44.4451346 L29.0014026,41.082402 C28.9845728,40.7705498 29.1210485,40.4922221 29.3112817,40.4504367 C29.5015149,40.4086513 29.6782768,40.6181752 29.7126338,40.9261775 L30,44.441229 Z" id="Path" fill="#F7844B"></path>
            <path d="M19.4538456,27.4451346 C19.2031936,27.4451346 19,27.2623791 19,27.0369387 C19.0038896,26.8397765 19.1397736,26.6642452 19.344015,26.5925495 C19.64083,26.4611104 20.4029881,26.3288549 20.822644,26.6181297 C21.021411,26.7554981 21.0587309,27.0117822 20.9060003,27.1905564 C20.7532697,27.3693306 20.4683245,27.4028967 20.2695575,27.2655284 C20.1088549,27.2504082 19.946412,27.2648519 19.7921119,27.3079808 C19.7062351,27.3949605 19.5831783,27.4448552 19.4538456,27.4451346 L19.4538456,27.4451346 Z" id="Path" fill="#594472"></path>
            <path d="M18.467994,25.4451346 C18.252856,25.4449975 18.0655094,25.3309433 18.0137829,25.1686167 C17.9620565,25.0062901 18.0592564,24.8374483 18.2494385,24.7592696 C18.9805716,24.4442181 19.8405861,24.3623295 20.6479289,24.5308906 C20.8100613,24.5632325 20.937681,24.6603538 20.9827147,24.7856696 C21.0277484,24.9109855 20.9833545,25.0454575 20.8662558,25.1384314 C20.7491571,25.2314053 20.5771436,25.2687561 20.4150112,25.2364142 C19.8332855,25.1122759 19.2119994,25.172131 18.6868617,25.4029051 C18.6194197,25.4306287 18.5442858,25.4451346 18.467994,25.4451346 L18.467994,25.4451346 Z" id="Path" fill="#594472"></path>
            <path d="M25.5474527,27.4451346 C25.4186785,27.4451346 25.2960039,27.3956252 25.2101544,27.3090138 C25.0580273,27.2319517 24.8755459,27.2207541 24.7132579,27.2785228 C24.6189426,27.3434052 24.4996596,27.3713086 24.3822907,27.3559445 C24.2649217,27.3405804 24.1593426,27.2832417 24.0893466,27.1968503 C23.940393,27.0133381 23.9818668,26.7559692 24.1825713,26.6183371 C24.6001212,26.3283999 25.3613051,26.461526 25.6569691,26.5927464 C25.8602255,26.6643206 25.9956369,26.8393849 26,27.0362278 C26.0001598,27.1446265 25.9525516,27.248635 25.8676652,27.3253356 C25.7827788,27.4020362 25.6675802,27.4451346 25.5474527,27.4451346 L25.5474527,27.4451346 Z" id="Path" fill="#594472"></path>
            <path d="M26.5317098,25.4451346 C26.4555262,25.445086 26.3805081,25.4305919 26.3131618,25.4029094 C25.7880529,25.1721335 25.1667747,25.1122833 24.5850714,25.2364356 C24.3344449,25.2864269 24.0791334,25.1690322 24.0148172,24.9742273 C23.9505009,24.7794224 24.1015352,24.5809759 24.3521616,24.5309847 C25.1594627,24.3622856 26.0195238,24.4441731 26.75057,24.7593402 C26.9407456,24.8375109 27.0379422,25.0063353 26.9862175,25.1686452 C26.9344928,25.3309551 26.7471526,25.4449975 26.532022,25.4451346 L26.5317098,25.4451346 Z" id="Path" fill="#594472"></path>
            <path d="M23.6550565,29.4451346 C23.7571841,29.4453229 23.8539551,29.47226 23.9194566,29.5187329 C23.9849582,29.5652057 24.0124991,29.6264669 23.9947045,29.6861123 C23.8799014,30.1229954 23.2455463,30.4451346 22.500041,30.4451346 C21.7545356,30.4451346 21.1201805,30.1229954 21.0053774,29.6861123 C20.9874269,29.6264525 21.0149101,29.5651395 21.0804446,29.5186433 C21.1459791,29.472147 21.2428461,29.4452344 21.3450255,29.4451346 L23.6550565,29.4451346 Z" id="Path" fill="#FFFFFF"></path>
            <path d="M17.6179018,37.0013394 C17.8575633,36.875638 18.0066032,36.6135831 17.999775,36.3298968 C17.9929467,36.0462106 17.8314943,35.7925779 17.5860982,35.680034 C16.8281215,35.3319133 15.9615529,35.3724782 15.2353822,35.7900733 C14.532402,36.1361513 14.0604323,36.8584501 14.001325,37.6786648 C13.9861844,37.9360965 14.1016473,38.1825276 14.3041719,38.3250271 C14.5066964,38.4675265 14.7654737,38.4844167 14.9829168,38.3693282 L17.6179018,37.0013394 Z" id="Path" fill="#FF7171"></path>
            <path d="M36.0795587,11.850655 C36.3252631,11.5618538 36.7314724,11.4096503 37.143037,11.4521779 C37.2609998,11.4660092 37.3766378,11.49195 37.4875063,11.5294521 C37.5842478,11.5338185 37.680592,11.5432807 37.7760031,11.5577859 C37.8550028,11.5760398 37.9220651,11.6212373 37.9618517,11.683041 C38.0016382,11.7448448 38.0107457,11.8179679 37.9870911,11.885686 C37.9827004,11.8990868 37.9771264,11.912176 37.9704184,11.9248382 C37.8942428,12.0657842 37.7570348,12.1751461 37.5884356,12.2292984 C37.4916516,12.2573158 37.3903811,12.2720052 37.2883274,12.2728295 C37.2400958,12.2728295 37.1096917,12.2710264 37.0888508,12.2728295 C36.9236025,12.3057436 36.7626853,12.3532144 36.6086183,12.4144988 C36.4292014,12.4811234 36.2204656,12.4365547 36.0974783,12.3053615 C35.9744909,12.1741683 35.9671731,11.9882681 36.0795587,11.8501398 L36.0795587,11.850655 Z" id="Path" fill="#543C66"></path>
            <path d="M31.3369541,12.408433 C31.2229404,12.3794732 31.1049687,12.3677909 30.9872493,12.3738032 C30.9669893,12.3774932 30.8404378,12.4036076 30.794339,12.4115554 C30.695343,12.4292312 30.5941052,12.4319125 30.4942565,12.4195032 C30.4412526,12.4124068 30.3892461,12.3995522 30.3392236,12.3811833 C30.228891,12.3299701 30.1325411,12.2544246 30.0579329,12.1606308 C29.9596136,12.0299581 29.9894509,11.846981 30.1245853,11.7518849 C30.2215241,11.6979284 30.3277673,11.6613845 30.4381745,11.6440214 C30.537559,11.5834193 30.6436252,11.5337219 30.7544063,11.4958511 C31.1432272,11.3785228 31.5672299,11.467944 31.8701732,11.7311638 C32.0067671,11.8600269 32.0392751,12.0604558 31.9500345,12.2235501 C31.8607939,12.3866445 31.6711158,12.4734565 31.4840591,12.4368182 L31.3369541,12.408433 Z" id="Path" fill="#543C66"></path>
        </g>
    </g>
</svg>