<?xml version="1.0" encoding="UTF-8"?>
<svg width="43px" height="42px" viewBox="0 0 43 42" version="1.1" xmlns="http://www.w3.org/2000/svg" xmlns:xlink="http://www.w3.org/1999/xlink">
    <title>heart_Selected</title>
    <defs>
        <filter x="-48.0%" y="-50.0%" width="196.0%" height="200.0%" filterUnits="objectBoundingBox" id="filter-1">
            <feOffset dx="0" dy="2" in="SourceAlpha" result="shadowOffsetOuter1"></feOffset>
            <feGaussianBlur stdDeviation="2" in="shadowOffsetOuter1" result="shadowBlurOuter1"></feGaussianBlur>
            <feColorMatrix values="0 0 0 0 0   0 0 0 0 0   0 0 0 0 0  0 0 0 0.5 0" type="matrix" in="shadowBlurOuter1" result="shadowMatrixOuter1"></feColorMatrix>
            <feMerge>
                <feMergeNode in="shadowMatrixOuter1"></feMergeNode>
                <feMergeNode in="SourceGraphic"></feMergeNode>
            </feMerge>
        </filter>
    </defs>
    <g id="Page-1" stroke="none" stroke-width="1" fill="none" fill-rule="evenodd">
        <g id="heart_Selected" filter="url(#filter-1)" transform="translate(9.000000, 9.000000)" fill="#FFFFFF" fill-rule="nonzero">
            <path d="M22.9555443,2.24369533 C21.6624423,0.867609551 19.8504766,0.0846364929 17.9520772,0.0815899582 C16.0521597,0.083910846 14.2383093,0.866469249 12.9432179,2.24281418 L12.5018356,2.7045848 L12.0604533,2.24281418 C9.49063561,-0.495518243 5.16518331,-0.652776303 2.39941093,1.8914974 C2.27685418,2.00428367 2.15848562,2.12142382 2.044567,2.24281418 C-0.681522332,5.15400608 -0.681522332,9.65312083 2.044567,12.5643127 L11.8531905,22.8053163 C12.1925382,23.1600022 12.7580478,23.1751889 13.1162946,22.8392144 C13.1280215,22.828226 13.1394343,22.8169266 13.150533,22.8053163 L22.9555966,12.5643127 C25.6814765,9.65343182 25.6814765,5.15457623 22.9555443,2.24369533 Z M21.662704,11.3462107 L21.661814,11.3462107 L12.5018356,20.9113778 L3.34101952,11.3462107 C1.25844475,9.12179177 1.25844475,5.684454 3.34101952,3.46003511 C5.23224661,1.43060792 8.42715085,1.30336054 10.4769531,3.17578883 C10.5764748,3.26670203 10.6722272,3.36150262 10.7640531,3.46003511 L11.8531905,4.5976422 C12.2121179,4.95072127 12.7916056,4.95072127 13.150533,4.5976422 L14.2396704,3.46091625 C16.1308975,1.43148906 19.3258018,1.30424169 21.375604,3.17666998 C21.4751257,3.26758317 21.5708781,3.36238376 21.662704,3.46091625 C23.7633927,5.68885972 23.7787843,9.13246915 21.662704,11.3462107 Z" id="Shape"></path>
            <path d="M22.7434924,11.3421003 L22.7424973,11.3421003 L12.5006891,22.0369515 L2.25794437,11.3421003 C-0.0705907299,8.85496872 -0.0705907299,5.01166774 2.25794437,2.52453617 C4.37253287,0.255425589 7.94476795,0.113149794 10.2366599,2.20671928 C10.3479356,2.30836969 10.4549967,2.4143666 10.5576676,2.52453617 L11.7754365,3.79649916 C12.1767546,4.19127827 12.8246821,4.19127827 13.2260003,3.79649916 L14.4437691,2.52552138 C16.5583576,0.256410798 20.1305927,0.114135003 22.4224847,2.20770449 C22.5337603,2.3093549 22.6408214,2.41535181 22.7434924,2.52552138 C25.0922807,5.01659379 25.1094901,8.86690713 22.7434924,11.3421003 Z" id="Path"></path>
        </g>
    </g>
</svg>