<?xml version="1.0" encoding="UTF-8"?>
<svg width="26px" height="25px" viewBox="0 0 26 25" version="1.1" xmlns="http://www.w3.org/2000/svg" xmlns:xlink="http://www.w3.org/1999/xlink">
    <title>Home_Deselected</title>
    <g id="Page-1" stroke="none" stroke-width="1" fill="none" fill-rule="evenodd">
        <path d="M4.34259259,24.78125 C3.05090741,24.78125 2,23.7631426 2,22.5116625 L2,11.97025 L1.38702772,12.5544185 C1.06974616,12.8568605 0.555280816,12.8568605 0.237999256,12.5544185 C-0.0793330853,12.2520249 -0.0793330853,11.7617 0.237999256,11.4593064 L10.3428685,1.82854437 C11.8080106,0.432151875 14.1920402,0.432151875 15.6571315,1.82854437 L25.7620007,11.459258 C26.0793331,11.7617 26.0793331,12.2519765 25.7620007,12.5543701 C25.6034107,12.7056153 25.3954613,12.78125 25.1875119,12.78125 C24.9795625,12.78125 24.7716638,12.7056153 24.6130231,12.5543701 L24,11.97025 L24,22.5116625 C24,23.7630933 22.9491435,24.78125 21.6574074,24.78125 L4.34259259,24.78125 Z M11.491897,2.92370483 L3.61673206,10.4300097 C3.62520601,10.4756554 3.62962963,10.5226634 3.62962963,10.5706717 L3.62962963,22.5116625 C3.62962963,22.8925585 3.94944444,23.2024065 4.34259259,23.2024065 L9,23.20225 L9,17.1850962 C9,15.8596154 10.1215,14.78125 11.5,14.78125 L14.5,14.78125 C15.8785,14.78125 17,15.8596154 17,17.1850962 L17,23.20225 L21.6574074,23.2024065 C22.0505556,23.2024065 22.3703704,22.8925585 22.3703704,22.5116625 L22.3703704,10.5706717 C22.3703704,10.5226634 22.374794,10.4756554 22.3832679,10.4300097 L14.508103,2.92370483 C13.6765593,2.13113158 12.3234915,2.13113158 11.491897,2.92370483 Z M14.5,16.3197115 L11.5,16.3197115 C11.00375,16.3197115 10.6,16.7079327 10.6,17.1850962 L10.6,23.20225 L15.4,23.20225 L15.4,17.1850962 C15.4,16.7079327 14.99625,16.3197115 14.5,16.3197115 Z" id="Home_Deselected" fill="#FFFFFF" fill-rule="nonzero"></path>
    </g>
</svg>