<?xml version="1.0" encoding="UTF-8"?>
<svg width="26px" height="24px" viewBox="0 0 26 24" version="1.1" xmlns="http://www.w3.org/2000/svg" xmlns:xlink="http://www.w3.org/1999/xlink">
    <title>Home_Selected</title>
    <g id="Page-1" stroke="none" stroke-width="1" fill="none" fill-rule="evenodd">
        <path d="M4.34259259,24 C3.05090741,24 2,22.9818926 2,21.7304125 L2,11.189 L1.38702772,11.7731685 C1.06974616,12.0756105 0.555280816,12.0756105 0.237999256,11.7731685 C-0.0793330853,11.4707749 -0.0793330853,10.98045 0.237999256,10.6780564 L10.3428685,1.04729437 C11.8080106,-0.349098125 14.1920402,-0.349098125 15.6571315,1.04729437 L25.7620007,10.678008 C26.0793331,10.98045 26.0793331,11.4707265 25.7620007,11.7731201 C25.6034107,11.9243653 25.3954613,12 25.1875119,12 C24.9795625,12 24.7716638,11.9243653 24.6130231,11.7731201 L24,11.189 L24,21.7304125 C24,22.9818433 22.9491435,24 21.6574074,24 L4.34259259,24 Z M11.491897,2.14245483 L3.61673206,9.64875973 C3.62520601,9.69440544 3.62962963,9.7414134 3.62962963,9.78942175 L3.62962963,21.7304125 C3.62962963,22.1113085 3.94944444,22.4211565 4.34259259,22.4211565 L9,22.421 L9,16.4038462 C9,15.0783654 10.1215,14 11.5,14 L14.5,14 C15.8785,14 17,15.0783654 17,16.4038462 L17,22.421 L21.6574074,22.4211565 C22.0505556,22.4211565 22.3703704,22.1113085 22.3703704,21.7304125 L22.3703704,9.78942175 C22.3703704,9.7414134 22.374794,9.69440544 22.3832679,9.64875973 L14.508103,2.14245483 C13.6765593,1.34988158 12.3234915,1.34988158 11.491897,2.14245483 Z M14.5,15.5384615 L11.5,15.5384615 C11.00375,15.5384615 10.6,15.9266827 10.6,16.4038462 L10.6,22.421 L15.4,22.421 L15.4,16.4038462 C15.4,15.9266827 14.99625,15.5384615 14.5,15.5384615 Z" id="Home_Selected" fill="#FCD703" fill-rule="nonzero"></path>
    </g>
</svg>