<?xml version="1.0" encoding="UTF-8"?>
<svg width="10px" height="10px"
    viewBox="0 0 21 21"
    version="1.1"
    xmlns="http://www.w3.org/2000/svg" xmlns:xlink="http://www.w3.org/1999/xlink">
    <title>Language</title>
    <g id="Page-1" stroke="none" stroke-width="1" fill="none" fill-rule="evenodd">
        <path d="M19.0477015,4.43649129 C19.04735,4.4297256 19.0466031,4.42295991 19.0454609,4.41623816 C19.0192329,4.37876326 18.986986,4.3465164 18.9599672,4.30978837 C18.7640258,4.04285115 18.5565739,3.78593067 18.3376555,3.53898299 C18.2776869,3.47150183 18.2176743,3.40476752 18.156212,3.33878008 C17.9307915,3.09736796 17.6943438,2.86715878 17.4469129,2.64824038 C17.4011786,2.60773411 17.3584317,2.56577805 17.3126974,2.52601863 C16.7029067,2.00361073 16.0352122,1.55276976 15.3227499,1.18241414 C15.2942373,1.16743296 15.264275,1.15469238 15.2350156,1.13966728 C14.9177311,0.978432979 14.5924068,0.833497844 14.260273,0.705520866 C14.1852792,0.678545973 14.1170512,0.65302087 14.0458357,0.630527148 C13.7504299,0.524077366 13.450499,0.430851431 13.1460869,0.350849345 C13.056112,0.3268619 12.9661371,0.302127592 12.8746685,0.281127594 C12.5747375,0.211405842 12.2748505,0.158158984 11.9681539,0.114665263 C11.8751916,0.101177817 11.7837229,0.0831652656 11.6899698,0.0719184045 C10.9000975,-0.024075312 10.1015264,-0.024075312 9.31161017,0.0719184045 C9.21790097,0.0831652656 9.12643235,0.101177817 9.03342609,0.114665263 C8.72677339,0.158158984 8.423855,0.211405842 8.12691151,0.281127594 C8.0354429,0.302127592 7.94546801,0.3268619 7.85549312,0.350849345 C7.54906009,0.430807498 7.24917308,0.524033433 6.95574424,0.630527148 C6.88075052,0.656008318 6.81252249,0.681533421 6.74130701,0.705520866 C6.40921708,0.833497844 6.08384891,0.978389046 5.76656441,1.13966728 C5.737305,1.15464845 5.70734266,1.16738903 5.67883011,1.18241414 C4.96399544,1.55237436 4.29406034,2.00317139 3.68211687,2.52601863 C3.63638257,2.56573411 3.59363571,2.60773411 3.5479014,2.64824038 C3.29796627,2.86816924 3.06151859,3.09837842 2.83860229,3.33878008 C2.77713995,3.40476752 2.71712741,3.47150183 2.65715879,3.53898299 C2.4377132,3.78540348 2.23026134,4.04232396 2.03484712,4.30974444 C2.00787223,4.34647247 1.97562537,4.37871933 1.94935341,4.41619422 C1.94592663,4.42274025 1.94289525,4.42950594 1.94034713,4.43644736 C-0.64581585,8.06079227 -0.64581585,12.9272563 1.94034713,16.5515573 C1.94289525,16.5584987 1.9458827,16.5652644 1.94935341,16.5718104 C1.97558144,16.6092853 2.0078283,16.6415322 2.03484712,16.6782602 C2.23030527,16.9451974 2.4377132,17.2021179 2.65715879,17.4490656 C2.71712741,17.5165468 2.77713995,17.5832811 2.83860229,17.6492685 C3.06454997,17.8906806 3.30095372,18.1208898 3.5479014,18.3398082 C3.59363571,18.3803145 3.63638257,18.4222706 3.68211687,18.46203 C4.29190762,18.9844379 4.95960213,19.4352788 5.67206442,19.8056345 C5.70057697,19.8206156 5.73053931,19.8333562 5.75979872,19.8483813 C6.07708322,20.0096156 6.40240746,20.1545508 6.73454132,20.2825277 C6.80953504,20.3095026 6.87776307,20.3350277 6.94897855,20.3575215 C7.24438438,20.4639712 7.54431532,20.5571972 7.84872743,20.6371993 C7.93870232,20.6611867 8.02867721,20.685921 8.12014582,20.706921 C8.42007676,20.7766428 8.71996377,20.8298896 9.0266604,20.8733833 C9.11962273,20.8868708 9.21109134,20.9048833 9.30484448,20.9161302 C10.0947168,21.0121239 10.8932879,21.0121239 11.6832041,20.9161302 C11.7769133,20.9048833 11.8683819,20.8868708 11.9613882,20.8733833 C12.2680409,20.8298896 12.5709593,20.7766428 12.8679028,20.706921 C12.9593714,20.685921 13.0493463,20.6611867 13.1393212,20.6371993 C13.4462375,20.5572411 13.7461684,20.4640152 14.0390701,20.3575215 C14.1140638,20.3320403 14.1822918,20.3065152 14.2535073,20.2825277 C14.5855972,20.1545508 14.9109654,20.0096596 15.2282499,19.8483813 C15.2575093,19.8334002 15.2874716,19.8206596 15.3159842,19.8056345 C16.0284465,19.4352349 16.696141,18.9844379 17.3059317,18.46203 C17.351666,18.4222706 17.3944129,18.3803145 17.4401472,18.3398082 C17.6900823,18.1203626 17.92653,17.8901974 18.1494463,17.6492685 C18.2109086,17.5832811 18.2709212,17.5165468 18.3308898,17.4490656 C18.5503354,17.2021179 18.7577873,16.9451974 18.9532015,16.6782602 C18.9801764,16.6415322 19.0124232,16.6092853 19.0386952,16.5718104 C19.042122,16.5652644 19.0451534,16.5584987 19.0477015,16.5515573 C21.6338645,12.9273003 21.6338645,8.0608362 19.0477015,4.43649129 Z M18.1921932,5.85513344 C18.9092684,7.03609779 19.3422726,8.36744497 19.4570696,9.74430678 L14.9658378,9.74430678 C14.9108336,8.85088426 14.7702478,7.96484249 14.5459696,7.09830699 C15.8146243,6.86071705 17.042597,6.44203507 18.1921932,5.85513344 Z M12.4052878,1.70350405 C12.4472877,1.71325719 12.4877501,1.72674464 12.5297501,1.73649777 C12.798181,1.79949777 13.0643714,1.87146011 13.3245429,1.961435 C13.3643023,1.97492244 13.4032709,1.99069441 13.4422835,2.00492872 C13.7002144,2.09490361 13.9543671,2.19463163 14.2033357,2.30485966 C14.2468295,2.32511279 14.2895763,2.34760651 14.33307,2.36785965 C14.5714947,2.48133872 14.8044277,2.60404373 15.0318691,2.73601862 L15.1818126,2.82674037 C15.3977436,2.95871525 15.6076996,3.09991608 15.8116369,3.25038678 C15.8641369,3.28860853 15.9165929,3.3253805 15.9683461,3.36733656 C16.1682854,3.51728007 16.3597456,3.67798717 16.5426828,3.84945786 C16.5906577,3.89295158 16.6401703,3.93569844 16.6873983,3.98068589 C16.8793418,4.16287625 17.062279,4.35556661 17.2392414,4.55502266 C17.2617351,4.58125069 17.2857225,4.60523814 17.3082162,4.63001638 C16.2929674,5.11385107 15.2174423,5.45934059 14.1103734,5.65721505 C13.597499,4.24731557 12.9200074,2.90287635 12.0919572,1.65183879 C12.1960786,1.67055427 12.3025723,1.68105426 12.4052878,1.70350405 Z M7.52564377,9.74426285 C7.58477766,8.93299513 7.72290317,8.12941569 7.93804332,7.34494714 C8.78757673,7.44586135 9.64233817,7.4959011 10.4978465,7.49489064 C11.3541456,7.49462704 12.2096978,7.44331324 13.0598902,7.34116889 C13.274635,8.12691151 13.4120136,8.93176501 13.4700052,9.74426285 L7.52564377,9.74426285 Z M13.4700052,11.2438736 C13.4108714,12.0551413 13.2727458,12.8587208 13.0576057,13.6431893 C12.2080723,13.5422751 11.3533108,13.4922354 10.4978025,13.4932458 C9.64154738,13.4922793 8.78603908,13.542319 7.93575881,13.6431893 C7.72123372,12.8586768 7.583899,12.0550974 7.52559984,11.2438736 L13.4700052,11.2438736 L13.4700052,11.2438736 Z M10.4978025,1.98546638 C11.3510703,3.19481147 12.0528568,4.50423606 12.5874781,5.88439285 C11.8933798,5.95811251 11.1958548,5.99514808 10.4978025,5.99536774 C9.80054109,5.99453301 9.1037629,5.95727779 8.41036756,5.88364599 C8.94564785,4.50441179 9.64659968,3.19542653 10.4978025,1.98546638 Z M3.75719846,4.55423187 C3.93341392,4.35477582 4.11709801,4.16208546 4.30904151,3.97989509 C4.35626954,3.93490765 4.40578209,3.89216079 4.45375698,3.84866707 C4.63871513,3.68022775 4.83017536,3.51952065 5.02809376,3.36654577 C5.07984689,3.32678636 5.13230295,3.29155205 5.18480295,3.24959599 C5.38874017,3.09965248 5.59869622,2.95840772 5.81462717,2.82594957 L5.96457067,2.73522782 C6.19201208,2.60228641 6.42494511,2.47953747 6.66336978,2.36706886 C6.7068635,2.34681572 6.74961036,2.324322 6.79310408,2.30406886 C7.04202875,2.19160025 7.29622538,2.09187222 7.55415632,2.00413792 C7.59312494,1.98990361 7.62915004,1.97413165 7.67185297,1.9606442 C7.9320245,1.87365676 8.19672113,1.80169442 8.46664579,1.73570698 C8.50864579,1.72595384 8.54910813,1.7124664 8.59185499,1.70346012 C8.69457046,1.6809664 8.80106418,1.6704664 8.90527338,1.65170699 C8.07687177,2.90296421 7.39916052,4.24766704 6.88606642,5.65783011 C5.77899747,5.45995565 4.70342851,5.11446614 3.68822357,4.63063144 C3.71071729,4.60444735 3.73470473,4.5804599 3.75719846,4.55423187 Z M2.80345585,5.85513344 C3.9527884,6.44199114 5.18049751,6.86067311 6.44893256,7.09830699 C6.22491793,7.96488642 6.08455183,8.85092819 6.02981125,9.74430678 L1.53857938,9.74430678 C1.65342038,8.36744497 2.08642453,7.03609779 2.80345585,5.85513344 Z M2.80345585,15.133047 C2.08638059,13.9520826 1.65337644,12.6207354 1.53857938,11.2438736 L6.02981125,11.2438736 C6.08481543,12.1372961 6.2254012,13.0233379 6.44967942,13.8898734 C5.18102471,14.1274194 3.953052,14.5461014 2.80345585,15.133047 Z M8.59036127,19.2846324 C8.54836127,19.2748793 8.50789893,19.2613918 8.46589893,19.2516387 C8.19746799,19.1886387 7.93127763,19.1166764 7.67110611,19.0267015 C7.6313467,19.013214 7.59237808,18.9974421 7.55336553,18.9832078 C7.29543459,18.8932329 7.04128189,18.7935048 6.79231329,18.6832768 C6.74881957,18.6630237 6.70607271,18.64053 6.66257899,18.6202768 C6.42415432,18.5067977 6.19122128,18.3840927 5.96377988,18.2521178 L5.81383637,18.1613961 C5.59790543,18.0294212 5.38794938,17.8882204 5.18401216,17.7377497 C5.13151216,17.6995279 5.0790561,17.662756 5.02730296,17.6207999 C4.82736365,17.4708564 4.63590341,17.3101493 4.45296619,17.1386786 C4.40499129,17.0951849 4.35547875,17.052438 4.30825072,17.0074506 C4.11630722,16.8252602 3.93336999,16.6325699 3.75640766,16.4331138 C3.73391394,16.4068858 3.70992649,16.3828983 3.68743277,16.3581201 C4.70268165,15.8742854 5.77820667,15.5287959 6.88527562,15.3309214 C7.39815006,16.7408209 8.07564164,18.0852601 8.90369179,19.3362977 C8.79952652,19.3176261 8.69307674,19.3071261 8.59036127,19.2846324 Z M10.4978025,19.002714 C9.64453483,17.7933689 8.94274827,16.4839443 8.40812697,15.1037875 C9.79671891,14.9543273 11.1973485,14.9543273 12.5859405,15.1037875 L12.5851936,15.1045344 C12.0500012,16.4837247 11.3490493,17.7927099 10.4978025,19.002714 Z M17.2384506,16.4339046 C17.0622351,16.6333606 16.878551,16.826051 16.6866075,17.0082414 C16.6393795,17.0532288 16.5898669,17.0959757 16.541892,17.1394694 C16.3569339,17.3084359 16.1654737,17.469143 15.9675553,17.6215907 C15.9158021,17.6613062 15.8633461,17.7003187 15.8108461,17.7385405 C15.6069088,17.888484 15.3969528,18.0297287 15.1810218,18.1621869 L15.0310783,18.2529086 C14.8041202,18.3853668 14.5711872,18.5080718 14.3322792,18.6210676 C14.2887855,18.6413207 14.2460387,18.6638145 14.2025449,18.6840676 C13.9536203,18.7965362 13.6994236,18.8962642 13.4414927,18.9839985 C13.4025241,18.9982329 13.366499,19.0140048 13.3237961,19.0274923 C13.0636245,19.1144797 12.7989279,19.186442 12.5290032,19.2524295 C12.4870032,19.2621826 12.4465409,19.2756701 12.403794,19.2846763 C12.3010786,19.3071701 12.1945848,19.3176701 12.0903756,19.3364295 C12.9184258,18.0853919 13.5959613,16.7409527 14.1087918,15.3310532 C15.2158608,15.5289277 16.2914297,15.8744172 17.3066347,16.3582519 C17.2849317,16.3836891 17.2609443,16.4076766 17.2384506,16.4339046 Z M18.1921932,15.133047 C17.0428606,14.5461893 15.8151515,14.1275073 14.5467165,13.8898734 C14.7707311,13.023294 14.9110972,12.1372522 14.9658378,11.2438736 L19.4570696,11.2438736 C19.3422286,12.6206915 18.9092245,13.9520387 18.1921932,15.133047 Z" id="Language" fill="#C2C2C2" fill-rule="nonzero"></path>
    </g>
</svg>