<?xml version="1.0" encoding="UTF-8"?>
<svg width="53px" height="65px" viewBox="0 0 53 65" version="1.1" xmlns="http://www.w3.org/2000/svg" xmlns:xlink="http://www.w3.org/1999/xlink">
    <title>Lock</title>
    <g id="Page-1" stroke="none" stroke-width="1" fill="none" fill-rule="evenodd">
        <g id="Lock" fill-rule="nonzero">
            <path d="M39.7584665,28 C37.9888665,28 36.5584665,26.5696 36.5584665,24.8 L36.5584665,16 C36.5584665,10.7072 32.2512665,6.4 26.9584665,6.4 C21.6656665,6.4 17.3584665,10.7072 17.3584665,16 L17.3584665,24.8 C17.3584665,26.5696 15.9280665,28 14.1584665,28 C12.3888665,28 10.9584665,26.5696 10.9584665,24.8 L10.9584665,16 C10.9584665,7.1776 18.1360665,0 26.9584665,0 C35.7808665,0 42.9584665,7.1776 42.9584665,16 L42.9584665,24.8 C42.9584665,26.5696 41.5280665,28 39.7584665,28 Z" id="Path" fill="#90A4AE"></path>
            <path d="M45.6459665,65 L8.27096645,65 C4.24096645,65 0.958466454,61.7369231 0.958466454,57.7307692 L0.958466454,30.2692308 C0.958466454,26.2630769 4.24096645,23 8.27096645,23 L45.6459665,23 C49.6759665,23 52.9584665,26.2630769 52.9584665,30.2692308 L52.9584665,57.7307692 C52.9584665,61.7369231 49.6759665,65 45.6459665,65 Z" id="Path" fill="#FFC107"></path>
        </g>
    </g>
</svg>