<?xml version="1.0" encoding="UTF-8"?>
<svg width="47px" height="33px" viewBox="0 0 47 33" version="1.1" xmlns="http://www.w3.org/2000/svg" xmlns:xlink="http://www.w3.org/1999/xlink">
    <title>Mail</title>
    <g id="Page-1" stroke="none" stroke-width="1" fill="none" fill-rule="evenodd">
        <g id="Mail" fill-rule="nonzero">
            <path d="M42.8691406,0.605333333 L4.13085938,0.605333333 C1.84943164,0.605333333 0,2.44734476 0,4.71961905 L0,28.4910476 C0,30.7633219 1.84943164,32.6053333 4.13085938,32.6053333 L42.8691406,32.6053333 C45.1505684,32.6053333 47,30.7633219 47,28.4910476 L47,4.71961905 C47,2.44734476 45.1505684,0.605333333 42.8691406,0.605333333 Z" id="Path" fill="#FFC733"></path>
            <g id="Group" transform="translate(7.000000, 7.605333)" fill="#FFAF00">
                <path d="M0.547973172,17.558721 C1.12349093,18.0571908 1.98722361,17.985888 2.47645932,17.4001465 L10.3729096,7.94955229 L15.8306604,11.1190925 C16.2508522,11.3630818 16.7664468,11.362989 17.1864562,11.1190925 L22.644207,7.94955229 L30.5406572,17.4001465 C31.0302578,17.9862594 31.8939905,18.0568194 32.4691434,17.558721 C33.0447524,17.0604368 33.1144347,16.1815925 32.6249254,15.5956653 L25.0626585,6.54503535 L31.7796166,2.64417707 C32.4359439,2.26315265 32.6644181,1.41253232 32.2901036,0.744532625 C31.9156978,0.0764400858 31.0798745,-0.156222491 30.4238208,0.224894779 C29.8621665,0.551049461 17.1337384,7.94286766 16.5086039,8.30597354 C15.8803683,7.94110365 3.14893039,0.547521457 2.59338701,0.224894779 C1.93705963,-0.156129649 1.1016924,0.0762544014 0.727104216,0.744532625 C0.352789652,1.41253232 0.581172612,2.2630598 1.23759121,2.64417707 L7.95454931,6.54503535 L0.392191185,15.5956653 C-0.0973181383,16.1815925 -0.0276357975,17.060344 0.547973172,17.558721 Z" id="Path"></path>
            </g>
        </g>
    </g>
</svg>