<?xml version="1.0" encoding="UTF-8"?>
<svg width="14px" height="18px" viewBox="0 0 14 18" version="1.1" xmlns="http://www.w3.org/2000/svg" xmlns:xlink="http://www.w3.org/1999/xlink">
    <title>Next</title>
    <g id="Page-1" stroke="none" stroke-width="1" fill="none" fill-rule="evenodd">
        <path d="M12.723,0.087 C12.844,-0.008 13.008,-0.028 13.148,0.043 C13.286,0.106 13.372,0.249 13.372,0.403 L13.372,0.403 L13.372,17.402 C13.372,17.558 13.286,17.699 13.149,17.764 L13.149,17.764 L12.974,17.804 C12.886,17.804 12.796,17.774 12.724,17.718 L12.724,17.718 L3.288,10.2744509 L3.288,17.368 C3.288,17.561375 3.17928125,17.7248906 3.03553516,17.762748 L2.972,17.771 L0.316,17.771 C0.142,17.771 4.4408921e-15,17.59 4.4408921e-15,17.368 L4.4408921e-15,17.368 L4.4408921e-15,0.433 C4.4408921e-15,0.215 0.141,0.034 0.316,0.034 L0.316,0.034 L2.972,0.034 C3.145,0.034 3.288,0.215 3.288,0.434 L3.288,0.434 L3.288,7.52945088 Z" id="Next" fill="#FFFFFF" fill-rule="nonzero" transform="translate(6.686000, 8.902225) scale(-1, 1) translate(-6.686000, -8.902225) "></path>
    </g>
</svg>