<?xml version="1.0" encoding="UTF-8"?>
<svg width="257px" height="168px" viewBox="0 0 257 168" version="1.1" xmlns="http://www.w3.org/2000/svg" xmlns:xlink="http://www.w3.org/1999/xlink">
    <title>Live_Pantit_ji Copy</title>
    <defs>
        <rect id="path-1" x="0" y="0.0157894727" width="251.199985" height="160.79999" rx="7.19999957"></rect>
    </defs>
    <g id="Page-1" stroke="none" stroke-width="1" fill="none" fill-rule="evenodd">
        <g id="Live_Pantit_ji-Copy" transform="translate(3.000000, 3.000000)">
            <g id="Group-8">
                <g id="Group-7" transform="translate(144.084202, 47.999997)">
                    <path d="M3.52941155,2.38852324 C9.17647052,-1.39330522 12,-0.684212387 12,4.51580176 C12,12.315823 10.5882347,19.4067513 3.52941155,15.8612872 C-1.17647052,13.4976444 -1.17647052,9.00672306 3.52941155,2.38852324 Z" id="Path-7" fill="#E8B495"></path>
                    <path d="M7.24705839,3.64730554 C9.88235235,0.405738283 11.1999993,1.01353214 11.1999993,5.47068712 C11.1999993,12.1564196 10.5411758,18.2343582 7.24705839,15.1953889 C5.05098009,13.1694094 5.05098009,9.32004824 7.24705839,3.64730554 Z" id="Path-7-Copy-5" fill="#F0CFB4"></path>
                    <path d="M3.52941155,2.38852324 C9.17647052,-1.39330522 12,-0.684212387 12,4.51580176 C12,12.315823 10.5882347,19.4067513 3.52941155,15.8612872 C-1.17647052,13.4976444 -1.17647052,9.00672306 3.52941155,2.38852324 Z" id="Path-7-Copy-3" stroke="#000000" stroke-width="2.39999986"></path>
                </g>
                <g id="Group-4" transform="translate(0.000000, 0.800000)">
                    <mask id="mask-2" fill="white">
                        <use xlink:href="#path-1"></use>
                    </mask>
                    <use id="Mask" stroke="#FFFFFF" stroke-width="4.79999971" xlink:href="#path-1"></use>
                    <rect id="Rectangle" stroke="#979797" stroke-width="0.799999952" fill="#1E63F3" mask="url(#mask-2)" x="-8.79999948" y="-9.59999943" width="271.999984" height="183.199989"></rect>
                    <g mask="url(#mask-2)">
                        <g transform="translate(56.799997, 15.199999)">
                            <g id="Group-6" stroke="none" stroke-width="1" fill="none" transform="translate(16.799999, 0.000000)">
                                <path d="M9.99758353,49.5336771 C13.8243305,72.2271023 22.6736829,85.1947739 36.5456406,88.4366918 C57.3535773,93.2995686 81.7490892,81.952856 81.7490892,72.2271023 C81.7490892,65.7432665 83.423291,54.6667138 86.7716946,38.997444 C89.1634114,20.6265759 83.1841193,9.0097035 68.8338182,4.14682667 C47.3083665,-3.14748858 27.2179449,-0.716050162 15.737704,10.6306624 C8.08421004,18.1951375 6.17083656,31.1628091 9.99758353,49.5336771 Z" id="Path-2" fill="#F0CFB4"></path>
                                <path d="M46.8931758,27.7160537 C47.5437717,29.4444465 47.5089432,29.6501449 48.2605417,35.9045608 C49.0121401,42.1589767 49.2169316,47.7686956 48.1240141,49.4445136 C47.0297034,51.1216461 43.5440698,51.8951511 42.6559437,50.4118878 C41.7678177,48.9292817 41.6305935,46.4148975 41.6995539,43.0619469 C41.7678177,39.7089964 42.5194161,33.4545805 42.9296955,33.0030954 C43.3392784,32.5516103 42.9979593,34.3568935 43.134487,34.8083787 C43.2717111,35.2598638 43.6130302,33.4545805 43.681294,31.7137013 C43.7495578,29.972822 44.0915734,27.5228417 44.7059477,26.2327904 C45.3217151,24.9433963 46.1415774,25.7169013 46.8931758,27.7160537" id="Fill-1" fill="#C71D4B"></path>
                                <path d="M47.9993046,34.3209127 C48.2884583,35.563195 48.272979,35.7110408 48.6070228,40.2064022 C48.9410665,44.7017637 49.0320849,48.7337491 48.5463438,49.9382433 C48.0599835,51.1436823 46.510813,51.699639 46.1160903,50.6335435 C45.7213676,49.5679204 45.6603791,47.7607067 45.6910282,45.3507735 C45.7213676,42.9408403 46.0554114,38.4454789 46.2377578,38.120974 C46.4197946,37.7964691 46.2680973,39.0940164 46.3287762,39.4185213 C46.3897647,39.7430262 46.5414621,38.4454789 46.5718016,37.1942219 C46.602141,35.942965 46.754148,34.1820416 47.0272032,33.2548173 C47.3008776,32.3280652 47.6652608,32.884022 47.9993046,34.3209127" id="Fill-1-Copy" fill="#E52F60"></path>
                                <path d="M46.8931758,27.7160537 C47.5437717,29.4444465 47.5089432,29.6501449 48.2605417,35.9045608 C49.0121401,42.1589767 49.2169316,47.7686956 48.1240141,49.4445136 C47.0297034,51.1216461 43.5440698,51.8951511 42.6559437,50.4118878 C41.7678177,48.9292817 41.6305935,46.4148975 41.6995539,43.0619469 C41.7678177,39.7089964 42.5194161,33.4545805 42.9296955,33.0030954 C43.3392784,32.5516103 42.9979593,34.3568935 43.134487,34.8083787 C43.2717111,35.2598638 43.6130302,33.4545805 43.681294,31.7137013 C43.7495578,29.972822 44.0915734,27.5228417 44.7059477,26.2327904 C45.3217151,24.9433963 46.1415774,25.7169013 46.8931758,27.7160537" id="Fill-1-Copy-2" stroke="#000000" stroke-width="2.39999986"></path>
                                <path d="M25.684209,58.3999965 C29.4586221,59.2524894 33.7048368,59.2524894 38.4228532,58.3999965 C38.4228532,58.3999965 39.5589612,61.2028379 32.0535311,61.5968447 C30.7381754,61.6658959 28.615068,60.6002799 25.684209,58.3999965 Z" id="Path-4" fill="#000000"></path>
                                <path d="M56.8842071,56.7999966 C60.6586202,57.6524895 64.904835,57.6524895 69.6228513,56.7999966 C69.6228513,56.7999966 70.7589593,59.602838 63.2535292,59.9968448 C61.9381735,60.065896 59.8150662,59.00028 56.8842071,56.7999966 Z" id="Path-4-Copy" fill="#000000" transform="translate(63.284207, 58.399997) scale(-1, 1) translate(-63.284207, -58.399997) "></path>
                                <path d="M39.6616131,66.399996 C33.9430239,66.8710378 29.8923566,68.9907259 27.5096111,72.7590603 C23.9354928,78.4115619 63.9656172,81.9443754 69.6842064,72.7590603 C69.6842064,72.7590603 63.2507935,66.399996 56.8173807,66.399996 C56.8173807,66.399996 55.3877334,71.3459349 48.2394969,69.9328095 C43.4740059,68.9907259 40.6147113,67.8131214 39.6616131,66.399996 Z" id="Path-6" fill="#3D3D3D"></path>
                                <path d="M42.4939332,68.7999959 C37.3148336,69.1768293 33.6463047,70.8725798 31.4883465,73.8872473 C28.2514092,78.4092486 64.5051067,81.2354994 69.6842064,73.8872473 C69.6842064,73.8872473 63.8577193,68.7999959 58.0312322,68.7999959 C58.0312322,68.7999959 56.7364573,72.756747 50.2625827,71.6262467 C45.9466663,70.8725798 43.3571165,69.9304962 42.4939332,68.7999959 Z" id="Path-6-Copy-2" fill="#535353"></path>
                                <path d="M39.6616131,66.399996 C33.9430239,66.8710378 29.8923566,68.9907259 27.5096111,72.7590603 C23.9354928,78.4115619 63.9656172,81.9443754 69.6842064,72.7590603 C69.6842064,72.7590603 63.2507935,66.399996 56.8173807,66.399996 C56.8173807,66.399996 55.3877334,71.3459349 48.2394969,69.9328095 C43.4740059,68.9907259 40.6147113,67.8131214 39.6616131,66.399996 Z" id="Path-6-Copy" stroke="#000000" stroke-width="2.39999986"></path>
                                <path d="M41.8642432,61.5999963 C39.512159,66.9333297 41.3938263,69.5999963 47.5092453,69.5999963 C56.6823737,69.5999963 58.7992495,65.9636324 55.2711232,63.0545417" id="Path-5" stroke="#000000" stroke-width="2.39999986"></path>
                                <path d="M31.777542,87.5012935 L78.8575392,83.199995 C94.075316,91.3246699 101.684204,99.2103837 101.684204,106.857136 C101.684204,110.424616 91.7424034,113.51152 88.8442052,118.327266 C88.0408919,119.662079 82.5587287,117.627735 81.7108723,119.761032 C80.7215615,122.250243 80.7215615,128.46323 81.7108723,138.399992 L31.777542,138.399992 C32.8921597,135.176247 32.8921597,133.264559 31.777542,132.664927 C28.3212826,130.805562 18.2242094,131.940624 18.2242094,129.797395 C18.2242094,128.327902 16.0842096,117.335696 16.0842096,115.459733 C16.0842096,108.747128 18.6407787,100.438534 26.0708756,91.8025919 C26.9953201,90.7281176 28.8975422,89.2943515 31.777542,87.5012935 Z" id="Rectangle" fill="#DD961D"></path>
                                <path d="M30.2442087,87.5012935 L75.124206,83.199995 C89.6308719,91.3246699 96.8842048,99.2103837 96.8842048,106.857136 C96.8842048,110.424616 87.4069738,113.51152 84.6442055,118.327266 C83.8784301,119.662079 78.6524428,117.627735 77.8442059,119.761032 C76.9011246,122.250243 76.9011246,128.46323 77.8442059,138.399992 C75.22713,146.933327 70.3457268,151.199995 63.1999962,151.199995 C56.0542657,151.199995 45.0690032,146.933327 30.2442087,138.399992 C31.3067416,135.176247 31.3067416,133.264559 30.2442087,132.664927 C26.9494568,130.805562 17.3242095,131.940624 17.3242095,129.797395 C17.3242095,128.327902 15.2842096,117.335696 15.2842096,115.459733 C15.2842096,108.747128 17.7213129,100.438534 24.804209,91.8025919 C25.6854552,90.7281176 27.4987884,89.2943515 30.2442087,87.5012935 Z" id="Rectangle-Copy" fill="#FCAF2D"></path>
                                <path d="M78.3999953,126.399992 C67.199996,128.533326 59.4666631,131.733325 55.1999967,135.999992 C50.9333303,140.266659 53.0666635,144.799992 61.5999963,149.599991 L78.3999953,146.399992 L78.3999953,126.399992 Z" id="Path-25" fill="#DD961D"></path>
                                <path d="M6.81362188,55.98852 C12.4606808,52.2066916 15.2842103,52.9157844 15.2842103,58.1157986 C15.2842103,65.9158198 13.872445,73.0067481 6.81362188,69.461284 C2.10773981,67.0976412 2.10773981,62.6067199 6.81362188,55.98852 Z" id="Path-7-Copy" fill="#E8B495" transform="translate(9.284210, 61.999996) scale(-1, 1) translate(-9.284210, -61.999996) "></path>
                                <path d="M9.63715113,58.8473023 C13.4018571,55.605735 15.2842101,56.2135289 15.2842101,60.6706838 C15.2842101,67.3564163 14.3430332,73.4343549 9.63715113,70.3953856 C6.49989641,68.3694061 6.49989641,64.520045 9.63715113,58.8473023 Z" id="Path-7-Copy-4" fill="#F0CFB4" transform="translate(11.284210, 63.999996) scale(-1, 1) translate(-11.284210, -63.999996) "></path>
                                <path d="M6.81362188,55.98852 C12.4606808,52.2066916 15.2842103,52.9157844 15.2842103,58.1157986 C15.2842103,65.9158198 13.872445,73.0067481 6.81362188,69.461284 C2.10773981,67.0976412 2.10773981,62.6067199 6.81362188,55.98852 Z" id="Path-7-Copy-2" stroke="#000000" stroke-width="2.39999986" transform="translate(9.284210, 61.999996) scale(-1, 1) translate(-9.284210, -61.999996) "></path>
                                <path d="M80.0842058,101.599994 C80.5582798,98.3999941 82.691613,96.7999942 86.4842054,96.7999942 C86.4842054,96.7999942 80.7953168,99.5428512 80.7953168,101.599994" id="Path-10" fill="#000000"></path>
                                <path d="M74.9917291,98.4673392 C75.4689221,95.1269885 77.6162903,93.4568131 81.433834,93.4568131 C81.433834,93.4568131 75.7075185,96.3199709 75.7075185,98.4673392" id="Path-10-Copy" fill="#000000" transform="translate(78.212782, 95.962076) rotate(-53.000000) translate(-78.212782, -95.962076) "></path>
                                <path d="M67.2842065,101.279994 C75.444206,100.426661 82.6442056,99.999994 88.8842052,99.999994 C88.8842052,99.999994 81.6842057,101.066661 67.2842065,103.199994 L67.2842065,101.279994 Z" id="Path-11" fill="#201A19"></path>
                                <path d="M38.4842082,89.5999947 L38.4842082,135.776413 C49.0442076,137.67083 54.8042073,139.565247 55.7642072,141.459664 C56.7242071,143.354082 55.5242072,126.067525 52.1642074,89.5999947 L38.4842082,89.5999947 Z" id="Path-13" fill="#E8E6A6"></path>
                                <path d="M42.484208,89.5999947 L42.484208,130.803568 C50.6442075,132.493971 55.0951163,134.184374 55.8369345,135.874777 C56.5787526,137.56518 55.6514799,122.140252 53.0551165,89.5999947 L42.484208,89.5999947 Z" id="Path-13-Copy-2" fill="#FAF9CD"></path>
                                <path d="M38.4842082,89.5999947 L38.4842082,135.776413 C49.0442076,137.67083 54.8042073,139.565247 55.7642072,141.459664 C56.7242071,143.354082 55.5242072,126.067525 52.1642074,89.5999947 L38.4842082,89.5999947 Z" id="Path-13-Copy" stroke="#000000" stroke-width="2.39999986"></path>
                                <line x1="32.0842086" y1="135.999992" x2="29.6842088" y2="85.5999949" id="Path-14" stroke="#000000" stroke-width="2.39999986"></line>
                                <line x1="82.0842056" y1="132.799992" x2="82.0842056" y2="118.399993" id="Path-15" stroke="#000000" stroke-width="2.39999986"></line>
                                <path d="M60.0842069,2.50711282 C39.1634535,6.32747522 27.7521334,15.4008359 25.8502467,29.7271949 C22.9974167,51.2167333 22.9974167,74.8552257 30.1294917,85.5999949 C30.1294917,85.5999949 16.5785492,74.1389077 12.2993041,56.230959 C8.0200591,38.3230103 5.88043659,7.52133846 31.5559068,2.50711282 C48.6728869,-0.835704274 58.1823203,-0.835704274 60.0842069,2.50711282 Z" id="Path-16" fill="#E8B495"></path>
                                <path d="M9.99758353,49.5336771 C13.8243305,72.2271023 22.6736829,85.1947739 36.5456406,88.4366918 C57.3535773,93.2995686 81.7490892,81.952856 81.7490892,72.2271023 C81.7490892,65.7432665 83.423291,54.6667138 86.7716946,38.997444 C89.1634114,20.6265759 83.1841193,9.0097035 68.8338182,4.14682667 C47.3083665,-3.14748858 27.2179449,-0.716050162 15.737704,10.6306624 C8.08421004,18.1951375 6.17083656,31.1628091 9.99758353,49.5336771 Z" id="Path-2-Copy" stroke="#000000" stroke-width="2.39999986"></path>
                                <path d="M36.8842083,47.7161262 C34.5172927,43.9999974 31.4403025,43.0709652 27.6532375,44.9290296 C21.9726401,47.7161262 20.5524907,51.1999969 25.5230135,51.1999969 C28.8366953,51.1999969 32.6237603,50.0387067 36.8842083,47.7161262 Z" id="Path-3" stroke="#000000" stroke-width="2.39999986" fill="#555555"></path>
                                <path d="M71.2842063,47.7161262 C68.9172907,43.9999974 65.8403004,43.0709652 62.0532355,44.9290296 C56.372638,47.7161262 54.9524887,51.1999969 59.9230114,51.1999969 C63.2366933,51.1999969 67.0237582,50.0387067 71.2842063,47.7161262 Z" id="Path-3-Copy" stroke="#000000" stroke-width="2.39999986" fill="#555555" transform="translate(64.084207, 47.599997) scale(-1, 1) translate(-64.084207, -47.599997) "></path>
                                <path d="M38.4864681,84.86734 L40.6338364,114.930496 L50.6548884,117.793654 L53.5180462,109.204181 L50.6548884,109.204181 C49.1519457,99.5175937 47.7203668,93.3140853 46.3601519,90.5936554 C44.9999369,87.8732255 42.3753757,85.9644537 38.4864681,84.86734 Z" id="Path-8-Copy" fill="#E8B495" transform="translate(46.002257, 101.330497) scale(-1, 1) rotate(8.000000) translate(-46.002257, -101.330497) "></path>
                                <path d="M43.9208969,90.9294326 L45.3524758,115.110667 L52.0331772,117.413642 L53.941949,110.504717 L52.0331772,110.504717 C51.0312153,102.713332 50.0768294,97.7235538 49.1700194,95.5353819 C48.2632095,93.3472101 46.513502,91.8118936 43.9208969,90.9294326 Z" id="Path-8-Copy-4" fill="#F0CFB4" transform="translate(48.931423, 104.171537) scale(-1, 1) rotate(8.000000) translate(-48.931423, -104.171537) "></path>
                                <path d="M38.4864681,84.86734 L40.6338364,114.930496 L50.6548884,117.793654 L53.5180462,109.204181 L50.6548884,109.204181 C49.1519457,99.5175937 47.7203668,93.3140853 46.3601519,90.5936554 C44.9999369,87.8732255 42.3753757,85.9644537 38.4864681,84.86734 Z" id="Path-8-Copy-2" stroke="#000000" stroke-width="2.39999986" transform="translate(46.002257, 101.330497) scale(-1, 1) rotate(8.000000) translate(-46.002257, -101.330497) "></path>
                                <path d="M28.17922,85.5999949 L30.3118972,110.630296 L42.3970683,104.909085 L48.0842096,125.648477 C37.1838579,130.416154 29.837969,132.799992 26.0465427,132.799992 C20.3594034,132.799992 16.0940489,131.369689 16.0940489,125.648477 C16.0940489,119.927266 15.3831565,98.4727214 26.0465427,92.0363582 C26.0465427,92.0363582 26.7574352,91.0828229 28.17922,89.1757523 L28.17922,85.5999949 Z" id="Path-12" fill="#DD961D"></path>
                                <path d="M30.0625929,91.9999945 L31.8220517,113.636357 L41.7923178,108.690903 L46.4842078,126.618174 C37.4914187,130.739386 31.4310608,132.799992 28.3031342,132.799992 C23.6112442,132.799992 20.0923268,131.563629 20.0923268,126.618174 C20.0923268,121.67272 19.5058405,103.127267 28.3031342,97.5636305 C28.3031342,97.5636305 28.8896204,96.7393882 30.0625929,95.0909034 L30.0625929,91.9999945 Z" id="Path-12-Copy-2" fill="#FCAF2D"></path>
                                <path d="M28.8950094,84.7999949 L31.0276867,109.830296 L43.1128578,104.109085 L48.799999,124.848477 C37.8996473,129.616154 30.5537584,131.999992 26.7623322,131.999992 C21.0751928,131.999992 16.8098383,130.569689 16.8098383,124.848477 C16.8098383,119.127266 16.0989459,97.6727215 26.7623322,91.2363582 C26.7623322,91.2363582 27.4732246,90.2828229 28.8950094,88.3757523 L28.8950094,84.7999949 Z" id="Path-12-Copy" stroke="#000000" stroke-width="2.39999986"></path>
                                <path d="M67.1768435,101.640913 L63.6305252,118.663299 C80.6528529,121.973207 92.710335,119.136143 99.8029715,110.152106 C99.8029715,110.152106 104.767817,107.315042 93.4195986,95.9667845 C85.8541196,88.4012796 80.1800104,84.1456831 76.3972709,83.199995 L60.0842069,89.5833898 L64.3397889,103.768711 L67.1768435,101.640913 Z" id="Path-9" stroke="#000000" stroke-width="2.39999986"></path>
                                <path d="M52.0842074,83.199995 L54.2556359,113.147819 L64.3889686,115.999993 L67.2842065,107.443472 L64.3889686,107.443472 C62.8691861,97.7940457 61.4215672,91.614336 60.0461117,88.9043425 C58.6706563,86.1943491 56.0166882,84.2928999 52.0842074,83.199995 Z" id="Path-8" fill="#E8B495"></path>
                                <path d="M55.2842072,87.9999948 L56.4270643,114.295645 L61.7603973,116.799993 L63.2842072,109.28695 L61.7603973,109.28695 C60.9605118,100.814283 60.1986071,95.3881965 59.4746832,93.0086901 C58.7507593,90.6291837 57.3539339,88.9596185 55.2842072,87.9999948 Z" id="Path-8-Copy-5" fill="#F0CFB4"></path>
                                <path d="M52.0842074,83.199995 L54.2556359,113.147819 L64.3889686,115.999993 L67.2842065,107.443472 L64.3889686,107.443472 C62.8691861,97.7940457 61.4215672,91.614336 60.0461117,88.9043425 C58.6706563,86.1943491 56.0166882,84.2928999 52.0842074,83.199995 Z" id="Path-8-Copy-3" stroke="#000000" stroke-width="2.39999986"></path>
                                <path d="M109.79583,143.088954 C119.309011,152.144136 116.455057,160.007846 101.233966,166.680086 C86.012876,173.352325 72.2187628,172.637442 59.8516269,164.535437 C39.3982867,172.160854 24.6528554,172.875737 15.6153329,166.680086 C2.05904931,157.38661 -7.21630265,144.51872 7.7669582,140.229423 C17.7557988,137.369892 36.3065027,140.467717 63.4190699,149.522899 L109.79583,143.088954 Z" id="Path-20" fill="#E0E0E0"></path>
                                <path d="M106.329422,142.797282 C114.917711,151.173325 112.341224,158.447257 98.5999619,164.619079 C84.8586997,170.7909 72.4056809,170.129633 61.2409054,162.635279 C42.7760844,169.688789 29.4642367,170.350056 21.3053623,164.619079 C9.06705066,156.022613 0.693469036,144.119815 14.220024,140.152216 C23.2377273,137.507149 39.9848905,140.372638 64.4615137,148.748681 L106.329422,142.797282 Z" id="Path-20-Copy-2" fill="#FFFFFF"></path>
                                <path d="M109.79583,143.088954 C119.309011,152.144136 116.455057,160.007846 101.233966,166.680086 C86.012876,173.352325 72.2187628,172.637442 59.8516269,164.535437 C39.3982867,172.160854 24.6528554,172.875737 15.6153329,166.680086 C2.05904931,157.38661 -7.21630265,144.51872 7.7669582,140.229423 C17.7557988,137.369892 36.3065027,140.467717 63.4190699,149.522899 L109.79583,143.088954 Z" id="Path-20-Copy" stroke="#000000" stroke-width="2.39999986"></path>
                                <path d="M63.2842068,151.999992 C68.0561363,137.454538 79.9859601,129.454538 99.0736783,127.999992 C99.0736783,127.999992 100.743854,130.666659 104.084204,135.999992 L63.2842068,151.999992 Z" id="Path-17" fill="#E8C7A9"></path>
                                <path d="M64.0842067,151.199992 C68.4818673,139.07878 79.4760187,132.412113 97.0666609,131.199992 C97.0666609,131.199992 98.6058421,133.422214 101.684204,137.866658 L64.0842067,151.199992 Z" id="Path-17-Copy-4" fill="#F6E0CC"></path>
                                <path d="M21.3075218,154.298915 C26.0794513,139.983126 38.0092752,132.109442 57.0969933,130.677864 C57.0969933,130.677864 58.7671687,133.302425 62.1075193,138.551547 L21.3075218,154.298915 Z" id="Path-17-Copy" fill="#E8C7A9" transform="translate(41.707521, 142.488389) scale(-1, 1) rotate(6.000000) translate(-41.707521, -142.488389) "></path>
                                <path d="M26.4913746,154.027241 C30.6772777,141.880511 41.1420355,135.199809 57.8856479,133.985136 C57.8856479,133.985136 59.350714,136.212037 62.2808462,140.665838 L26.4913746,154.027241 Z" id="Path-17-Copy-5" fill="#F6E0CC" transform="translate(44.386110, 144.006189) scale(-1, 1) rotate(6.000000) translate(-44.386110, -144.006189) "></path>
                                <path d="M63.2842068,151.999992 C68.0561363,137.454538 79.9859601,129.454538 99.0736783,127.999992 C99.0736783,127.999992 100.743854,130.666659 104.084204,135.999992 L63.2842068,151.999992 Z" id="Path-17-Copy-3" stroke="#000000" stroke-width="2.39999986"></path>
                                <path d="M21.3075218,154.298915 C26.0794513,139.983126 38.0092752,132.109442 57.0969933,130.677864 C57.0969933,130.677864 58.7671687,133.302425 62.1075193,138.551547 L21.3075218,154.298915 Z" id="Path-17-Copy-2" stroke="#000000" stroke-width="2.39999986" transform="translate(41.707521, 142.488389) scale(-1, 1) rotate(6.000000) translate(-41.707521, -142.488389) "></path>
                                <polygon id="Path-18" fill="#613913" points="108.512775 132.799992 63.5127782 151.519991 12.0842098 138.559992 12.0842098 146.479991 64.2270638 161.59999 112.084204 141.439992"></polygon>
                                <polygon id="Path-18-Copy-2" fill="#8E5A28" points="108.429528 137.599992 63.4683794 153.199991 12.0842098 142.399992 12.0842098 146.776462 64.1820484 161.59999 111.284204 142.541168"></polygon>
                                <polygon id="Path-18-Copy" stroke="#000000" stroke-width="2.39999986" points="108.512775 132.799992 63.5127782 151.519991 12.0842098 138.559992 12.0842098 146.479991 64.2270638 161.59999 112.084204 141.439992"></polygon>
                                <g id="Group-5" transform="translate(97.984204, 151.899991) scale(-1, 1) translate(-97.984204, -151.899991) translate(89.484204, 146.399991)" fill="#000000">
                                    <path d="M16.7999996,3.46666646 C13.9999994,9.47555499 10.4999994,11.5555549 6.29999962,9.70666609 C6.29999962,9.70666609 12.5999992,10.3999994 13.9999992,2.07999988" id="Path-21"></path>
                                    <path d="M7,0.928998303 C5.13333317,4.95465761 2.79999983,6.34815507 0,5.10949066 C0,5.10949066 4.19999975,5.57398982 5.13333303,0" id="Path-21-Copy"></path>
                                </g>
                                <polygon id="Path-22" fill="#000000" points="55.2842072 85.5999949 56.0842072 93.5999944 57.6842071 85.5999949"></polygon>
                                <polygon id="Path-22-Copy" fill="#000000" points="47.2842077 85.5999949 48.0842077 93.5999944 49.6842076 85.5999949"></polygon>
                            </g>
                            <path d="M11.0719993,46.3999972 C5.20533302,34.1333313 6.00533298,25.8666651 13.4719992,21.5999987 C13.4719992,21.5999987 2.27199986,32.799998 19.0719989,46.3999972" id="Path-24" stroke="#000000" stroke-width="2.39999986" fill="#000000" transform="translate(13.135999, 33.999998) rotate(-95.000000) translate(-13.135999, -33.999998) "></path>
                        </g>
                    </g>
                </g>
                <g id="Group-9" transform="translate(8.399999, 8.399999)" fill="#FF0000" stroke="#FFFFFF" stroke-width="0.799999952">
                    <circle id="Oval-Copy" cx="2.60000062" cy="2.60000062" r="2"></circle>
                </g>
                <path d="M98.3999941,0 L156.799991,0 C156.799991,2.65096664 154.650958,4.79999971 151.999991,4.79999971 L103.199994,4.79999971 C100.549027,4.79999971 98.3999941,2.65096664 98.3999941,0 L98.3999941,0 L98.3999941,0 Z" id="Rectangle" fill="#FFFFFF"></path>
            </g>
            <path d="M19.6538086,13 L19.6538086,12.375 L18.2060547,12.375 L18.2060547,9.43066406 L17.4492188,9.43066406 L17.4492188,13 L19.6538086,13 Z M22.809375,13 L22.809375,12.5703125 L22.3748047,12.3701172 L22.3748047,10.0605469 L22.809375,9.86035156 L22.809375,9.43066406 L21.1858398,9.43066406 L21.1858398,9.86035156 L21.6204102,10.0605469 L21.6204102,12.3701172 L21.1858398,12.5703125 L21.1858398,13 L22.809375,13 Z M26.2066406,13 L27.4200195,9.43066406 L26.6558594,9.43066406 L25.9795898,11.5546875 C25.8754232,11.9290365 25.814388,12.1910807 25.7964844,12.3408203 C25.7867188,12.2757161 25.7618978,12.1597493 25.7220215,11.9929199 C25.6821452,11.8260905 25.6434896,11.680013 25.6060547,11.5546875 L25.6060547,11.5546875 L24.934668,9.43066406 L24.1705078,9.43066406 L25.3814453,13 L26.2066406,13 Z M31.1249023,13 L31.1249023,12.375 L29.8260742,12.375 L29.8260742,11.4545898 L31.0345703,11.4545898 L31.0345703,10.8344727 L29.8260742,10.8344727 L29.8260742,10.0507812 L31.1249023,10.0507812 L31.1249023,9.43066406 L29.0692383,9.43066406 L29.0692383,13 L31.1249023,13 Z" id="LIVE" fill="#FFFFFF" fill-rule="nonzero"></path>
        </g>
    </g>
</svg>