<?xml version="1.0" encoding="UTF-8"?>
<svg width="27px" height="19px" viewBox="0 0 27 19" version="1.1" xmlns="http://www.w3.org/2000/svg" xmlns:xlink="http://www.w3.org/1999/xlink">
    <title>PlayList</title>
    <g id="Page-1" stroke="none" stroke-width="1" fill="none" fill-rule="evenodd">
        <path d="M20.983586,5.24588114 L20.983586,10.4918237 L26.2295286,10.4918237 L26.2295286,13.1147336 L20.983586,13.1147336 L20.983586,18.3606762 L18.3606762,18.3606762 L18.3606762,13.1147336 L13.1147336,13.1147336 L13.1147336,10.4918237 L18.3606762,10.4918237 L18.3606762,5.24588114 L20.983586,5.24588114 Z M10.4918237,10.4918237 L10.4918237,13.1147951 L-8.8817842e-16,13.1147951 L-8.8817842e-16,10.4918237 L10.4918237,10.4918237 Z M15.7377049,5.24588114 L15.7377049,7.86885244 L6.39488462e-14,7.86885244 L6.39488462e-14,5.24588114 L15.7377049,5.24588114 Z M15.7377049,7.9269924e-14 L15.7377049,2.62297131 L6.39488462e-14,2.62297131 L6.39488462e-14,7.9269924e-14 L15.7377049,7.9269924e-14 Z" id="PlayList" fill="#39003E" fill-rule="nonzero"></path>
    </g>
</svg>