<?xml version="1.0" encoding="UTF-8"?>
<svg width="14px" height="18px" viewBox="0 0 14 18" version="1.1" xmlns="http://www.w3.org/2000/svg" xmlns:xlink="http://www.w3.org/1999/xlink">
    <title>Previous</title>
    <g id="Page-1" stroke="none" stroke-width="1" fill="none" fill-rule="evenodd">
        <path d="M13.135,0.087 C13.256,-0.008 13.42,-0.028 13.56,0.043 C13.698,0.106 13.784,0.249 13.784,0.403 L13.784,0.403 L13.784,17.402 C13.784,17.558 13.698,17.699 13.561,17.764 L13.561,17.764 L13.386,17.804 C13.298,17.804 13.208,17.774 13.136,17.718 L13.136,17.718 L3.7,10.2744509 L3.7,17.368 C3.7,17.561375 3.59128125,17.7248906 3.44753516,17.762748 L3.384,17.771 L0.728,17.771 C0.554,17.771 0.412,17.59 0.412,17.368 L0.412,17.368 L0.412,0.433 C0.412,0.215 0.553,0.034 0.728,0.034 L0.728,0.034 L3.384,0.034 C3.557,0.034 3.7,0.215 3.7,0.434 L3.7,0.434 L3.7,7.52945088 Z" id="Previous" fill="#FFFFFF" fill-rule="nonzero"></path>
    </g>
</svg>