<?xml version="1.0" encoding="UTF-8"?>
<svg width="98px" height="74px" viewBox="0 0 98 74" version="1.1" xmlns="http://www.w3.org/2000/svg" xmlns:xlink="http://www.w3.org/1999/xlink">
    <title>Shop</title>
    <g id="Page-1" stroke="none" stroke-width="1" fill="none" fill-rule="evenodd">
        <g id="Shop" fill-rule="nonzero">
            <rect id="Rectangle" fill="#FFE1B2" x="6.17788462" y="14" width="85" height="59"></rect>
            <rect id="Rectangle" fill="#FFB980" x="6.17788462" y="11" width="85" height="11"></rect>
            <path d="M36.6153846,25 L14.7403846,25 C13.877494,25 13.1778846,25.6788468 13.1778846,26.516129 L13.1778846,72 L38.1778846,72 L38.1778846,26.516129 C38.1778846,25.6788468 37.4782752,25 36.6153846,25 Z" id="Path" fill="#7E5C62"></path>
            <path d="M95.6622596,74 L1.69350962,74 C0.855747897,74 0.177884615,73.329125 0.177884615,72.5 C0.177884615,71.670875 0.855747897,71 1.69350962,71 L95.6622596,71 C96.5000213,71 97.1778846,71.670875 97.1778846,72.5 C97.1778846,73.329125 96.5000213,74 95.6622596,74 Z" id="Path" fill="#5C546A"></path>
            <path d="M32.6778846,53 C31.8487596,53 31.1778846,52.329125 31.1778846,51.5 L31.1778846,48.5 C31.1778846,47.670875 31.8487596,47 32.6778846,47 C33.5070096,47 34.1778846,47.670875 34.1778846,48.5 L34.1778846,51.5 C34.1778846,52.329125 33.5070096,53 32.6778846,53 Z" id="Path" fill="#5C546A"></path>
            <path d="M7.67788462,18 L7.67788462,18 C5.19257212,18 3.17788462,15.9853125 3.17788462,13.5 L3.17788462,3 C3.17788462,1.3430625 4.52094712,0 6.17788462,0 L12.1778846,0 L12.1778846,13.5 C12.1778846,15.9853125 10.1631971,18 7.67788462,18 Z" id="Path" fill="#FF4F19"></path>
            <path d="M16.6778846,18 L16.6778846,18 C14.1925721,18 12.1778846,15.9853125 12.1778846,13.5 L12.1778846,0 L21.1778846,0 L21.1778846,13.5 C21.1778846,15.9853125 19.1631971,18 16.6778846,18 Z" id="Path" fill="#E9001E"></path>
            <path d="M25.6778846,18 L25.6778846,18 C23.1925721,18 21.1778846,15.9853125 21.1778846,13.5 L21.1778846,0 L30.1778846,0 L30.1778846,13.5 C30.1778846,15.9853125 28.1631971,18 25.6778846,18 Z" id="Path" fill="#FF4F19"></path>
            <path d="M34.6778846,18 L34.6778846,18 C32.1925721,18 30.1778846,15.9853125 30.1778846,13.5 L30.1778846,0 L39.1778846,0 L39.1778846,13.5 C39.1778846,15.9853125 37.1631971,18 34.6778846,18 Z" id="Path" fill="#E9001E"></path>
            <path d="M44.6778846,18 L44.6778846,18 C42.1925721,18 40.1778846,15.9853125 40.1778846,13.5 L40.1778846,0 L49.1778846,0 L49.1778846,13.5 C49.1778846,15.9853125 47.1631971,18 44.6778846,18 Z" id="Path" fill="#FF4F19"></path>
            <path d="M52.6778846,18 L52.6778846,18 C50.1925721,18 48.1778846,15.9853125 48.1778846,13.5 L48.1778846,0 L57.1778846,0 L57.1778846,13.5 C57.1778846,15.9853125 55.1631971,18 52.6778846,18 Z" id="Path" fill="#E9001E"></path>
            <path d="M62.6778846,18 L62.6778846,18 C60.1925721,18 58.1778846,15.9853125 58.1778846,13.5 L58.1778846,0 L67.1778846,0 L67.1778846,13.5 C67.1778846,15.9853125 65.1631971,18 62.6778846,18 Z" id="Path" fill="#FF4F19"></path>
            <path d="M71.6778846,18 L71.6778846,18 C69.1925721,18 67.1778846,15.9853125 67.1778846,13.5 L67.1778846,0 L76.1778846,0 L76.1778846,13.5 C76.1778846,15.9853125 74.1631971,18 71.6778846,18 Z" id="Path" fill="#E9001E"></path>
            <path d="M80.6778846,18 L80.6778846,18 C78.1925721,18 76.1778846,15.9853125 76.1778846,13.5 L76.1778846,0 L85.1778846,0 L85.1778846,13.5 C85.1778846,15.9853125 83.1631971,18 80.6778846,18 Z" id="Path" fill="#FF4F19"></path>
            <path d="M89.6778846,18 L89.6778846,18 C87.1925721,18 85.1778846,15.9853125 85.1778846,13.5 L85.1778846,0 L91.1778846,0 C92.8348221,0 94.1778846,1.3430625 94.1778846,3 L94.1778846,13.5 C94.1778846,15.9853125 92.1631971,18 89.6778846,18 Z" id="Path" fill="#E9001E"></path>
            <path d="M83.6593661,26 L45.6964031,26 C44.8578013,26 44.1778846,26.671625 44.1778846,27.5 L44.1778846,57.5 C44.1778846,58.328375 44.8578013,59 45.6964031,59 L83.6593661,59 C84.4979679,59 85.1778846,58.328375 85.1778846,57.5 L85.1778846,27.5 C85.1778846,26.671625 84.4979679,26 83.6593661,26 Z" id="Path" fill="#53DCFF"></path>
            <path d="M83.1434019,61 L45.2123674,61 C43.5396088,61 42.1778846,59.6163542 42.1778846,57.9166667 L42.1778846,27.0833333 C42.1778846,25.3836458 43.5396088,24 45.2123674,24 L83.1434019,24 C84.8161605,24 86.1778846,25.3836458 86.1778846,27.0833333 L86.1778846,57.9166667 C86.1778846,59.6163542 84.8161605,61 83.1434019,61 Z M45.2123674,27.0833333 L45.2123674,57.9166667 L83.1464363,57.9166667 L83.1434019,27.0833333 L45.2123674,27.0833333 Z" id="Shape" fill="#7E5C62"></path>
            <path d="M32.6778846,44 L17.6778846,44 C16.8495096,44 16.1778846,43.3080227 16.1778846,42.4545455 L16.1778846,28.5454545 C16.1778846,27.6919773 16.8495096,27 17.6778846,27 L32.6778846,27 C33.5062596,27 34.1778846,27.6919773 34.1778846,28.5454545 L34.1778846,42.4545455 C34.1778846,43.3080227 33.5062596,44 32.6778846,44 Z" id="Path" fill="#53DCFF"></path>
        </g>
    </g>
</svg>