<?xml version="1.0" encoding="UTF-8"?>
<svg width="41px" height="41px" viewBox="0 0 41 41" version="1.1" xmlns="http://www.w3.org/2000/svg" xmlns:xlink="http://www.w3.org/1999/xlink">
    <title>Time</title>
    <g id="Page-1" stroke="none" stroke-width="1" fill="none" fill-rule="evenodd">
        <g id="Time" fill-rule="nonzero">
            <g id="Group">
                <path d="M41,20.5 C41,20.250957 40.9955156,20.002875 40.9867871,19.7559941 C40.595125,8.77880469 31.5728027,0 20.5,0 C9.42719727,0 0.404875,8.77880469 0.0132929687,19.7559941 C0.004484375,20.002875 -2.53155786e-15,20.250957 -2.53155786e-15,20.5 C-2.53155786e-15,31.8218457 10.5304336,40.2560742 20.5,40.2560742 C30.6502227,40.2560742 41,31.8218457 41,20.5 Z" id="Path" fill="#FF5876"></path>
                <path d="M20.5,39.5120684 C9.42735742,39.5120684 0.406636719,30.7330234 0.0148945313,19.7559941 C0.00600585938,20.0031152 5.64544071e-16,20.2507969 5.64544071e-16,20.5 C5.64544071e-16,31.8218457 9.1781543,41 20.5,41 C31.8218457,41 41,31.8218457 41,20.5 C41,20.2507969 40.9939941,20.0031152 40.9851855,19.7559941 C40.5933633,30.7331035 31.5726426,39.5120684 20.5,39.5120684 Z" id="Path" fill="#E6485D"></path>
                <path d="M37.5901934,19.7559941 C37.2006934,10.6537539 29.6981738,3.39387109 20.5,3.39387109 C11.3018262,3.39387109 3.79930664,10.6537539 3.40980664,19.7559941 C3.39923633,20.0027148 3.40972656,36.5180273 20.5,36.5180273 C37.5902734,36.5180273 37.6007637,20.0027148 37.5901934,19.7559941 Z" id="Path" fill="#E4EEF9"></path>
                <path d="M20.5,36.1181973 C11.3019063,36.1181973 3.80058789,28.8581543 3.41092773,19.7559941 C3.40035742,20.0027949 3.39387109,20.2505566 3.39387109,20.4999199 C3.39387109,29.947377 11.052543,37.6060488 20.5,37.6060488 C29.947457,37.6060488 37.6061289,29.947457 37.6061289,20.5 C37.6061289,20.2506367 37.5995625,20.0027949 37.5890723,19.7559941 C37.1994121,28.8582344 29.6980937,36.1181973 20.5,36.1181973 Z" id="Path" fill="#D5E0F2"></path>
                <path d="M26.7136621,14.4981445 C26.2260664,14.0172754 25.4409805,14.0226406 24.9601914,14.5101563 L22.0506328,17.4599941 L22.342998,18.8643242 L23.702084,19.3170859 L26.7257539,16.2516152 C27.206543,15.7640996 27.2011777,14.9790137 26.7136621,14.4981445 L26.7136621,14.4981445 Z" id="Path" fill="#405B6C"></path>
                <path d="M18.7448477,17.5729043 L12.14625,11.6926074 C11.6349512,11.2369629 10.8512266,11.282127 10.3956621,11.7934258 C9.94009766,12.3046445 9.98518164,13.0884492 10.4964805,13.5440137 L17.2250449,19.5401035 L18.6271328,19.0724473 L18.7448477,17.5729043 Z" id="Path" fill="#405B6C"></path>
                <path d="M29.2794453,28.4947598 C29.138668,28.4947598 28.99725,28.4471133 28.8809766,28.349498 L21.0274746,21.7528223 C20.7653789,21.5326074 20.7312656,21.1415059 20.9514805,20.8794102 C21.1716953,20.6171543 21.5627168,20.5831211 21.8249727,20.803416 L29.6784746,27.4001719 C29.9405703,27.6203867 29.9746836,28.0114883 29.7544688,28.273584 C29.6318691,28.4195664 29.4562578,28.4947598 29.2794453,28.4947598 Z" id="Path" fill="#86DCFF"></path>
                <path d="M17.2250449,19.5401035 L18.3829746,20.5719902 L19.8700254,20.0666973 L19.7893867,18.5036523 L18.7449277,17.5729043 C18.0182187,18.0095703 17.4681621,18.7092129 17.2250449,19.5401035 Z" id="Path" fill="#2D4456"></path>
                <path d="M22.0505527,17.4600742 L21.0660723,18.458168 L21.0660723,20.4173594 L22.6168652,20.4173594 L23.702084,19.317166 C23.403873,18.5102988 22.8091328,17.8478125 22.0505527,17.4600742 Z" id="Path" fill="#2D4456"></path>
                <path d="M22.4845762,19.7559141 C22.1833223,18.9527305 21.4084062,18.3810527 20.5,18.3810527 C19.5915937,18.3810527 18.8166777,18.9527305 18.5154238,19.7559141 C18.4286191,19.9874199 18.5096582,21.8749414 20.5,21.8749414 C22.4903418,21.8749414 22.5713809,19.9874199 22.4845762,19.7559141 L22.4845762,19.7559141 Z" id="Path" fill="#FF5876"></path>
                <path d="M20.5,21.1310156 C19.5915938,21.1310156 18.816998,20.5592578 18.5157441,19.7560742 C18.4288594,19.9875801 18.3810527,20.2381445 18.3810527,20.5 C18.3810527,21.6702617 19.3297383,22.6188672 20.4999199,22.6188672 C21.6701816,22.6188672 22.6187871,21.6701816 22.6187871,20.5 C22.6187871,20.2381445 22.5709805,19.9875801 22.4841758,19.7560742 C22.183002,20.5591777 21.4084062,21.1310156 20.5,21.1310156 Z" id="Path" fill="#E6485D"></path>
            </g>
            <g id="Group" transform="translate(5.000000, 5.000000)" fill="#405B6C">
                <path d="M16.1165821,2.5891359 L16.1165821,0.679297436 C16.1165821,0.338774359 15.8405231,0.0627153846 15.5,0.0627153846 C15.1594769,0.0627153846 14.8834179,0.338774359 14.8834179,0.679297436 L14.8834179,2.5891359 C14.8834179,2.92965897 15.1593974,3.20571795 15.5,3.20571795 C15.8406026,3.20571795 16.1165821,2.92965897 16.1165821,2.5891359 Z" id="Path"></path>
                <path d="M14.8834179,28.4108641 L14.8834179,30.3207026 C14.8834179,30.6612256 15.1593974,30.9372846 15.5,30.9372846 C15.8406026,30.9372846 16.1165821,30.6612256 16.1165821,30.3207026 L16.1165821,28.4108641 C16.1165821,28.070341 15.8405231,27.7942821 15.5,27.7942821 C15.1594769,27.7942821 14.8834179,28.070341 14.8834179,28.4108641 Z" id="Path"></path>
                <path d="M30.3207026,16.1165821 C30.6613051,16.1165821 30.9372846,15.8405231 30.9372846,15.5 C30.9372846,15.1594769 30.6612256,14.8834179 30.3207026,14.8834179 L28.4108641,14.8834179 C28.070341,14.8834179 27.7942821,15.1594769 27.7942821,15.5 C27.7942821,15.8405231 28.070341,16.1165821 28.4108641,16.1165821 L30.3207026,16.1165821 Z" id="Path"></path>
                <path d="M0.679297436,14.8834179 C0.338694872,14.8834179 0.0627153846,15.1594769 0.0627153846,15.5 C0.0627153846,15.8405231 0.338694872,16.1165821 0.679297436,16.1165821 L2.5891359,16.1165821 C2.92973846,16.1165821 3.20571795,15.8405231 3.20571795,15.5 C3.20571795,15.1594769 2.92965897,14.8834179 2.5891359,14.8834179 L0.679297436,14.8834179 Z" id="Path"></path>
            </g>
        </g>
    </g>
</svg>